<?xml version="1.0" encoding="utf-8"?>
<!-- Generator: Adobe Illustrator 26.0.1, SVG Export Plug-In . SVG Version: 6.00 Build 0)  -->
<svg version="1.1" id="Слой_1" xmlns="http://www.w3.org/2000/svg" xmlns:xlink="http://www.w3.org/1999/xlink" x="0px" y="0px"
	 viewBox="0 0 412.6 185" style="enable-background:new 0 0 412.6 185;" xml:space="preserve">
<style type="text/css">
	.st0{fill:#FFFFFF;}
	.st1{display:none;}
	.st2{display:inline;}
	.st3{fill:#110E0E;}
	.st4{display:inline;fill:#110E0E;}
	.st5{clip-path:url(#SVGID_00000004516576537096715140000000188390295849997472_);}
	.st6{fill:#FFF200;}
	.st7{fill:#FFF980;}
	.st8{fill:#80DBF5;}
	.st9{fill:#FF80C8;}
	.st10{fill:#FF0090;}
	.st11{fill:#00B7EB;}
</style>
<g>
	<g>
		<g>
			<defs>
				<path id="SVGID_1_" d="M362.3,154.2c-0.9,2.8-2.5,5.4-4.7,7.5c-3.2,3.1-7.5,4.9-12,5l-61.7,1.3c-7.8,0.2-15.1-3.2-19.9-9.2
					l-31.2-38.4c-4-5-5.7-11.5-4.3-17.8l13.6-64.8c1-4.6,4.6-8,9.2-8.8l67.7-11.8c3.8-0.6,7.5-0.1,11,1.6s6.1,4.4,7.8,7.8l26.2,51.6
					c2.2,4.1,3.1,8.8,2.8,13.5l-3.5,58.2C363,151.3,362.8,152.9,362.3,154.2z"/>
			</defs>
			<clipPath id="SVGID_00000047778065736337802020000011366689431085615551_">
				<use xlink:href="#SVGID_1_"  style="overflow:visible;"/>
			</clipPath>
		</g>
	</g>
	<g>
		<g>
			<g>
				<g>
					<path class="st0" d="M114.2,32.4h28.6l-27.6,129.8L92,136.5L114.2,32.4z"/>
					<path class="st0" d="M206.8,32.4h28.6l-27.6,129.8l-23.3-25.7L206.8,32.4z"/>
				</g>
			</g>
			<g>
				<g>
					<g>
						<g>
							<g>
								<g>
									<g>
										<g>
											
												<ellipse transform="matrix(0.3798 -0.9251 0.9251 0.3798 45.3756 320.9181)" class="st0" cx="262" cy="126.6" rx="4.4" ry="9.8"/>
										</g>
										<g>
											<path class="st0" d="M362.3,154.2c-0.9,2.8-2.5,5.4-4.7,7.5c-3.2,3.1-7.5,4.9-12,5l-61.7,1.3c-7.8,0.2-15.1-3.2-19.9-9.2
												l-31.2-38.4c-4-5-5.7-11.5-4.3-17.8l13.6-64.8c1-4.6,4.6-8,9.2-8.8l67.7-11.8c3.8-0.6,7.5-0.1,11,1.6s6.1,4.4,7.8,7.8
												l26.2,51.6c2.2,4.1,3.1,8.8,2.8,13.5l-3.5,58.2C363,151.3,362.8,152.9,362.3,154.2z M229.7,102.9l1.3,0.3
												c-1.2,5.5,0.2,11.1,3.8,15.5l31.2,38.4c4.4,5.4,10.9,8.4,17.8,8.3l61.7-1.3c7.9-0.2,14.5-6.5,14.9-14.4l3.5-58.2
												c0.3-4.2-0.6-8.4-2.5-12.1l-26.2-51.6c-3-5.9-9.4-9.1-15.9-8l-67.7,11.9c-3.5,0.6-6.3,3.2-7,6.7L231,103.2L229.7,102.9z"
												/>
										</g>
										<g>
											<path class="st0" d="M350.5,163c-0.1,0.4-0.3,0.6-0.4,0.9c-1,1.7-3,2.3-4.5,2.4l-60.4,1.3c-7.2,0.1-14.6-0.9-20.4-8.4
												l-30.3-39.4c-1.3-1.7-1.5-3.9-0.7-5.7c0.9-2,2.6-3.2,4.8-3.3l70.3-5.7c5.1-0.4,10,2.1,12.7,6.6l28.4,47.1l0,0
												C350.8,160.6,350.8,161.9,350.5,163z M235.4,115.2c-0.4,1.2-0.2,2.5,0.6,3.5l30.3,39.4c4.9,6.5,11.1,7.8,18.9,7.7
												l60.3-1.3c1,0,2.3-0.4,3-1.5c0.5-0.9,0.4-2.1-0.2-3.4l-28.2-47c-2.3-3.9-6.6-6-11-5.7l-70.3,5.7c-1.4,0.1-2.7,1-3.2,2.3
												C235.4,114.9,235.4,115,235.4,115.2z"/>
										</g>
										<g>
											<path class="st0" d="M362.1,153.4c-0.5,1.7-1.9,3-3.7,3.3c-2.2,0.5-4.4-0.4-5.6-2.4l-27.1-46.2
												c-2.1-3.5-2.9-7.5-2.3-11.6l8.5-68.6c0.2-1.1,1.2-2.1,2.4-2.2c1.3-0.3,2.3,0.3,2.9,1.2c6.6,12.8,25.1,49.6,26.8,52.9
												c1.8,3.6,2.1,8.4,2.2,8.5v0.1l-3.9,63.7C362.3,152.6,362.2,153.1,362.1,153.4z M333.8,28.2l-8.5,68.6
												c-0.4,3.6,0.3,7.3,2.2,10.4l27,46.3c0.9,1.5,2.4,1.8,3.6,1.5c1.2-0.3,2.4-1.2,2.5-3.1l3.9-63.7c0-0.5-0.4-4.8-1.9-7.8
												c-1.6-3.3-20.1-40.1-26.8-52.9c-0.1-0.3-0.5-0.3-0.9-0.3C334.2,27.5,333.8,27.9,333.8,28.2L333.8,28.2z"/>
										</g>
										<g>
											<g>
												<path class="st0" d="M317.4,94.7c-1,3.1-3.8,5.3-7,5.6l-74.2,5.4c-1.9,0.2-3.8-0.6-5-2.1s-1.8-3.4-1.3-5.3l13.3-60.7
													c1-4.3,4.4-7.6,8.8-8.4l68.4-11.3c1.8-0.3,3.6,0.3,4.9,1.5c1.3,1.3,2,3.1,1.7,4.8l-9.3,69
													C317.7,93.8,317.6,94.2,317.4,94.7z M245.1,37.1c-0.1,0.3-0.2,0.5-0.2,0.8l-13.2,60.7c-0.3,1.3,0.1,2.7,1,3.7
													c0.9,1,2.2,1.5,3.5,1.4l74.2-5.4c2.9-0.2,5.3-2.4,5.7-5.3l9.3-69c0.2-1.3-0.3-2.5-1.2-3.3c-0.9-0.9-2.2-1.3-3.4-1.1
													L252.3,31C248.8,31.6,246.1,33.9,245.1,37.1z"/>
											</g>
											<g>
												<g>
													
														<ellipse transform="matrix(0.5746 -0.8184 0.8184 0.5746 72.484 232.7424)" class="st0" cx="260.1" cy="46.6" rx="9.2" ry="6.2"/>
												</g>
												<g>
													<path class="st0" d="M268.5,38.9c0.5,0.4,1.1,1,1.4,1.6c0.4,0.6,0.6,1.3,0.8,2.1s0.3,1.4,0.3,2.2c0,0.7,0,1.5-0.2,2.2
														c-0.1,0.4-0.1,0.7-0.2,1.1c0,0.2-0.1,0.4-0.2,0.5c-0.1,0.2-0.1,0.4-0.2,0.5l-0.2,0.5c-0.1,0.2-0.2,0.4-0.2,0.5
														c-0.1,0.2-0.2,0.4-0.3,0.5l-0.3,0.5c-0.1,0.2-0.2,0.4-0.3,0.5l-0.3,0.4c-0.2,0.4-0.4,0.6-0.6,1
														c-0.4,0.6-0.9,1.2-1.4,1.7c-0.5,0.5-1.1,1.1-1.7,1.5c-0.6,0.4-1.3,0.9-2,1.3s-1.4,0.7-2.2,0.9
														c-0.2,0.1-0.4,0.1-0.5,0.2c-0.2,0.1-0.4,0.1-0.6,0.1c-0.4,0.1-0.8,0.1-1.2,0.2c-0.2,0-0.4,0-0.6,0s-0.4,0-0.6,0
														c-0.4,0-0.8-0.1-1.3-0.2c-0.8-0.2-1.6-0.5-2.2-1s-1.3-1.1-1.6-1.7c-0.4-0.6-0.6-1.3-0.7-2.1c0.3,0.6,0.7,1.2,1.2,1.6
														c0.4,0.4,1.1,0.8,1.6,1.1c1.3,0.5,2.6,0.6,3.9,0.4c1.3-0.3,2.5-0.7,3.7-1.4c1.2-0.7,2.2-1.5,3.1-2.5
														c0.4-0.4,0.9-1,1.3-1.5c0.2-0.3,0.4-0.5,0.5-0.8l0.3-0.4c0.1-0.2,0.2-0.3,0.3-0.4c0.6-1.2,1.2-2.3,1.5-3.6
														c0.1-0.3,0.2-0.6,0.3-1c0.1-0.4,0.1-0.6,0.2-1c0.1-0.6,0.1-1.3,0.1-2c0-0.6-0.1-1.3-0.3-2
														C269.1,40.1,268.8,39.5,268.5,38.9z"/>
												</g>
											</g>
											<g>
												<g>
													
														<ellipse transform="matrix(0.5746 -0.8184 0.8184 0.5746 96.6279 265.6041)" class="st0" cx="303.8" cy="39.8" rx="9.2" ry="6.2"/>
												</g>
												<g>
													<path class="st0" d="M298.1,33c1.3-2.2,3.4-4,6-4.9c1.3-0.4,2.8-0.7,4.3-0.5s3.1,0.8,4.2,1.9c0.6,0.5,1.2,1.1,1.6,1.8
														c0.4,0.6,0.8,1.3,1.1,2.1c0.5,1.4,0.7,3,0.7,4.5c0,0.7-0.1,1.4-0.3,2.2c-0.2,0.7-0.4,1.4-0.5,2.1
														c-0.4,1.3-1.1,2.7-1.9,3.9c-0.8,1.2-1.7,2.2-2.8,3.2s-2.2,1.8-3.6,2.4c-1.3,0.6-2.8,1.1-4.3,1.3
														c-0.7,0.1-1.5,0.1-2.3,0c-0.8-0.1-1.5-0.3-2.2-0.5c-1.4-0.6-2.8-1.6-3.7-2.9c-0.1-0.2-0.2-0.4-0.4-0.4l-0.3-0.5
														l-0.1-0.3l-0.1-0.3c-0.1-0.2-0.2-0.4-0.2-0.5c-0.1-0.2-0.1-0.4-0.2-0.5c-0.1-0.2-0.1-0.4-0.2-0.5
														c-0.1-0.4-0.2-0.7-0.2-1.1v-0.5c0-0.2,0-0.4,0-0.5c0-0.4,0-0.7,0.1-1c0.1-0.7,0.2-1.3,0.4-2c0.1-0.4,0.2-0.6,0.3-0.9
														c0.1-0.3,0.3-0.6,0.4-0.9l0.4-0.8c0.2-0.3,0.4-0.5,0.5-0.8c-0.4,1.2-0.8,2.3-1,3.6c-0.2,1.3-0.1,2.5,0.1,3.7
														c0.1,0.3,0.2,0.6,0.3,0.9c0,0.2,0.1,0.3,0.2,0.4c0.1,0.2,0.1,0.3,0.2,0.4l0.2,0.4l0.1,0.2l0.1,0.2l0.3,0.4
														c0.1,0.1,0.2,0.3,0.3,0.4c0.8,1,1.8,1.7,3.1,2.1c1.2,0.4,2.4,0.4,3.7,0.3s2.4-0.6,3.5-1.2c2.2-1.2,4-3,5.4-5
														c1.3-2.1,2.2-4.5,2.4-6.9c0.1-1.3,0-2.5-0.4-3.7c-0.4-1.2-1-2.2-1.9-3.1c-0.9-0.9-2.1-1.4-3.2-1.7
														c-1.2-0.3-2.5-0.2-3.7,0.1C302,29.9,299.8,31.3,298.1,33z"/>
												</g>
											</g>
											<g>
												<g>
													
														<ellipse transform="matrix(0.5746 -0.8184 0.8184 0.5746 59.8766 277.7753)" class="st0" cx="297.2" cy="81.3" rx="9.2" ry="6.2"/>
												</g>
												<g>
													<path class="st0" d="M305.5,73.6c0.5,0.4,1.1,1,1.4,1.6c0.4,0.6,0.6,1.3,0.8,2.1c0.2,0.7,0.3,1.4,0.3,2.2
														c0,0.7,0,1.5-0.2,2.2c-0.1,0.4-0.1,0.7-0.2,1.1c0,0.2-0.1,0.4-0.2,0.5c-0.1,0.2-0.1,0.4-0.2,0.5l-0.2,0.5
														c-0.1,0.2-0.2,0.4-0.2,0.5c-0.1,0.2-0.2,0.4-0.3,0.5l-0.3,0.5c-0.1,0.2-0.2,0.4-0.3,0.5l-0.3,0.4
														c-0.2,0.4-0.4,0.6-0.6,1c-0.4,0.6-0.9,1.2-1.4,1.7c-0.5,0.5-1.1,1.1-1.7,1.5c-0.6,0.4-1.3,0.9-2,1.3
														c-0.7,0.4-1.4,0.7-2.2,0.9c-0.2,0.1-0.4,0.1-0.5,0.2c-0.2,0.1-0.4,0.1-0.6,0.1c-0.4,0.1-0.8,0.1-1.2,0.2
														c-0.2,0-0.4,0-0.6,0s-0.4,0-0.6,0c-0.4,0-0.8-0.1-1.3-0.2c-0.8-0.2-1.6-0.5-2.2-1s-1.3-1.1-1.6-1.7
														c-0.4-0.6-0.6-1.3-0.7-2.1c0.3,0.6,0.7,1.2,1.2,1.6c0.4,0.4,1.1,0.8,1.6,1.1c1.3,0.5,2.6,0.6,3.9,0.4
														c1.3-0.3,2.5-0.7,3.7-1.4c1.2-0.7,2.2-1.5,3.1-2.5c0.4-0.4,0.9-1,1.3-1.5c0.2-0.3,0.4-0.5,0.5-0.8l0.3-0.4
														c0.1-0.2,0.2-0.3,0.3-0.4c0.6-1.2,1.2-2.3,1.5-3.6c0.1-0.3,0.2-0.6,0.3-1c0.1-0.4,0.1-0.6,0.2-1c0.1-0.6,0.1-1.3,0.1-2
														c0-0.6-0.1-1.3-0.3-2C306.1,74.8,305.8,74.1,305.5,73.6z"/>
												</g>
											</g>
											<g>
												<g>
													
														<ellipse transform="matrix(0.5746 -0.8184 0.8184 0.5746 37.0455 244.086)" class="st0" cx="253.3" cy="86.4" rx="9.2" ry="6.2"/>
												</g>
												<g>
													<path class="st0" d="M261.7,78.7c0.5,0.4,1.1,1,1.4,1.6c0.4,0.6,0.6,1.3,0.8,2.1s0.3,1.4,0.3,2.2c0,0.7,0,1.5-0.2,2.2
														c-0.1,0.4-0.1,0.7-0.2,1.1c0,0.2-0.1,0.4-0.2,0.5c-0.1,0.2-0.1,0.4-0.2,0.5l-0.2,0.5c-0.1,0.2-0.2,0.4-0.2,0.5
														c-0.1,0.2-0.2,0.4-0.3,0.5l-0.3,0.5c-0.1,0.2-0.2,0.4-0.3,0.5l-0.3,0.4c-0.2,0.4-0.4,0.6-0.6,1
														c-0.4,0.6-0.9,1.2-1.4,1.7c-0.5,0.5-1.1,1.1-1.7,1.5c-0.6,0.4-1.3,0.9-2,1.3c-0.7,0.4-1.4,0.7-2.2,0.9
														c-0.2,0.1-0.4,0.1-0.5,0.2s-0.4,0.1-0.6,0.1c-0.4,0.1-0.8,0.1-1.2,0.2c-0.2,0-0.4,0-0.6,0c-0.2,0-0.4,0-0.6,0
														c-0.4,0-0.8-0.1-1.3-0.2c-0.8-0.2-1.6-0.5-2.2-1c-0.6-0.4-1.3-1.1-1.6-1.7c-0.4-0.6-0.6-1.3-0.7-2.1
														c0.3,0.6,0.7,1.2,1.2,1.6c0.4,0.4,1.1,0.8,1.6,1.1c1.3,0.5,2.6,0.6,3.9,0.4c1.3-0.3,2.5-0.7,3.7-1.4
														c1.2-0.7,2.2-1.5,3.1-2.5c0.4-0.4,0.9-1,1.3-1.5c0.2-0.3,0.4-0.5,0.5-0.8l0.3-0.4c0.1-0.2,0.2-0.3,0.3-0.4
														c0.6-1.2,1.2-2.3,1.5-3.6c0.1-0.3,0.2-0.6,0.3-1s0.1-0.6,0.2-1c0.1-0.6,0.1-1.3,0.1-2c0-0.6-0.1-1.3-0.3-2
														C262.3,79.9,262,79.2,261.7,78.7z"/>
												</g>
											</g>
											<g>
												<g>
													
														<ellipse transform="matrix(0.5746 -0.8184 0.8184 0.5746 65.1942 254.8563)" class="st0" cx="277.8" cy="64.7" rx="9.2" ry="6.2"/>
												</g>
												<g>
													<path class="st0" d="M281.1,53.4c0.4-0.1,0.8-0.2,1.2-0.2c0.4,0,0.8,0,1.3,0c0.8,0.1,1.6,0.4,2.4,0.8
														c0.7,0.4,1.4,1,2.1,1.7c0.2,0.2,0.3,0.4,0.4,0.5c0.1,0.2,0.3,0.4,0.4,0.5c0.1,0.2,0.3,0.4,0.4,0.6
														c0.1,0.2,0.2,0.4,0.3,0.6c0.2,0.4,0.3,0.8,0.4,1.3c0.1,0.2,0.1,0.4,0.2,0.6c0,0.2,0.1,0.4,0.1,0.6
														c0.1,0.9,0.2,1.8,0.1,2.6c-0.1,0.9-0.2,1.7-0.4,2.5c-0.2,0.8-0.5,1.6-0.9,2.4c-0.4,0.8-0.8,1.5-1.3,2.2
														c-0.1,0.2-0.3,0.4-0.4,0.5c-0.1,0.2-0.3,0.4-0.4,0.5l-0.4,0.4c-0.1,0.1-0.1,0.2-0.2,0.3l-0.2,0.3
														c-0.3,0.3-0.5,0.6-0.9,0.9c-0.2,0.2-0.3,0.3-0.4,0.4s-0.4,0.3-0.5,0.4l-0.5,0.4c-0.2,0.1-0.4,0.3-0.5,0.4
														c-0.2,0.1-0.4,0.3-0.5,0.4l-0.5,0.3c-0.7,0.4-1.5,0.7-2.3,1c-0.8,0.2-1.6,0.4-2.5,0.4c-0.4,0-0.8,0-1.3,0
														c-0.2,0-0.4-0.1-0.6-0.1s-0.4-0.1-0.6-0.1l-0.6-0.2c-0.2-0.1-0.4-0.2-0.5-0.2l-0.3-0.1c-0.1,0-0.2-0.1-0.3-0.2
														c-0.2-0.1-0.4-0.2-0.5-0.4c1.4,0.4,3,0.4,4.4,0c0.7-0.2,1.4-0.4,2.1-0.7c0.4-0.2,0.6-0.4,1-0.5
														c0.3-0.2,0.6-0.4,0.9-0.5c1.3-0.8,2.3-1.8,3.2-3s1.7-2.4,2.3-3.8s1-2.8,1.2-4.2c0.2-1.4,0.1-3-0.4-4.4
														c-0.2-0.7-0.5-1.3-0.9-2s-0.9-1.2-1.4-1.6c-0.5-0.4-1.2-0.8-1.9-1.1C282.6,53.6,281.9,53.5,281.1,53.4z"/>
												</g>
											</g>
											<g>
												<path class="st0" d="M246.8,100.1l-10.9,0.8c-0.5,0-0.9-0.3-1.1-0.4c-0.2-0.2-0.4-0.6-0.3-1.2l3.1-14
													c-0.2,0.9-1.9,12-1,13.5S246.2,100.2,246.8,100.1z"/>
											</g>
											<g>
												<path class="st0" d="M269.3,31.1c-0.5,0.1-17.1,4.3-18.9,7.8c-1.9,3.5-7.5,21.7-7.5,21.7l4.8-22.1
													c0-0.2,0.1-0.4,0.2-0.5c0.7-2.2,2.5-3.8,4.8-4.1L269.3,31.1z"/>
											</g>
											<g>
												<polygon class="st0" points="279,35.1 270.1,42.3 270.5,45 												"/>
											</g>
											<g>
												<path class="st0" d="M255.6,57.8c0,0-4.2,3.6-5.7,4.8c-1.5,1.3,0.1,2.7,1,2.4l-7.2,6.8l-2.5,11.5c0,0,19-18,20.7-19.6
													s0.2-3.2-0.4-3.2l4.7-4.8l-6.6,2.4L255.6,57.8z"/>
											</g>
											<g>
												<path class="st0" d="M289.4,61.1l9.9-9.8c0,0-4.4-1.4-5-4.4l-7.9,7.9C286.4,54.8,288.9,57.4,289.4,61.1z"/>
											</g>
											<g>
												<path class="st0" d="M316.9,64.3c-1.3,9.4-2.5,18.9-3.9,28.4c0,0.2-0.1,0.4-0.1,0.5c-0.4,1.3-1.5,2.2-2.9,2.2l-31.5,2.3
													l15.9-2.8l-8.5-0.5l9.3-1.8c0,0,6.2-0.8,8.5-4.2c2.3-3.4,3.8-9.4,3.8-9.4s0.8,0.8,0.3,3.7c-0.5,2.9-2.2,7.2-2.2,7.2
													s4.8-3.4,4.3-12.3c1-1.8,2.1-3.6,3.1-5.5C314.3,69.5,315.5,66.9,316.9,64.3z"/>
											</g>
											<g>
												<path class="st0" d="M322.1,22.9c0.2,0.2,0.4,0.4,0.3,0.9l-4,30.2l-0.2-6.6l-11,12.8l-0.8-2.7L291.7,71l18-20.6l0.7,2.1
													c0,0,5.4-5.7,4.7-13.6c0,0,0.4-7-4-9.5c-4.5-2.4-15.9,1-16.3,1.1l5.5-2.7l-15.4,0.8l36.5-6
													C321.6,22.5,321.9,22.7,322.1,22.9z"/>
											</g>
											<g>
												<polygon class="st0" points="260.4,99.1 267.5,96.8 285.5,78.8 270.1,97.2 274.5,98.1 												"/>
											</g>
										</g>
										<g>
											<g>
												<path class="st0" d="M344.3,61.3c1,0.6,1.8,1.4,2.4,2.3c0.7,0.9,1.3,1.9,1.8,2.9c1,2.1,1.5,4.3,1.8,6.6
													c0.3,2.2,0.2,4.6-0.4,6.7c-0.3,1.1-0.6,2.2-1.2,3.2c-0.3,0.5-0.5,1-1,1.4c-0.2,0.2-0.4,0.4-0.6,0.6
													c-0.2,0.2-0.4,0.4-0.7,0.4c0.8-0.7,1.3-1.8,1.6-2.8s0.6-2.1,0.7-3.1c0.3-2.2,0.3-4.3,0.1-6.5c-0.3-2.2-0.7-4.3-1.4-6.3
													C346.7,64.8,345.7,62.9,344.3,61.3z"/>
											</g>
										</g>
										<g>
											<path class="st0" d="M349.9,98.5c0.3,0.2,0.6,0.4,0.9,0.5c0.2,0.1,0.3,0.2,0.4,0.4c0.1,0.1,0.3,0.2,0.4,0.4
												c0.1,0.1,0.3,0.3,0.4,0.4s0.3,0.3,0.4,0.4c0.3,0.3,0.4,0.5,0.7,0.8c0.8,1.2,1.5,2.4,2.1,3.7c1.2,2.6,1.8,5.4,2,8.2
												c0,0.7,0.1,1.4,0.1,2.2s-0.1,1.4-0.2,2.2c-0.2,1.4-0.4,2.9-1.1,4.2c-0.3,0.7-0.6,1.3-1.1,2c-0.3,0.3-0.4,0.6-0.8,0.9
												c-0.3,0.3-0.6,0.5-1,0.7c-0.7,0.4-1.6,0.5-2.3,0.4c-0.4-0.1-0.7-0.3-1-0.4c-0.3-0.2-0.5-0.4-0.8-0.7
												c0.5,0.4,1.2,0.6,1.9,0.7c0.2,0,0.4,0,0.5,0s0.4-0.1,0.5-0.1c0.4-0.1,0.6-0.3,0.9-0.4c0.5-0.4,1-0.9,1.3-1.5
												c0.4-0.5,0.6-1.2,0.8-1.9c0.4-1.3,0.6-2.6,0.8-4c0.1-1.3,0.1-2.7,0-4c-0.2-2.7-0.7-5.4-1.6-7.9c-0.4-1.3-1-2.5-1.6-3.7
												C351.8,100.4,351,99.3,349.9,98.5z"/>
										</g>
										<g>
											<path class="st0" d="M357.8,123.3l-1.4,23.4c0,0.1,0,0.1,0,0.2c-0.1,0.2-0.4,0.2-0.4,0.2c-0.2,0-0.3-0.1-0.4-0.2
												l-12.2-21l11.3,15.5L357.8,123.3z"/>
										</g>
										<g>
											<path class="st0" d="M330.4,89.3c0.5,3.4,1.3,8.8,1.5,10.9c0.4,3.1,7.9,19.2,8,19.5l-8.6-14.8c-1.5-2.6-2.2-5.7-1.8-8.6
												L330.4,89.3z"/>
										</g>
										<g>
											<path class="st0" d="M338.2,42c2.2,4.5,4.9,9.7,7.6,15.1l-7.3-9.6l-4.8,19.1l3.1-24.2C336.8,41.5,337.8,41.4,338.2,42z"
												/>
										</g>
										<g>
											<path class="st0" d="M349.6,156.8c-2-2.4-3.8-4.9-5.5-7.5c-1.7-2.6-3.3-5.2-4.9-7.8c-1.5-2.7-3.1-5.4-4.5-8.1
												c-1.4-2.8-2.8-5.6-4-8.4c2,2.4,3.8,4.9,5.5,7.5c1.7,2.6,3.3,5.2,4.9,7.8c1.5,2.7,3.1,5.4,4.5,8.1
												S348.4,153.9,349.6,156.8z"/>
											<path class="st0" d="M351,156c-2-2.4-3.8-4.9-5.5-7.5s-3.3-5.2-4.9-7.8c-1.5-2.7-3.1-5.4-4.5-8.1c-1.4-2.8-2.8-5.6-4-8.4
												c2,2.4,3.8,4.9,5.5,7.5c1.7,2.6,3.3,5.2,4.9,7.8c1.5,2.7,3.1,5.4,4.5,8.1C348.5,150.4,349.8,153.1,351,156z"/>
											<path class="st0" d="M352.4,155.3c-2-2.4-3.8-4.9-5.5-7.5c-1.7-2.6-3.3-5.2-4.9-7.8c-1.5-2.7-3.1-5.4-4.5-8.1
												c-1.4-2.8-2.8-5.6-4-8.4c2,2.4,3.8,4.9,5.5,7.5c1.7,2.6,3.3,5.2,4.9,7.8c1.5,2.7,3.1,5.4,4.5,8.1
												C349.9,149.6,351.3,152.4,352.4,155.3z"/>
										</g>
										<g>
											<path class="st0" d="M272.4,112.6c-10.1,1.5-20.1,3-30.2,4.5c-0.4,0.1-0.7,0.5-0.4,1c3.4,5.4,6.7,10.8,10.1,16.2
												c0.2,0.2,0.3,0.4,0.4,0.6c-4.5-5.7-9.1-11.5-13.6-17.2c-0.4-0.5-0.4-1.1-0.3-1.4c0.1-0.3,0.4-1,1.3-1.1
												C250.7,114.3,261.6,113.5,272.4,112.6z"/>
										</g>
										<g>
											<path class="st0" d="M317.7,114l27.7,46.2c0.3,0.6,0.3,1,0.3,1.2c-0.1,0.2-0.4,0.4-1.1,0.4c-11.9,0.3-23.9,0.5-35.8,0.8
												c4.8-0.7,9.4-1.4,14.2-2.2c-2.9-0.4-5.7-1-8.5-1.4c4.5-0.3,8.9-0.5,13.4-0.8c0,0,11-0.6,10.2-5c-0.8-4.4-4.3-9.2-4.3-9.2
												l-5.3-4l0.5-3.5c-5.5-10-9.1-15.8-11.6-19.2c-0.9-1.2-2.2-3.4-5-4.7c-1-0.4-2.2-0.6-4.4-0.9c-2.6-0.4-4.2-0.4-10.4-0.7
												c-1-0.1-1.8-0.1-2.2-0.1c4.6-0.4,9.2-0.7,13.7-1.1C312.5,109.3,315.8,111,317.7,114z"/>
										</g>
										<g>
											<path class="st0" d="M293.9,162.8l-8.6,0.2c-4.8,0.1-8.8-0.4-12.1-2.4c-1.3-0.7-2.3-1.7-4.6-4.2
												c-2.4-2.7-5.7-6.6-9.2-11.9c4,4.2,7.8,7.2,10.6,9.2c5,3.6,10,7.4,17.2,8.5C289.2,162.5,291.5,162.7,293.9,162.8z"/>
										</g>
										<g>
											<polygon class="st0" points="301.1,110.9 298.5,121.8 299.4,110.7 											"/>
										</g>
										<g>
											<path class="st0" d="M272.1,130.5c-0.3,0.8-0.9,1.5-1.8,2c-2.2,1.1-6,0.8-9.8-0.7c-5.7-2.2-9.2-6-8.4-8.9l0,0
												c0.3-0.8,0.9-1.5,1.8-2c2.2-1.1,6-0.8,9.8,0.7l0,0C269.4,123.8,273,127.6,272.1,130.5L272.1,130.5z M253.8,123.4
												L253.8,123.4c-0.5,1.6,2.3,4.8,7.3,6.7c3.9,1.5,7,1.4,8.4,0.8c0.4-0.3,0.8-0.5,0.9-0.9l0,0c0.5-1.6-2.3-4.8-7.3-6.7l0,0
												c-3.9-1.5-7-1.4-8.4-0.8C254.2,122.7,253.9,123,253.8,123.4z"/>
										</g>
										<g>
											<path class="st0" d="M254.9,118.1c0.5-0.2,1.1-0.4,1.6-0.4c0.5-0.1,1.1-0.2,1.6-0.3c0.5-0.1,1.2-0.1,1.7,0
												c0.5,0,1.2,0.1,1.7,0.1c2.2,0.3,4.4,0.9,6.6,1.9c1.1,0.4,2.1,1.1,3.1,1.7c1,0.6,1.9,1.4,2.7,2.3c0.2,0.3,0.4,0.4,0.6,0.7
												l0.3,0.4c0.1,0.1,0.2,0.3,0.3,0.4c0.4,0.5,0.6,1.2,0.9,1.8c0.5,1.3,0.7,2.8,0.4,4.2c-0.3,1.4-1,2.9-2.1,3.9
												c-0.5,0.5-1.1,0.9-1.7,1.3c-0.3,0.2-0.6,0.3-0.9,0.4c-0.4,0.2-0.6,0.2-1,0.4c-1.3,0.4-2.5,0.4-3.8,0.4
												c-0.6,0-1.2-0.1-1.8-0.2c-0.3-0.1-0.5-0.1-0.9-0.2c-0.3-0.1-0.5-0.1-0.8-0.2c-0.3-0.1-0.5-0.2-0.8-0.3
												c-0.3-0.1-0.5-0.2-0.8-0.3c-0.5-0.2-1.1-0.4-1.6-0.6c-0.3-0.1-0.5-0.3-0.8-0.4c-0.3-0.1-0.5-0.3-0.7-0.4
												c-0.5-0.3-1-0.5-1.4-0.9c-0.4-0.3-0.9-0.6-1.3-1s-0.9-0.7-1.3-1.1c-0.4-0.4-0.8-0.8-1.2-1.2c-0.4-0.4-0.7-0.8-1-1.3
												c1.5,1.5,3.3,2.7,5.3,3.7c1,0.4,2,0.9,3,1.3c1,0.4,2.1,0.6,3.1,0.8s2.2,0.3,3.2,0.3s2.2-0.1,3.1-0.4
												c0.3-0.1,0.5-0.2,0.7-0.3c0.3-0.1,0.4-0.2,0.7-0.4c0.4-0.3,0.9-0.6,1.3-1c0.8-0.7,1.3-1.7,1.5-2.8
												c0.2-1.1,0.1-2.2-0.4-3.1c-0.4-1-1-1.9-1.7-2.7c-0.7-0.8-1.5-1.5-2.3-2.2c-0.9-0.6-1.8-1.3-2.7-1.7c-1.9-1-4-1.8-6-2.3
												C259.2,117.9,257.1,117.8,254.9,118.1z"/>
										</g>
										<g>
											
												<ellipse transform="matrix(0.3798 -0.9251 0.9251 0.3798 55.8245 356.762)" class="st0" cx="294" cy="136.7" rx="4.4" ry="9.8"/>
										</g>
										<g>
											<path class="st0" d="M304,140.7c-0.3,0.8-0.9,1.5-1.8,2c-2.2,1.1-6,0.8-9.8-0.7c-5.7-2.2-9.2-6-8.4-8.9l0,0
												c0.3-0.8,0.9-1.5,1.8-2c2.2-1.1,6-0.8,9.8,0.7l0,0C301.3,133.9,304.9,137.8,304,140.7L304,140.7z M285.7,133.6
												L285.7,133.6c-0.5,1.6,2.3,4.8,7.3,6.7c3.9,1.5,7,1.4,8.4,0.8c0.4-0.3,0.8-0.5,0.9-0.9l0,0c0.5-1.6-2.3-4.8-7.3-6.7l0,0
												c-3.9-1.5-7-1.4-8.4-0.8C286.2,132.8,285.8,133.2,285.7,133.6z"/>
										</g>
										<g>
											<path class="st0" d="M286.9,128.3c0.5-0.2,1.1-0.4,1.6-0.4c0.5-0.1,1.1-0.2,1.6-0.3c0.5-0.1,1.2-0.1,1.7,0
												c0.5,0,1.2,0.1,1.7,0.1c2.2,0.3,4.4,0.9,6.6,1.9c1.1,0.4,2.1,1.1,3.1,1.7c1,0.6,1.9,1.4,2.7,2.3c0.2,0.3,0.4,0.4,0.6,0.7
												l0.3,0.4c0.1,0.1,0.2,0.3,0.3,0.4c0.4,0.5,0.6,1.2,0.9,1.8c0.5,1.3,0.7,2.8,0.4,4.2c-0.3,1.4-1,2.9-2.1,3.9
												c-0.5,0.5-1.1,0.9-1.7,1.3c-0.3,0.2-0.6,0.3-0.9,0.4c-0.4,0.2-0.6,0.2-1,0.4c-1.3,0.4-2.5,0.4-3.8,0.4
												c-0.6,0-1.2-0.1-1.8-0.2c-0.3-0.1-0.5-0.1-0.9-0.2c-0.3-0.1-0.5-0.1-0.8-0.2s-0.5-0.2-0.8-0.3s-0.5-0.2-0.8-0.3
												c-0.5-0.2-1.1-0.4-1.6-0.6c-0.3-0.1-0.5-0.3-0.8-0.4c-0.3-0.1-0.5-0.3-0.7-0.4c-0.5-0.3-1-0.5-1.4-0.9
												c-0.4-0.3-0.9-0.6-1.3-1c-0.4-0.4-0.9-0.7-1.3-1.1c-0.4-0.4-0.8-0.8-1.2-1.2c-0.4-0.4-0.7-0.8-1-1.3
												c1.5,1.5,3.3,2.7,5.3,3.7c1,0.4,2,0.9,3,1.3c1,0.4,2.1,0.6,3.1,0.8s2.2,0.3,3.2,0.3c1.1,0,2.2-0.1,3.1-0.4
												c0.3-0.1,0.5-0.2,0.7-0.3c0.3-0.1,0.4-0.2,0.7-0.4c0.4-0.3,0.9-0.6,1.3-1c0.8-0.7,1.3-1.7,1.5-2.8
												c0.2-1.1,0.1-2.2-0.4-3.1c-0.4-1-1-1.9-1.7-2.7c-0.7-0.8-1.5-1.5-2.3-2.2c-0.9-0.6-1.8-1.3-2.7-1.7c-1.9-1-4-1.8-6-2.3
												C291.2,128.2,289,127.9,286.9,128.3z"/>
										</g>
										<g>
											
												<ellipse transform="matrix(0.3798 -0.9251 0.9251 0.3798 63.4234 391.9335)" class="st0" cx="324" cy="148.7" rx="4.4" ry="9.8"/>
										</g>
										<g>
											<path class="st0" d="M333.9,152.5c-0.3,0.8-0.9,1.5-1.8,2c-2.2,1.1-6,0.8-9.8-0.7c-5.7-2.2-9.2-6-8.4-8.9l0,0
												c0.3-0.8,0.9-1.5,1.8-2c2.2-1.1,6-0.8,9.8,0.7l0,0C331.3,145.8,334.9,149.6,333.9,152.5L333.9,152.5z M315.7,145.3
												L315.7,145.3c-0.5,1.6,2.3,4.8,7.3,6.7c3.9,1.5,7,1.4,8.4,0.8c0.4-0.3,0.8-0.5,0.9-0.9l0,0c0.5-1.6-2.3-4.8-7.3-6.7l0,0
												c-3.9-1.5-7-1.4-8.4-0.8C316.2,144.7,315.8,145,315.7,145.3z"/>
										</g>
										<g>
											<path class="st0" d="M316.9,140.1c0.5-0.2,1.1-0.4,1.6-0.4c0.5-0.1,1.1-0.2,1.6-0.3c0.5-0.1,1.2-0.1,1.7,0
												c0.5,0,1.2,0.1,1.7,0.1c2.2,0.3,4.4,0.9,6.6,1.9c1.1,0.4,2.1,1.1,3.1,1.7s1.9,1.4,2.7,2.3c0.2,0.3,0.4,0.4,0.6,0.7
												l0.3,0.4c0.1,0.1,0.2,0.3,0.3,0.4c0.4,0.5,0.6,1.2,0.9,1.8c0.5,1.3,0.7,2.8,0.4,4.2c-0.3,1.4-1,2.9-2.1,3.9
												c-0.5,0.5-1.1,0.9-1.7,1.3c-0.3,0.2-0.6,0.3-0.9,0.4c-0.4,0.2-0.6,0.2-1,0.4c-1.3,0.4-2.5,0.4-3.8,0.4
												c-0.6,0-1.2-0.1-1.8-0.2c-0.3-0.1-0.5-0.1-0.9-0.2c-0.3-0.1-0.5-0.1-0.8-0.2c-0.3-0.1-0.5-0.2-0.8-0.3s-0.5-0.2-0.8-0.3
												c-0.5-0.2-1.1-0.4-1.6-0.6c-0.3-0.1-0.5-0.3-0.8-0.4c-0.3-0.1-0.5-0.3-0.7-0.4c-0.5-0.3-1-0.5-1.4-0.9
												c-0.4-0.3-0.9-0.6-1.3-1c-0.4-0.4-0.9-0.7-1.3-1.1c-0.4-0.4-0.8-0.8-1.2-1.2c-0.4-0.4-0.7-0.8-1-1.3
												c1.5,1.5,3.3,2.7,5.3,3.7c1,0.4,2,0.9,3,1.3c1,0.4,2.1,0.6,3.1,0.8s2.2,0.3,3.2,0.3c1.1,0,2.2-0.1,3.1-0.4
												c0.3-0.1,0.5-0.2,0.7-0.3c0.3-0.1,0.4-0.2,0.7-0.4c0.4-0.3,0.9-0.6,1.3-1c0.8-0.7,1.3-1.7,1.5-2.8
												c0.2-1.1,0.1-2.2-0.4-3.1c-0.4-1-1-1.9-1.7-2.7c-0.7-0.8-1.5-1.5-2.3-2.2c-0.9-0.6-1.8-1.3-2.7-1.7c-1.9-1-4-1.8-6-2.3
												C321.2,139.9,318.9,139.7,316.9,140.1z"/>
										</g>
										<g>
											<polygon class="st0" points="279.1,161.4 281.7,140.4 281.8,161.6 											"/>
										</g>
										<g>
											<path class="st0" d="M277.3,160.5l3.2-28.6c0.2-1.4-1.3-2.4-2.6-1.8l-2.4,0.5c0,0-0.6,4.7-3.6,5.2
												c-3,0.5-2.4,5.7-1.6,5.9c1.4,0.2,4.2-3.5,4.2-3.5s-0.4,1.5-2,4l-1.7,14.2L277.3,160.5z"/>
										</g>
										<g>
											<path class="st0" d="M271.5,121.6l1.2-6.3l5.7-0.6l-2.4,16.6C275.3,127.9,273.8,124.7,271.5,121.6z"/>
										</g>
										<g>
											<path class="st0" d="M303.1,110.9l-4.3,18.6c0,0,4.9,1.6,7.3,5.4c2.3,3.8,1.1,3.9,1.1,3.9s3.1,0.4-2.2-8.3
												c0,0,2.1,1.4,3.7,3.4l5.2-22.5L303.1,110.9z"/>
										</g>
										<g>
											<polygon class="st0" points="316.3,114.3 312.3,133.3 319.2,127.7 320.7,119.8 											"/>
										</g>
										<g>
											<polygon class="st0" points="304.9,145.5 300.9,160.6 296.2,160.9 299.9,146.8 											"/>
										</g>
										<g class="st1">
											<g class="st2">
												<path class="st3" d="M320.1,98.3c0.2-4.6,0.6-9.1,1.1-13.6c0.4-4.5,1-9.1,1.5-13.6c0.5-4.5,1.3-9,2-13.6
													c0.7-4.5,1.5-9,2.4-13.5c-0.2,4.6-0.6,9.1-1.1,13.6c-0.4,4.5-1,9.1-1.5,13.6c-0.6,4.5-1.3,9-2,13.6
													C321.8,89.3,321,93.8,320.1,98.3z"/>
											</g>
											<g class="st2">
												<path class="st3" d="M327.4,40.5c-0.1-1.3-0.1-2.7,0-4c0.1-1.3,0.2-2.7,0.4-4c0.2-1.3,0.4-2.6,0.6-4
													c0.3-1.3,0.5-2.6,1-4c0.1,1.3,0.1,2.7,0,4c-0.1,1.3-0.2,2.7-0.4,4c-0.2,1.3-0.4,2.6-0.6,4
													C328.1,37.9,327.8,39.2,327.4,40.5z"/>
											</g>
											<g class="st2">
												<path class="st3" d="M239.1,107.9c5.5-0.8,11-1.3,16.6-1.9c5.6-0.5,11-1,16.6-1.4c5.6-0.4,11-0.7,16.6-1
													c5.6-0.3,11.1-0.4,16.7-0.5c-5.5,0.8-11,1.3-16.6,1.9c-5.6,0.5-11,1-16.6,1.4c-5.6,0.4-11,0.7-16.6,1
													C250.3,107.7,244.7,107.9,239.1,107.9z"/>
											</g>
										</g>
										<g class="st1">
											<polygon class="st4" points="262.3,146.8 262.9,136 265.1,136.7 264.2,149.6 											"/>
										</g>
									</g>
									<path class="st0" d="M345,104.5c-0.4,2.2-0.3,4.9,0.2,7.8c0.9,5.4,3.2,11,5.7,10.5c0.9-0.2,1.6-1,2-2.3
										c0.7-2.3,0.7-6,0.2-9.4c-0.4-2.9-1.3-5.6-2.2-7.5c-1.1-2.2-2.3-3.2-3.5-3C346.2,100.7,345.3,102.1,345,104.5z M347.6,101.6
										c-0.1,0-0.1,0-0.2,0.1C347.4,101.7,347.5,101.7,347.6,101.6L347.6,101.6z"/>
									<path class="st0" d="M338.8,62.5c-1.3,1.8-1.7,6-0.8,10.9c0.9,5.5,3.4,11.1,6.1,10.9c0.5-0.1,1.1-0.4,1.4-0.9
										c0.3-0.4,0.5-0.9,0.7-1.5c0.7-2.2,0.7-5.6,0.1-9.3c-0.9-5.5-3.4-11.1-6.1-10.9C339.7,61.6,339.2,61.9,338.8,62.5z"/>
								</g>
							</g>
						</g>
					</g>
				</g>
			</g>
		</g>
	</g>
	<polygon class="st0" points="57.9,34 86.5,34 78.5,72.3 98.2,85.4 90.4,122.6 45.8,91.5 	"/>
	<polygon class="st0" points="150.6,34 179.1,34 171.2,72.3 190.9,85.4 183.1,122.6 138.6,91.5 	"/>
</g>
<g>
	<g>
		<g>
			<defs>
				<path id="SVGID_00000149346485635445067630000016998378786776087963_" d="M269.3-105.5c-1,3.1-2.8,6-5.2,8.3
					c-3.6,3.5-8.4,5.5-13.4,5.6L182-90.1c-8.7,0.2-16.8-3.6-22.2-10.3L125-143.2c-4.5-5.6-6.3-12.8-4.8-19.8l15.2-72.2
					c1.1-5.1,5.1-8.9,10.2-9.8l75.4-13.1c4.2-0.7,8.4-0.1,12.2,1.8c3.8,1.9,6.8,4.9,8.7,8.7l29.2,57.5c2.4,4.6,3.4,9.8,3.1,15
					l-3.9,64.8C270.1-108.7,269.8-107,269.3-105.5z"/>
			</defs>
			<clipPath id="SVGID_00000099632941855799398350000015590681189136762756_">
				<use xlink:href="#SVGID_00000149346485635445067630000016998378786776087963_"  style="overflow:visible;"/>
			</clipPath>
			<g style="clip-path:url(#SVGID_00000099632941855799398350000015590681189136762756_);">
				<path class="st6" d="M284.5-59.2c-53.6,3.4-107.2,6.7-160.8,10.1l99.1-112.3C243.3-127.4,263.9-93.3,284.5-59.2z"/>
				<polygon class="st7" points="117.3,-154.9 123.9,-49.1 223,-161.5 				"/>
				<path class="st8" d="M235.3-268.8c-4.2,35.7-8.3,71.4-12.5,107l-112.4-99.1C152-263.5,193.6-266.2,235.3-268.8z"/>
				<path class="st9" d="M235.3-268.8c-4.3,35.6-8.6,71.3-12.9,106.9c41.2-25.3,82.4-50.5,123.6-75.8
					C309.1-248.1,272.2-258.5,235.3-268.8z"/>
				<path class="st10" d="M286.2-57.8c11.2-55.6,22.5-111.1,33.7-166.7c-32.5,20.9-65,41.7-97.5,62.6
					C243.7-127.2,265-92.5,286.2-57.8z"/>
				<polygon class="st11" points="117,-155.4 222.7,-162.1 110.4,-261.1 				"/>
			</g>
		</g>
	</g>
	<g>
		<g>
			<g>
				<g>
					<path class="st0" d="M-7-241.2h31.9L-5.8-96.6l-25.9-28.6L-7-241.2z"/>
					<path class="st0" d="M96.1-241.2H128L97.3-96.6l-25.9-28.6L96.1-241.2z"/>
				</g>
			</g>
			<g>
				<g>
					<g>
						<g>
							<g>
								<g>
									<g>
										<g>
											
												<ellipse transform="matrix(0.3798 -0.9251 0.9251 0.3798 223.7966 61.2456)" class="st0" cx="157.6" cy="-136.3" rx="4.9" ry="10.9"/>
										</g>
										<g>
											<path class="st0" d="M269.3-105.5c-1,3.1-2.8,6-5.2,8.3c-3.6,3.5-8.4,5.5-13.4,5.6L182-90.1c-8.7,0.2-16.8-3.6-22.2-10.3
												L125-143.2c-4.5-5.6-6.3-12.8-4.8-19.8l15.2-72.2c1.1-5.1,5.1-8.9,10.2-9.8l75.4-13.1c4.2-0.7,8.4-0.1,12.2,1.8
												c3.8,1.9,6.8,4.9,8.7,8.7l29.2,57.5c2.4,4.6,3.4,9.8,3.1,15l-3.9,64.8C270.1-108.7,269.8-107,269.3-105.5z M121.6-162.6
												l1.5,0.3c-1.3,6.1,0.2,12.4,4.2,17.3l34.8,42.8c4.9,6,12.1,9.3,19.8,9.2l68.7-1.5c8.8-0.2,16.1-7.2,16.6-16l3.9-64.8
												c0.3-4.7-0.7-9.3-2.8-13.5l-29.2-57.5c-3.3-6.6-10.5-10.1-17.7-8.9L146-242c-3.9,0.7-7,3.6-7.8,7.5L123-162.3
												L121.6-162.6z"/>
										</g>
										<g>
											<path class="st0" d="M256.1-95.7c-0.1,0.4-0.3,0.7-0.5,1c-1.1,1.9-3.3,2.6-5,2.7l-67.3,1.5c-8,0.1-16.3-1-22.7-9.4
												l-33.7-43.9c-1.4-1.9-1.7-4.3-0.8-6.4c1-2.2,2.9-3.6,5.3-3.7l78.3-6.3c5.7-0.5,11.1,2.3,14.1,7.3l31.6,52.5l0,0
												C256.5-98.4,256.5-96.9,256.1-95.7z M127.9-149c-0.4,1.3-0.2,2.8,0.7,3.9l33.7,43.9c5.5,7.2,12.4,8.7,21,8.6l67.2-1.5
												c1.1,0,2.6-0.5,3.3-1.7c0.6-1,0.5-2.3-0.2-3.8L222.2-152c-2.6-4.3-7.3-6.7-12.2-6.3l-78.3,6.3c-1.6,0.1-3,1.1-3.6,2.6
												C128-149.3,128-149.2,127.9-149z"/>
										</g>
										<g>
											<path class="st0" d="M269.1-106.4c-0.6,1.9-2.1,3.3-4.1,3.7c-2.5,0.6-4.9-0.4-6.2-2.7l-30.2-51.5
												c-2.3-3.9-3.2-8.4-2.6-12.9l9.5-76.4c0.2-1.2,1.3-2.3,2.7-2.5c1.4-0.3,2.6,0.3,3.2,1.3c7.4,14.2,28,55.2,29.9,58.9
												c2,4,2.3,9.3,2.4,9.5v0.1l-4.3,70.9C269.3-107.3,269.2-106.8,269.1-106.4z M237.5-245.9l-9.5,76.4
												c-0.5,4,0.3,8.1,2.4,11.6l30.1,51.6c1,1.7,2.7,2,4,1.7s2.7-1.3,2.8-3.4l4.3-70.9c0-0.6-0.5-5.3-2.1-8.7
												c-1.8-3.7-22.4-44.7-29.8-58.9c-0.1-0.3-0.6-0.3-1-0.3C238-246.6,237.5-246.2,237.5-245.9L237.5-245.9z"/>
										</g>
										<g>
											<g>
												<path class="st0" d="M219.3-171.8c-1.1,3.4-4.2,5.9-7.8,6.2l-82.6,6c-2.1,0.2-4.2-0.7-5.6-2.3c-1.4-1.6-2-3.8-1.5-5.9
													l14.8-67.6c1.1-4.8,4.9-8.5,9.8-9.3l76.2-12.6c2-0.3,4,0.3,5.5,1.7s2.2,3.4,1.9,5.4l-10.4,76.9
													C219.6-172.8,219.5-172.3,219.3-171.8z M138.8-235.9c-0.1,0.3-0.2,0.6-0.2,0.9l-14.7,67.6c-0.3,1.5,0.1,3,1.1,4.1
													c1,1.1,2.4,1.7,3.9,1.6l82.6-6c3.2-0.2,5.9-2.7,6.3-5.9l10.4-76.8c0.2-1.4-0.3-2.8-1.3-3.7c-1-1-2.4-1.4-3.8-1.2
													l-76.3,12.6C142.9-242.1,139.9-239.5,138.8-235.9z"/>
											</g>
											<g>
												<g>
													
														<ellipse transform="matrix(0.5746 -0.8184 0.8184 0.5746 250.5677 31.3851)" class="st0" cx="155.5" cy="-225.3" rx="10.2" ry="6.9"/>
												</g>
												<g>
													<path class="st0" d="M164.8-233.9c0.6,0.5,1.2,1.1,1.6,1.8s0.7,1.5,0.9,2.3c0.2,0.8,0.3,1.6,0.3,2.5
														c0,0.8,0,1.7-0.2,2.5c-0.1,0.4-0.1,0.8-0.2,1.2c0,0.2-0.1,0.4-0.2,0.6s-0.1,0.4-0.2,0.6l-0.2,0.6
														c-0.1,0.2-0.2,0.4-0.2,0.6c-0.1,0.2-0.2,0.4-0.3,0.6l-0.3,0.6c-0.1,0.2-0.2,0.4-0.3,0.6l-0.3,0.5
														c-0.2,0.4-0.4,0.7-0.7,1.1c-0.5,0.7-1,1.3-1.6,1.9c-0.6,0.6-1.2,1.2-1.9,1.7c-0.7,0.5-1.4,1-2.2,1.4
														c-0.8,0.4-1.6,0.8-2.4,1c-0.2,0.1-0.4,0.1-0.6,0.2c-0.2,0.1-0.4,0.1-0.7,0.1c-0.4,0.1-0.9,0.1-1.3,0.2
														c-0.2,0-0.5,0-0.7,0s-0.5,0-0.7,0c-0.5,0-0.9-0.1-1.4-0.2c-0.9-0.2-1.8-0.6-2.5-1.1s-1.4-1.2-1.8-1.9
														c-0.5-0.7-0.7-1.5-0.8-2.3c0.3,0.7,0.8,1.3,1.3,1.8s1.2,0.9,1.8,1.2c1.4,0.6,2.9,0.7,4.3,0.4s2.8-0.8,4.1-1.6
														c1.3-0.8,2.4-1.7,3.4-2.8c0.5-0.5,1-1.1,1.4-1.7c0.2-0.3,0.4-0.6,0.6-0.9l0.3-0.5c0.1-0.2,0.2-0.3,0.3-0.5
														c0.7-1.3,1.3-2.6,1.7-4c0.1-0.3,0.2-0.7,0.3-1.1c0.1-0.4,0.1-0.7,0.2-1.1c0.1-0.7,0.1-1.5,0.1-2.2
														c0-0.7-0.1-1.5-0.3-2.2C165.5-232.6,165.2-233.3,164.8-233.9z"/>
												</g>
											</g>
											<g>
												<g>
													
														<ellipse transform="matrix(0.5746 -0.8184 0.8184 0.5746 277.457 67.9834)" class="st0" cx="204.1" cy="-232.9" rx="10.2" ry="6.9"/>
												</g>
												<g>
													<path class="st0" d="M197.8-240.5c1.5-2.4,3.8-4.4,6.7-5.5c1.5-0.5,3.1-0.8,4.8-0.6c1.7,0.2,3.4,0.9,4.7,2.1
														c0.7,0.6,1.3,1.2,1.8,2c0.5,0.7,0.9,1.5,1.2,2.3c0.6,1.6,0.8,3.3,0.8,5c0,0.8-0.1,1.6-0.3,2.4
														c-0.2,0.8-0.4,1.6-0.6,2.3c-0.5,1.5-1.2,3-2.1,4.3c-0.9,1.3-1.9,2.5-3.1,3.6c-1.2,1.1-2.5,2-4,2.7s-3.1,1.2-4.8,1.4
														c-0.8,0.1-1.7,0.1-2.6,0c-0.9-0.1-1.7-0.3-2.5-0.6c-1.6-0.7-3.1-1.8-4.1-3.2c-0.1-0.2-0.2-0.4-0.4-0.5l-0.3-0.6
														l-0.1-0.3l-0.1-0.3c-0.1-0.2-0.2-0.4-0.2-0.6c-0.1-0.2-0.1-0.4-0.2-0.6s-0.1-0.4-0.2-0.6c-0.1-0.4-0.2-0.8-0.2-1.2
														v-0.6c0-0.2,0-0.4,0-0.6c0-0.4,0-0.8,0.1-1.1c0.1-0.8,0.2-1.5,0.4-2.2c0.1-0.4,0.2-0.7,0.3-1c0.1-0.3,0.3-0.7,0.4-1
														l0.5-0.9c0.2-0.3,0.4-0.6,0.6-0.9c-0.5,1.3-0.9,2.6-1.1,4c-0.2,1.4-0.1,2.8,0.1,4.1c0.1,0.3,0.2,0.7,0.3,1
														c0,0.2,0.1,0.3,0.2,0.5s0.1,0.3,0.2,0.5l0.2,0.5l0.1,0.2l0.1,0.2l0.3,0.4c0.1,0.1,0.2,0.3,0.3,0.4
														c0.9,1.1,2,1.9,3.4,2.3c1.3,0.4,2.7,0.5,4.1,0.3s2.7-0.7,3.9-1.3c2.4-1.3,4.5-3.3,6-5.6c1.5-2.3,2.5-5,2.7-7.7
														c0.1-1.4,0-2.8-0.5-4.1c-0.4-1.3-1.1-2.5-2.1-3.5s-2.3-1.6-3.6-1.9c-1.3-0.3-2.8-0.2-4.1,0.1
														C202.1-244,199.7-242.4,197.8-240.5z"/>
												</g>
											</g>
											<g>
												<g>
													
														<ellipse transform="matrix(0.5746 -0.8184 0.8184 0.5746 236.5267 81.5387)" class="st0" cx="196.7" cy="-186.8" rx="10.2" ry="6.9"/>
												</g>
												<g>
													<path class="st0" d="M206-195.3c0.6,0.5,1.2,1.1,1.6,1.8c0.4,0.7,0.7,1.5,0.9,2.3c0.2,0.8,0.3,1.6,0.3,2.5
														c0,0.8,0,1.7-0.2,2.5c-0.1,0.4-0.1,0.8-0.2,1.2c0,0.2-0.1,0.4-0.2,0.6s-0.1,0.4-0.2,0.6l-0.2,0.6
														c-0.1,0.2-0.2,0.4-0.2,0.6c-0.1,0.2-0.2,0.4-0.3,0.6l-0.3,0.6c-0.1,0.2-0.2,0.4-0.3,0.6l-0.3,0.5
														c-0.2,0.4-0.4,0.7-0.7,1.1c-0.5,0.7-1,1.3-1.6,1.9c-0.6,0.6-1.2,1.2-1.9,1.7c-0.7,0.5-1.4,1-2.2,1.4
														c-0.8,0.4-1.6,0.8-2.4,1c-0.2,0.1-0.4,0.1-0.6,0.2c-0.2,0.1-0.4,0.1-0.7,0.1c-0.4,0.1-0.9,0.1-1.3,0.2
														c-0.2,0-0.5,0-0.7,0s-0.5,0-0.7,0c-0.5,0-0.9-0.1-1.4-0.2c-0.9-0.2-1.8-0.6-2.5-1.1s-1.4-1.2-1.8-1.9
														c-0.5-0.7-0.7-1.5-0.8-2.3c0.3,0.7,0.8,1.3,1.3,1.8s1.2,0.9,1.8,1.2c1.4,0.6,2.9,0.7,4.3,0.4c1.4-0.3,2.8-0.8,4.1-1.6
														c1.3-0.8,2.4-1.7,3.4-2.8c0.5-0.5,1-1.1,1.4-1.7c0.2-0.3,0.4-0.6,0.6-0.9l0.3-0.5c0.1-0.2,0.2-0.3,0.3-0.5
														c0.7-1.3,1.3-2.6,1.7-4c0.1-0.3,0.2-0.7,0.3-1.1c0.1-0.4,0.1-0.7,0.2-1.1c0.1-0.7,0.1-1.5,0.1-2.2s-0.1-1.5-0.3-2.2
														C206.7-194,206.4-194.7,206-195.3z"/>
												</g>
											</g>
											<g>
												<g>
													
														<ellipse transform="matrix(0.5746 -0.8184 0.8184 0.5746 211.0994 44.0186)" class="st0" cx="147.9" cy="-181.1" rx="10.2" ry="6.9"/>
												</g>
												<g>
													<path class="st0" d="M157.2-189.6c0.6,0.5,1.2,1.1,1.6,1.8s0.7,1.5,0.9,2.3c0.2,0.8,0.3,1.6,0.3,2.5
														c0,0.8,0,1.7-0.2,2.5c-0.1,0.4-0.1,0.8-0.2,1.2c0,0.2-0.1,0.4-0.2,0.6s-0.1,0.4-0.2,0.6l-0.2,0.6
														c-0.1,0.2-0.2,0.4-0.2,0.6c-0.1,0.2-0.2,0.4-0.3,0.6l-0.3,0.6c-0.1,0.2-0.2,0.4-0.3,0.6l-0.3,0.5
														c-0.2,0.4-0.4,0.7-0.7,1.1c-0.5,0.7-1,1.3-1.6,1.9c-0.6,0.6-1.2,1.2-1.9,1.7c-0.7,0.5-1.4,1-2.2,1.4
														c-0.8,0.4-1.6,0.8-2.4,1c-0.2,0.1-0.4,0.1-0.6,0.2c-0.2,0.1-0.4,0.1-0.7,0.1c-0.4,0.1-0.9,0.1-1.3,0.2
														c-0.2,0-0.5,0-0.7,0s-0.5,0-0.7,0c-0.5,0-0.9-0.1-1.4-0.2c-0.9-0.2-1.8-0.6-2.5-1.1s-1.4-1.2-1.8-1.9
														c-0.5-0.7-0.7-1.5-0.8-2.3c0.3,0.7,0.8,1.3,1.3,1.8s1.2,0.9,1.8,1.2c1.4,0.6,2.9,0.7,4.3,0.4c1.4-0.3,2.8-0.8,4.1-1.6
														c1.3-0.8,2.4-1.7,3.4-2.8c0.5-0.5,1-1.1,1.4-1.7c0.2-0.3,0.4-0.6,0.6-0.9l0.3-0.5c0.1-0.2,0.2-0.3,0.3-0.5
														c0.7-1.3,1.3-2.6,1.7-4c0.1-0.3,0.2-0.7,0.3-1.1c0.1-0.4,0.1-0.7,0.2-1.1c0.1-0.7,0.1-1.5,0.1-2.2s-0.1-1.5-0.3-2.2
														C157.9-188.3,157.6-189,157.2-189.6z"/>
												</g>
											</g>
											<g>
												<g>
													
														<ellipse transform="matrix(0.5746 -0.8184 0.8184 0.5746 242.449 56.0134)" class="st0" cx="175.1" cy="-205.2" rx="10.2" ry="6.9"/>
												</g>
												<g>
													<path class="st0" d="M178.9-217.8c0.4-0.1,0.9-0.2,1.3-0.2s0.9,0,1.4,0c0.9,0.1,1.8,0.4,2.7,0.9
														c0.8,0.5,1.6,1.1,2.3,1.9c0.2,0.2,0.3,0.4,0.5,0.6c0.1,0.2,0.3,0.4,0.4,0.6s0.3,0.4,0.4,0.7c0.1,0.2,0.2,0.5,0.3,0.7
														c0.2,0.5,0.3,0.9,0.5,1.4c0.1,0.2,0.1,0.5,0.2,0.7c0,0.2,0.1,0.5,0.1,0.7c0.1,1,0.2,2,0.1,2.9c-0.1,1-0.2,1.9-0.5,2.8
														c-0.2,0.9-0.6,1.8-1,2.7c-0.4,0.9-0.9,1.7-1.4,2.5c-0.1,0.2-0.3,0.4-0.4,0.6s-0.3,0.4-0.4,0.6l-0.4,0.5
														c-0.1,0.1-0.1,0.2-0.2,0.3l-0.2,0.3c-0.3,0.3-0.6,0.7-1,1c-0.2,0.2-0.3,0.3-0.5,0.5s-0.4,0.3-0.6,0.4l-0.6,0.4
														c-0.2,0.1-0.4,0.3-0.6,0.4c-0.2,0.1-0.4,0.3-0.6,0.4l-0.6,0.3c-0.8,0.4-1.7,0.8-2.6,1.1c-0.9,0.2-1.8,0.4-2.8,0.5
														c-0.5,0-0.9,0-1.4,0c-0.2,0-0.5-0.1-0.7-0.1s-0.4-0.1-0.7-0.1l-0.7-0.2c-0.2-0.1-0.4-0.2-0.6-0.2l-0.3-0.1
														c-0.1,0-0.2-0.1-0.3-0.2c-0.2-0.1-0.4-0.2-0.6-0.4c1.6,0.4,3.3,0.4,4.9,0c0.8-0.2,1.6-0.5,2.3-0.8
														c0.4-0.2,0.7-0.4,1.1-0.6c0.3-0.2,0.7-0.4,1-0.6c1.4-0.9,2.6-2,3.6-3.3c1-1.3,1.9-2.7,2.6-4.2s1.1-3.1,1.3-4.7
														c0.2-1.6,0.1-3.3-0.4-4.9c-0.2-0.8-0.6-1.5-1-2.2c-0.4-0.7-1-1.3-1.6-1.8s-1.3-0.9-2.1-1.2
														C180.5-217.6,179.7-217.7,178.9-217.8z"/>
												</g>
											</g>
											<g>
												<path class="st0" d="M140.6-165.8l-12.1,0.9c-0.6,0-1-0.3-1.2-0.5s-0.5-0.7-0.3-1.3l3.4-15.6c-0.2,1-2.1,13.4-1.1,15
													C130.3-165.7,140-165.7,140.6-165.8z"/>
											</g>
											<g>
												<path class="st0" d="M165.7-242.6c-0.6,0.1-19.1,4.8-21.1,8.7c-2.1,3.9-8.3,24.2-8.3,24.2l5.4-24.6
													c0-0.2,0.1-0.4,0.2-0.6c0.8-2.4,2.8-4.2,5.4-4.6L165.7-242.6z"/>
											</g>
											<g>
												<polygon class="st0" points="176.5,-238.2 166.6,-230.1 167,-227.1 												"/>
											</g>
											<g>
												<path class="st0" d="M150.5-212.9c0,0-4.7,4-6.4,5.4c-1.7,1.4,0.1,3,1.1,2.7l-8,7.6l-2.8,12.8c0,0,21.2-20.1,23.1-21.8
													c1.9-1.7,0.2-3.6-0.5-3.6l5.2-5.4l-7.3,2.7L150.5-212.9z"/>
											</g>
											<g>
												<path class="st0" d="M188.1-209.2l11-10.9c0,0-4.9-1.6-5.6-4.9l-8.8,8.8C184.7-216.2,187.5-213.3,188.1-209.2z"/>
											</g>
											<g>
												<path class="st0" d="M218.7-205.6c-1.4,10.5-2.8,21-4.3,31.6c0,0.2-0.1,0.4-0.1,0.6c-0.4,1.4-1.7,2.4-3.2,2.5l-35.1,2.6
													l17.7-3.1l-9.5-0.6l10.4-2c0,0,6.9-0.9,9.5-4.7c2.6-3.8,4.2-10.5,4.2-10.5s0.9,0.9,0.3,4.1s-2.5,8-2.5,8
													s5.4-3.8,4.8-13.7c1.1-2,2.3-4,3.4-6.1C215.8-199.8,217.2-202.7,218.7-205.6z"/>
											</g>
											<g>
												<path class="st0" d="M224.5-251.8c0.2,0.2,0.4,0.5,0.3,1l-4.5,33.6l-0.2-7.3l-12.3,14.2l-0.9-3l-16.3,15.1l20-22.9
													l0.8,2.3c0,0,6-6.3,5.2-15.1c0,0,0.5-7.8-4.5-10.6c-5-2.7-17.7,1.1-18.1,1.2l6.1-3l-17.2,0.9l40.6-6.7
													C224-252.2,224.3-252,224.5-251.8z"/>
											</g>
											<g>
												<polygon class="st0" points="155.8,-166.9 163.7,-169.4 183.7,-189.5 166.6,-169 171.5,-168 												"/>
											</g>
										</g>
										<g>
											<g>
												<path class="st0" d="M249.2-209c1.1,0.7,2,1.6,2.7,2.6c0.8,1,1.4,2.1,2,3.2c1.1,2.3,1.7,4.8,2,7.3s0.2,5.1-0.4,7.5
													c-0.3,1.2-0.7,2.4-1.3,3.6c-0.3,0.6-0.6,1.1-1.1,1.6c-0.2,0.2-0.4,0.5-0.7,0.7c-0.2,0.2-0.5,0.4-0.8,0.5
													c0.9-0.8,1.4-2,1.8-3.1c0.4-1.1,0.7-2.3,0.8-3.5c0.3-2.4,0.3-4.8,0.1-7.2c-0.3-2.4-0.8-4.8-1.6-7
													C251.9-205.1,250.8-207.2,249.2-209z"/>
											</g>
										</g>
										<g>
											<path class="st0" d="M255.5-167.6c0.3,0.2,0.7,0.4,1,0.6c0.2,0.1,0.3,0.2,0.5,0.4c0.1,0.1,0.3,0.2,0.4,0.4
												c0.1,0.1,0.3,0.3,0.4,0.4c0.1,0.1,0.3,0.3,0.4,0.4c0.3,0.3,0.5,0.6,0.8,0.9c0.9,1.3,1.7,2.7,2.3,4.1c1.3,2.9,2,6,2.2,9.1
												c0,0.8,0.1,1.6,0.1,2.4s-0.1,1.6-0.2,2.4c-0.2,1.6-0.5,3.2-1.2,4.7c-0.3,0.8-0.7,1.5-1.2,2.2c-0.3,0.3-0.5,0.7-0.9,1
												c-0.3,0.3-0.7,0.6-1.1,0.8c-0.8,0.4-1.8,0.6-2.6,0.4c-0.4-0.1-0.8-0.3-1.1-0.5c-0.3-0.2-0.6-0.5-0.9-0.8
												c0.6,0.4,1.3,0.7,2.1,0.8c0.2,0,0.4,0,0.6,0s0.4-0.1,0.6-0.1c0.4-0.1,0.7-0.3,1-0.5c0.6-0.4,1.1-1,1.5-1.7
												c0.4-0.6,0.7-1.3,0.9-2.1c0.5-1.4,0.7-2.9,0.9-4.4c0.1-1.5,0.1-3,0-4.5c-0.2-3-0.8-6-1.8-8.8c-0.5-1.4-1.1-2.8-1.8-4.1
												C257.6-165.4,256.7-166.7,255.5-167.6z"/>
										</g>
										<g>
											<path class="st0" d="M264.3-139.9l-1.6,26.1c0,0.1,0,0.1,0,0.2c-0.1,0.2-0.4,0.2-0.4,0.2c-0.2,0-0.3-0.1-0.4-0.2
												L248.3-137l12.6,17.3L264.3-139.9z"/>
										</g>
										<g>
											<path class="st0" d="M233.7-177.8c0.6,3.8,1.4,9.8,1.7,12.1c0.4,3.4,8.8,21.4,8.9,21.7l-9.6-16.5c-1.7-2.9-2.4-6.3-2-9.6
												L233.7-177.8z"/>
										</g>
										<g>
											<path class="st0" d="M242.4-230.5c2.5,5,5.5,10.8,8.5,16.8l-8.1-10.7l-5.4,21.3l3.4-27C240.9-231,242-231.2,242.4-230.5z
												"/>
										</g>
										<g>
											<path class="st0" d="M255.1-102.6c-2.2-2.7-4.2-5.5-6.1-8.4s-3.7-5.8-5.5-8.7c-1.7-3-3.4-6-5-9c-1.6-3.1-3.1-6.2-4.4-9.4
												c2.2,2.7,4.2,5.5,6.1,8.4c1.9,2.9,3.7,5.8,5.5,8.7c1.7,3,3.4,6,5,9S253.8-105.9,255.1-102.6z"/>
											<path class="st0" d="M256.7-103.5c-2.2-2.7-4.2-5.5-6.1-8.4s-3.7-5.8-5.5-8.7c-1.7-3-3.4-6-5-9c-1.6-3.1-3.1-6.2-4.4-9.4
												c2.2,2.7,4.2,5.5,6.1,8.4c1.9,2.9,3.7,5.8,5.5,8.7c1.7,3,3.4,6,5,9C253.9-109.8,255.4-106.7,256.7-103.5z"/>
											<path class="st0" d="M258.3-104.3c-2.2-2.7-4.2-5.5-6.1-8.4s-3.7-5.8-5.5-8.7c-1.7-3-3.4-6-5-9c-1.6-3.1-3.1-6.2-4.4-9.4
												c2.2,2.7,4.2,5.5,6.1,8.4c1.9,2.9,3.7,5.8,5.5,8.7c1.7,3,3.4,6,5,9C255.5-110.6,257-107.5,258.3-104.3z"/>
										</g>
										<g>
											<path class="st0" d="M169.2-151.8c-11.2,1.7-22.4,3.3-33.6,5c-0.5,0.1-0.8,0.6-0.5,1.1c3.8,6,7.5,12,11.3,18
												c0.2,0.2,0.3,0.5,0.5,0.7c-5-6.4-10.1-12.8-15.1-19.2c-0.5-0.6-0.4-1.2-0.3-1.6c0.1-0.3,0.4-1.1,1.5-1.2
												C145-150,157.1-150.9,169.2-151.8z"/>
										</g>
										<g>
											<path class="st0" d="M219.6-150.3l30.9,51.4c0.3,0.7,0.3,1.1,0.3,1.3c-0.1,0.2-0.5,0.5-1.2,0.5
												c-13.3,0.3-26.6,0.6-39.9,0.9c5.3-0.8,10.5-1.6,15.8-2.5c-3.2-0.5-6.3-1.1-9.5-1.6c5-0.3,9.9-0.6,14.9-0.9
												c0,0,12.3-0.7,11.4-5.6c-0.9-4.9-4.8-10.2-4.8-10.2l-5.9-4.4l0.6-3.9c-6.1-11.1-10.1-17.6-12.9-21.4
												c-1-1.3-2.5-3.8-5.6-5.2c-1.1-0.5-2.4-0.7-4.9-1c-2.9-0.4-4.7-0.4-11.6-0.8c-1.1-0.1-2-0.1-2.5-0.1
												c5.1-0.4,10.2-0.8,15.3-1.2C213.8-155.5,217.5-153.6,219.6-150.3z"/>
										</g>
										<g>
											<path class="st0" d="M193.1-95.9l-9.6,0.2c-5.4,0.1-9.8-0.5-13.5-2.7c-1.4-0.8-2.6-1.9-5.1-4.7c-2.7-3-6.3-7.4-10.2-13.3
												c4.5,4.7,8.7,8,11.8,10.3c5.6,4,11.1,8.2,19.2,9.5C187.9-96.3,190.4-96,193.1-95.9z"/>
										</g>
										<g>
											<polygon class="st0" points="201.1,-153.7 198.2,-141.6 199.2,-154 											"/>
										</g>
										<g>
											<path class="st0" d="M168.8-131.9c-0.3,0.9-1,1.7-2,2.2c-2.5,1.2-6.7,0.9-10.9-0.8c-6.3-2.5-10.3-6.7-9.3-9.9l0,0
												c0.3-0.9,1-1.7,2-2.2c2.5-1.2,6.7-0.9,10.9,0.8l0,0C165.8-139.4,169.8-135.1,168.8-131.9L168.8-131.9z M148.4-139.8
												L148.4-139.8c-0.6,1.8,2.6,5.3,8.1,7.5c4.3,1.7,7.8,1.6,9.4,0.9c0.5-0.3,0.9-0.6,1-1l0,0c0.6-1.8-2.6-5.3-8.1-7.5l0,0
												c-4.3-1.7-7.8-1.6-9.4-0.9C148.9-140.6,148.5-140.3,148.4-139.8z"/>
										</g>
										<g>
											<path class="st0" d="M149.7-145.7c0.6-0.2,1.2-0.4,1.8-0.5c0.6-0.1,1.2-0.2,1.8-0.3c0.6-0.1,1.3-0.1,1.9,0
												c0.6,0,1.3,0.1,1.9,0.1c2.5,0.3,4.9,1,7.3,2.1c1.2,0.5,2.3,1.2,3.4,1.9c1.1,0.7,2.1,1.6,3,2.6c0.2,0.3,0.5,0.5,0.7,0.8
												l0.3,0.4c0.1,0.1,0.2,0.3,0.3,0.5c0.4,0.6,0.7,1.3,1,2c0.6,1.4,0.8,3.1,0.5,4.7c-0.3,1.6-1.1,3.2-2.3,4.3
												c-0.6,0.6-1.2,1-1.9,1.4c-0.3,0.2-0.7,0.3-1,0.5c-0.4,0.2-0.7,0.2-1.1,0.4c-1.4,0.4-2.8,0.5-4.2,0.4
												c-0.7,0-1.3-0.1-2-0.2c-0.3-0.1-0.6-0.1-1-0.2c-0.3-0.1-0.6-0.1-0.9-0.2c-0.3-0.1-0.6-0.2-0.9-0.3s-0.6-0.2-0.9-0.3
												c-0.6-0.2-1.2-0.4-1.8-0.7c-0.3-0.1-0.6-0.3-0.9-0.4c-0.3-0.1-0.6-0.3-0.8-0.4c-0.6-0.3-1.1-0.6-1.6-1
												c-0.5-0.3-1-0.7-1.5-1.1c-0.5-0.4-1-0.8-1.4-1.2c-0.5-0.4-0.9-0.9-1.3-1.3c-0.4-0.5-0.8-0.9-1.1-1.5
												c1.7,1.7,3.7,3,5.9,4.1c1.1,0.5,2.2,1,3.3,1.4c1.1,0.4,2.3,0.7,3.5,0.9s2.4,0.3,3.6,0.3s2.4-0.1,3.5-0.5
												c0.3-0.1,0.6-0.2,0.8-0.3c0.3-0.1,0.5-0.2,0.8-0.4c0.5-0.3,1-0.7,1.4-1.1c0.9-0.8,1.4-1.9,1.7-3.1
												c0.2-1.2,0.1-2.4-0.4-3.5c-0.4-1.1-1.1-2.1-1.9-3c-0.8-0.9-1.7-1.7-2.6-2.4c-1-0.7-2-1.4-3-1.9c-2.1-1.1-4.4-2-6.7-2.6
												C154.5-145.9,152.1-146.1,149.7-145.7z"/>
										</g>
										<g>
											
												<ellipse transform="matrix(0.3798 -0.9251 0.9251 0.3798 235.4336 101.1654)" class="st0" cx="193.2" cy="-125" rx="4.9" ry="10.9"/>
										</g>
										<g>
											<path class="st0" d="M204.4-120.6c-0.3,0.9-1,1.7-2,2.2c-2.5,1.2-6.7,0.9-10.9-0.8c-6.3-2.5-10.3-6.7-9.3-9.9l0,0
												c0.3-0.9,1-1.7,2-2.2c2.5-1.2,6.7-0.9,10.9,0.8l0,0C201.4-128.1,205.4-123.8,204.4-120.6L204.4-120.6z M184-128.5
												L184-128.5c-0.6,1.8,2.6,5.3,8.1,7.5c4.3,1.7,7.8,1.6,9.4,0.9c0.5-0.3,0.9-0.6,1-1l0,0c0.6-1.8-2.6-5.3-8.1-7.5l0,0
												c-4.3-1.7-7.8-1.6-9.4-0.9C184.5-129.3,184.1-128.9,184-128.5z"/>
										</g>
										<g>
											<path class="st0" d="M185.3-134.4c0.6-0.2,1.2-0.4,1.8-0.5c0.6-0.1,1.2-0.2,1.8-0.3c0.6-0.1,1.3-0.1,1.9,0
												c0.6,0,1.3,0.1,1.9,0.1c2.5,0.3,4.9,1,7.3,2.1c1.2,0.5,2.3,1.2,3.4,1.9c1.1,0.7,2.1,1.6,3,2.6c0.2,0.3,0.5,0.5,0.7,0.8
												l0.3,0.4c0.1,0.1,0.2,0.3,0.3,0.5c0.4,0.6,0.7,1.3,1,2c0.6,1.4,0.8,3.1,0.5,4.7c-0.3,1.6-1.1,3.2-2.3,4.3
												c-0.6,0.6-1.2,1-1.9,1.4c-0.3,0.2-0.7,0.3-1,0.5c-0.4,0.2-0.7,0.2-1.1,0.4c-1.4,0.4-2.8,0.5-4.2,0.4
												c-0.7,0-1.3-0.1-2-0.2c-0.3-0.1-0.6-0.1-1-0.2c-0.3-0.1-0.6-0.1-0.9-0.2c-0.3-0.1-0.6-0.2-0.9-0.3s-0.6-0.2-0.9-0.3
												c-0.6-0.2-1.2-0.4-1.8-0.7c-0.3-0.1-0.6-0.3-0.9-0.4c-0.3-0.1-0.6-0.3-0.8-0.4c-0.6-0.3-1.1-0.6-1.6-1
												c-0.5-0.3-1-0.7-1.5-1.1c-0.5-0.4-1-0.8-1.4-1.2c-0.5-0.4-0.9-0.9-1.3-1.3c-0.4-0.5-0.8-0.9-1.1-1.5
												c1.7,1.7,3.7,3,5.9,4.1c1.1,0.5,2.2,1,3.3,1.4c1.1,0.4,2.3,0.7,3.5,0.9s2.4,0.3,3.6,0.3s2.4-0.1,3.5-0.5
												c0.3-0.1,0.6-0.2,0.8-0.3c0.3-0.1,0.5-0.2,0.8-0.4c0.5-0.3,1-0.7,1.4-1.1c0.9-0.8,1.4-1.9,1.7-3.1
												c0.2-1.2,0.1-2.4-0.4-3.5c-0.4-1.1-1.1-2.1-1.9-3c-0.8-0.9-1.7-1.7-2.6-2.4c-1-0.7-2-1.4-3-1.9c-2.1-1.1-4.4-2-6.7-2.6
												C190.1-134.5,187.7-134.8,185.3-134.4z"/>
										</g>
										<g>
											
												<ellipse transform="matrix(0.3798 -0.9251 0.9251 0.3798 243.8967 140.3363)" class="st0" cx="226.6" cy="-111.7" rx="4.9" ry="10.9"/>
										</g>
										<g>
											<path class="st0" d="M237.7-107.4c-0.3,0.9-1,1.7-2,2.2c-2.5,1.2-6.7,0.9-10.9-0.8c-6.3-2.5-10.3-6.7-9.3-9.9l0,0
												c0.3-0.9,1-1.7,2-2.2c2.5-1.2,6.7-0.9,10.9,0.8l0,0C234.8-114.9,238.8-110.6,237.7-107.4L237.7-107.4z M217.4-115.4
												L217.4-115.4c-0.6,1.8,2.6,5.3,8.1,7.5c4.3,1.7,7.8,1.6,9.4,0.9c0.5-0.3,0.9-0.6,1-1l0,0c0.6-1.8-2.6-5.3-8.1-7.5l0,0
												c-4.3-1.7-7.8-1.6-9.4-0.9C217.9-116.1,217.5-115.8,217.4-115.4z"/>
										</g>
										<g>
											<path class="st0" d="M218.7-121.2c0.6-0.2,1.2-0.4,1.8-0.5c0.6-0.1,1.2-0.2,1.8-0.3c0.6-0.1,1.3-0.1,1.9,0
												c0.6,0,1.3,0.1,1.9,0.1c2.5,0.3,4.9,1,7.3,2.1c1.2,0.5,2.3,1.2,3.4,1.9s2.1,1.6,3,2.6c0.2,0.3,0.5,0.5,0.7,0.8l0.3,0.4
												c0.1,0.1,0.2,0.3,0.3,0.5c0.4,0.6,0.7,1.3,1,2c0.6,1.4,0.8,3.1,0.5,4.7c-0.3,1.6-1.1,3.2-2.3,4.3c-0.6,0.6-1.2,1-1.9,1.4
												c-0.3,0.2-0.7,0.3-1,0.5c-0.4,0.2-0.7,0.2-1.1,0.4c-1.4,0.4-2.8,0.5-4.2,0.4c-0.7,0-1.3-0.1-2-0.2
												c-0.3-0.1-0.6-0.1-1-0.2c-0.3-0.1-0.6-0.1-0.9-0.2c-0.3-0.1-0.6-0.2-0.9-0.3s-0.6-0.2-0.9-0.3c-0.6-0.2-1.2-0.4-1.8-0.7
												c-0.3-0.1-0.6-0.3-0.9-0.4c-0.3-0.1-0.6-0.3-0.8-0.4c-0.6-0.3-1.1-0.6-1.6-1c-0.5-0.3-1-0.7-1.5-1.1
												c-0.5-0.4-1-0.8-1.4-1.2c-0.5-0.4-0.9-0.9-1.3-1.3c-0.4-0.5-0.8-0.9-1.1-1.5c1.7,1.7,3.7,3,5.9,4.1
												c1.1,0.5,2.2,1,3.3,1.4c1.1,0.4,2.3,0.7,3.5,0.9s2.4,0.3,3.6,0.3s2.4-0.1,3.5-0.5c0.3-0.1,0.6-0.2,0.8-0.3
												c0.3-0.1,0.5-0.2,0.8-0.4c0.5-0.3,1-0.7,1.4-1.1c0.9-0.8,1.4-1.9,1.7-3.1c0.2-1.2,0.1-2.4-0.4-3.5
												c-0.4-1.1-1.1-2.1-1.9-3s-1.7-1.7-2.6-2.4c-1-0.7-2-1.4-3-1.9c-2.1-1.1-4.4-2-6.7-2.6C223.5-121.4,221-121.7,218.7-121.2
												z"/>
										</g>
										<g>
											<polygon class="st0" points="176.6,-97.5 179.5,-120.9 179.6,-97.3 											"/>
										</g>
										<g>
											<path class="st0" d="M174.6-98.5l3.6-31.9c0.2-1.6-1.5-2.7-2.9-2l-2.7,0.6c0,0-0.7,5.2-4,5.8s-2.7,6.4-1.8,6.6
												c1.6,0.2,4.7-3.9,4.7-3.9s-0.4,1.7-2.2,4.4l-1.9,15.8L174.6-98.5z"/>
										</g>
										<g>
											<path class="st0" d="M168.2-141.8l1.3-7l6.4-0.7l-2.7,18.5C172.4-134.8,170.7-138.4,168.2-141.8z"/>
										</g>
										<g>
											<path class="st0" d="M203.4-153.7l-4.8,20.7c0,0,5.5,1.8,8.1,6c2.6,4.2,1.2,4.3,1.2,4.3s3.4,0.4-2.4-9.2
												c0,0,2.3,1.6,4.1,3.8l5.8-25.1L203.4-153.7z"/>
										</g>
										<g>
											<polygon class="st0" points="218.1,-150 213.6,-128.8 221.3,-135 222.9,-143.8 											"/>
										</g>
										<g>
											<polygon class="st0" points="205.3,-115.2 200.9,-98.4 195.7,-98.1 199.8,-113.8 											"/>
										</g>
										<g class="st1">
											<g class="st2">
												<path class="st3" d="M222.3-167.8c0.2-5.1,0.7-10.1,1.2-15.2c0.5-5,1.1-10.1,1.7-15.1s1.4-10,2.2-15.1
													c0.8-5,1.7-10,2.7-15c-0.2,5.1-0.7,10.1-1.2,15.2c-0.5,5-1.1,10.1-1.7,15.1c-0.7,5-1.4,10-2.2,15.1
													C224.2-177.8,223.3-172.8,222.3-167.8z"/>
											</g>
											<g class="st2">
												<path class="st3" d="M230.4-232.2c-0.1-1.5-0.1-3,0-4.5s0.2-3,0.4-4.4c0.2-1.5,0.4-2.9,0.7-4.4c0.3-1.5,0.6-2.9,1.1-4.4
													c0.1,1.5,0.1,3,0,4.5s-0.2,3-0.4,4.4c-0.2,1.5-0.4,2.9-0.7,4.4C231.2-235.1,230.9-233.6,230.4-232.2z"/>
											</g>
											<g class="st2">
												<path class="st3" d="M132.1-157.1c6.1-0.9,12.3-1.5,18.5-2.1c6.2-0.6,12.3-1.1,18.5-1.6c6.2-0.4,12.3-0.8,18.5-1.1
													c6.2-0.3,12.4-0.5,18.6-0.6c-6.1,0.9-12.3,1.5-18.5,2.1c-6.2,0.6-12.3,1.1-18.5,1.6s-12.3,0.8-18.5,1.1
													C144.5-157.3,138.3-157.1,132.1-157.1z"/>
											</g>
										</g>
										<g class="st1">
											<polygon class="st4" points="157.9,-113.8 158.6,-125.8 161,-125 160,-110.7 											"/>
										</g>
									</g>
									<path class="st0" d="M250-160.9c-0.4,2.4-0.3,5.5,0.2,8.7c1,6,3.6,12.2,6.4,11.7c1-0.2,1.8-1.1,2.2-2.6
										c0.8-2.6,0.8-6.7,0.2-10.5c-0.5-3.2-1.4-6.2-2.5-8.3c-1.2-2.4-2.6-3.6-3.9-3.3C251.3-165.1,250.4-163.6,250-160.9z
										 M252.9-164.1c-0.1,0-0.1,0-0.2,0.1C252.7-164,252.8-164,252.9-164.1L252.9-164.1z"/>
									<path class="st0" d="M243.1-207.7c-1.5,2-1.9,6.7-0.9,12.1c1,6.1,3.8,12.4,6.8,12.1c0.6-0.1,1.2-0.4,1.6-1
										c0.3-0.4,0.6-1,0.8-1.7c0.8-2.4,0.8-6.2,0.1-10.4c-1-6.1-3.8-12.4-6.8-12.1C244.1-208.6,243.5-208.3,243.1-207.7z"/>
								</g>
							</g>
						</g>
					</g>
				</g>
			</g>
		</g>
	</g>
	<polygon class="st0" points="-69.7,-239.4 -37.9,-239.4 -46.8,-196.7 -24.8,-182.1 -33.5,-140.7 -83.2,-175.3 	"/>
	<polygon class="st0" points="33.5,-239.4 65.3,-239.4 56.4,-196.7 78.4,-182.1 69.7,-140.7 20.1,-175.3 	"/>
</g>
<path class="st9" d="M-224.9-118.5"/>
</svg>
