<?xml version="1.0" encoding="utf-8"?>
<!-- Generator: Adobe Illustrator 26.0.1, SVG Export Plug-In . SVG Version: 6.00 Build 0)  -->
<svg version="1.1" id="Слой_1" xmlns="http://www.w3.org/2000/svg" xmlns:xlink="http://www.w3.org/1999/xlink" x="0px" y="0px"
	 viewBox="0 0 647.5 185" style="enable-background:new 0 0 647.5 185;" xml:space="preserve">
<style type="text/css">
	.st0{fill:#FFFFFF;}
	.st1{display:none;}
	.st2{display:inline;}
	.st3{fill:#110E0E;}
	.st4{display:inline;fill:#110E0E;}
	.st5{clip-path:url(#SVGID_00000103957747810950793960000012299706955242515645_);}
	.st6{fill:#FFF200;}
	.st7{fill:#FFF980;}
	.st8{fill:#80DBF5;}
	.st9{fill:#FF80C8;}
	.st10{fill:#FF0090;}
	.st11{fill:#00B7EB;}
</style>
<g>
	<g>
		<g>
			<defs>
				<path id="SVGID_1_" d="M479.8,154.2c-0.9,2.8-2.5,5.4-4.7,7.5c-3.2,3.1-7.5,4.9-12,5l-61.7,1.3c-7.8,0.2-15.1-3.2-19.9-9.2
					l-31.2-38.4c-4-5-5.7-11.5-4.3-17.8l13.6-64.8c1-4.6,4.6-8,9.2-8.8l67.7-11.8c3.8-0.6,7.5-0.1,11,1.6c3.4,1.7,6.1,4.4,7.8,7.8
					l26.2,51.6c2.2,4.1,3.1,8.8,2.8,13.5l-3.5,58.2C480.5,151.3,480.2,152.9,479.8,154.2z"/>
			</defs>
			<clipPath id="SVGID_00000057833889426922187180000011072298519643499682_">
				<use xlink:href="#SVGID_1_"  style="overflow:visible;"/>
			</clipPath>
		</g>
	</g>
	<g>
		<g>
			<g>
				<g>
					<path class="st0" d="M231.7,32.4h28.6l-27.6,129.8l-23.3-25.7L231.7,32.4z"/>
					<path class="st0" d="M324.3,32.4h28.6l-27.6,129.8l-23.3-25.7L324.3,32.4z"/>
				</g>
			</g>
			<g>
				<g>
					<g>
						<g>
							<g>
								<g>
									<g>
										<g>
											
												<ellipse transform="matrix(0.3798 -0.9251 0.9251 0.3798 118.2254 429.5769)" class="st0" cx="379.5" cy="126.6" rx="4.4" ry="9.8"/>
										</g>
										<g>
											<path class="st0" d="M479.8,154.2c-0.9,2.8-2.5,5.4-4.7,7.5c-3.2,3.1-7.5,4.9-12,5l-61.7,1.3c-7.8,0.2-15.1-3.2-19.9-9.2
												l-31.2-38.4c-4-5-5.7-11.5-4.3-17.8l13.6-64.8c1-4.6,4.6-8,9.2-8.8l67.7-11.8c3.8-0.6,7.5-0.1,11,1.6
												c3.4,1.7,6.1,4.4,7.8,7.8l26.2,51.6c2.2,4.1,3.1,8.8,2.8,13.5l-3.5,58.2C480.5,151.3,480.2,152.9,479.8,154.2z
												 M347.2,102.9l1.3,0.3c-1.2,5.5,0.2,11.1,3.8,15.5l31.2,38.4c4.4,5.4,10.9,8.4,17.8,8.3l61.7-1.3
												c7.9-0.2,14.5-6.5,14.9-14.4l3.5-58.2c0.3-4.2-0.6-8.4-2.5-12.1l-26.2-51.6c-3-5.9-9.4-9.1-15.9-8l-67.7,11.9
												c-3.5,0.6-6.3,3.2-7,6.7l-13.6,64.8L347.2,102.9z"/>
										</g>
										<g>
											<path class="st0" d="M467.9,163c-0.1,0.4-0.3,0.6-0.4,0.9c-1,1.7-3,2.3-4.5,2.4l-60.4,1.3c-7.2,0.1-14.6-0.9-20.4-8.4
												l-30.3-39.4c-1.3-1.7-1.5-3.9-0.7-5.7c0.9-2,2.6-3.2,4.8-3.3l70.3-5.7c5.1-0.4,10,2.1,12.7,6.6l28.4,47.1l0,0
												C468.3,160.6,468.3,161.9,467.9,163z M352.8,115.2c-0.4,1.2-0.2,2.5,0.6,3.5l30.3,39.4c4.9,6.5,11.1,7.8,18.9,7.7
												l60.3-1.3c1,0,2.3-0.4,3-1.5c0.5-0.9,0.4-2.1-0.2-3.4l-28.2-47c-2.3-3.9-6.6-6-11-5.7l-70.3,5.7c-1.4,0.1-2.7,1-3.2,2.3
												C352.9,114.9,352.9,115,352.8,115.2z"/>
										</g>
										<g>
											<path class="st0" d="M479.6,153.4c-0.5,1.7-1.9,3-3.7,3.3c-2.2,0.5-4.4-0.4-5.6-2.4l-27.1-46.2
												c-2.1-3.5-2.9-7.5-2.3-11.6l8.5-68.6c0.2-1.1,1.2-2.1,2.4-2.2c1.3-0.3,2.3,0.3,2.9,1.2c6.6,12.8,25.1,49.6,26.8,52.9
												c1.8,3.6,2.1,8.4,2.2,8.5v0.1l-3.9,63.7C479.8,152.6,479.7,153.1,479.6,153.4z M451.2,28.2l-8.5,68.6
												c-0.4,3.6,0.3,7.3,2.2,10.4l27,46.3c0.9,1.5,2.4,1.8,3.6,1.5c1.2-0.3,2.4-1.2,2.5-3.1l3.9-63.7c0-0.5-0.4-4.8-1.9-7.8
												c-1.6-3.3-20.1-40.1-26.8-52.9c-0.1-0.3-0.5-0.3-0.9-0.3C451.7,27.5,451.2,27.9,451.2,28.2L451.2,28.2z"/>
										</g>
										<g>
											<g>
												<path class="st0" d="M434.9,94.7c-1,3.1-3.8,5.3-7,5.6l-74.2,5.4c-1.9,0.2-3.8-0.6-5-2.1c-1.3-1.4-1.8-3.4-1.3-5.3
													l13.3-60.7c1-4.3,4.4-7.6,8.8-8.4l68.4-11.3c1.8-0.3,3.6,0.3,4.9,1.5c1.3,1.3,2,3.1,1.7,4.8l-9.3,69
													C435.2,93.8,435.1,94.2,434.9,94.7z M362.6,37.1c-0.1,0.3-0.2,0.5-0.2,0.8l-13.2,60.7c-0.3,1.3,0.1,2.7,1,3.7
													c0.9,1,2.2,1.5,3.5,1.4l74.2-5.4c2.9-0.2,5.3-2.4,5.7-5.3l9.3-69c0.2-1.3-0.3-2.5-1.2-3.3c-0.9-0.9-2.2-1.3-3.4-1.1
													L369.8,31C366.3,31.6,363.6,33.9,362.6,37.1z"/>
											</g>
											<g>
												<g>
													
														<ellipse transform="matrix(0.5746 -0.8184 0.8184 0.5746 122.4494 328.8742)" class="st0" cx="377.6" cy="46.6" rx="9.2" ry="6.2"/>
												</g>
												<g>
													<path class="st0" d="M385.9,38.9c0.5,0.4,1.1,1,1.4,1.6c0.4,0.6,0.6,1.3,0.8,2.1c0.2,0.7,0.3,1.4,0.3,2.2
														c0,0.7,0,1.5-0.2,2.2c-0.1,0.4-0.1,0.7-0.2,1.1c0,0.2-0.1,0.4-0.2,0.5c-0.1,0.2-0.1,0.4-0.2,0.5l-0.2,0.5
														c-0.1,0.2-0.2,0.4-0.2,0.5c-0.1,0.2-0.2,0.4-0.3,0.5l-0.3,0.5c-0.1,0.2-0.2,0.4-0.3,0.5l-0.3,0.4
														c-0.2,0.4-0.4,0.6-0.6,1c-0.4,0.6-0.9,1.2-1.4,1.7c-0.5,0.5-1.1,1.1-1.7,1.5c-0.6,0.4-1.3,0.9-2,1.3s-1.4,0.7-2.2,0.9
														c-0.2,0.1-0.4,0.1-0.5,0.2c-0.2,0.1-0.4,0.1-0.6,0.1c-0.4,0.1-0.8,0.1-1.2,0.2c-0.2,0-0.4,0-0.6,0s-0.4,0-0.6,0
														c-0.4,0-0.8-0.1-1.3-0.2c-0.8-0.2-1.6-0.5-2.2-1s-1.3-1.1-1.6-1.7c-0.4-0.6-0.6-1.3-0.7-2.1c0.3,0.6,0.7,1.2,1.2,1.6
														c0.4,0.4,1.1,0.8,1.6,1.1c1.3,0.5,2.6,0.6,3.9,0.4c1.3-0.3,2.5-0.7,3.7-1.4c1.2-0.7,2.2-1.5,3.1-2.5
														c0.4-0.4,0.9-1,1.3-1.5c0.2-0.3,0.4-0.5,0.5-0.8l0.3-0.4c0.1-0.2,0.2-0.3,0.3-0.4c0.6-1.2,1.2-2.3,1.5-3.6
														c0.1-0.3,0.2-0.6,0.3-1c0.1-0.4,0.1-0.6,0.2-1c0.1-0.6,0.1-1.3,0.1-2c0-0.6-0.1-1.3-0.3-2
														C386.6,40.1,386.3,39.5,385.9,38.9z"/>
												</g>
											</g>
											<g>
												<g>
													
														<ellipse transform="matrix(0.5746 -0.8184 0.8184 0.5746 146.5933 361.7358)" class="st0" cx="421.3" cy="39.8" rx="9.2" ry="6.2"/>
												</g>
												<g>
													<path class="st0" d="M415.6,33c1.3-2.2,3.4-4,6-4.9c1.3-0.4,2.8-0.7,4.3-0.5c1.5,0.2,3.1,0.8,4.2,1.9
														c0.6,0.5,1.2,1.1,1.6,1.8c0.4,0.6,0.8,1.3,1.1,2.1c0.5,1.4,0.7,3,0.7,4.5c0,0.7-0.1,1.4-0.3,2.2
														c-0.2,0.7-0.4,1.4-0.5,2.1c-0.4,1.3-1.1,2.7-1.9,3.9s-1.7,2.2-2.8,3.2s-2.2,1.8-3.6,2.4c-1.3,0.6-2.8,1.1-4.3,1.3
														c-0.7,0.1-1.5,0.1-2.3,0c-0.8-0.1-1.5-0.3-2.2-0.5c-1.4-0.6-2.8-1.6-3.7-2.9c-0.1-0.2-0.2-0.4-0.4-0.4l-0.3-0.5
														l-0.1-0.3l-0.1-0.3c-0.1-0.2-0.2-0.4-0.2-0.5c-0.1-0.2-0.1-0.4-0.2-0.5c-0.1-0.2-0.1-0.4-0.2-0.5
														c-0.1-0.4-0.2-0.7-0.2-1.1v-0.5c0-0.2,0-0.4,0-0.5c0-0.4,0-0.7,0.1-1c0.1-0.7,0.2-1.3,0.4-2c0.1-0.4,0.2-0.6,0.3-0.9
														s0.3-0.6,0.4-0.9l0.4-0.8c0.2-0.3,0.4-0.5,0.5-0.8c-0.4,1.2-0.8,2.3-1,3.6c-0.2,1.3-0.1,2.5,0.1,3.7
														c0.1,0.3,0.2,0.6,0.3,0.9c0,0.2,0.1,0.3,0.2,0.4c0.1,0.2,0.1,0.3,0.2,0.4l0.2,0.4l0.1,0.2l0.1,0.2l0.3,0.4
														c0.1,0.1,0.2,0.3,0.3,0.4c0.8,1,1.8,1.7,3.1,2.1c1.2,0.4,2.4,0.4,3.7,0.3s2.4-0.6,3.5-1.2c2.2-1.2,4-3,5.4-5
														c1.3-2.1,2.2-4.5,2.4-6.9c0.1-1.3,0-2.5-0.4-3.7c-0.4-1.2-1-2.2-1.9-3.1c-0.9-0.9-2.1-1.4-3.2-1.7s-2.5-0.2-3.7,0.1
														C419.4,29.9,417.3,31.3,415.6,33z"/>
												</g>
											</g>
											<g>
												<g>
													
														<ellipse transform="matrix(0.5746 -0.8184 0.8184 0.5746 109.8421 373.9071)" class="st0" cx="414.6" cy="81.3" rx="9.2" ry="6.2"/>
												</g>
												<g>
													<path class="st0" d="M422.9,73.6c0.5,0.4,1.1,1,1.4,1.6c0.4,0.6,0.6,1.3,0.8,2.1c0.2,0.7,0.3,1.4,0.3,2.2
														c0,0.7,0,1.5-0.2,2.2c-0.1,0.4-0.1,0.7-0.2,1.1c0,0.2-0.1,0.4-0.2,0.5c-0.1,0.2-0.1,0.4-0.2,0.5l-0.2,0.5
														c-0.1,0.2-0.2,0.4-0.2,0.5c-0.1,0.2-0.2,0.4-0.3,0.5l-0.3,0.5c-0.1,0.2-0.2,0.4-0.3,0.5l-0.3,0.4
														c-0.2,0.4-0.4,0.6-0.6,1c-0.4,0.6-0.9,1.2-1.4,1.7c-0.5,0.5-1.1,1.1-1.7,1.5c-0.6,0.4-1.3,0.9-2,1.3
														c-0.7,0.4-1.4,0.7-2.2,0.9c-0.2,0.1-0.4,0.1-0.5,0.2c-0.2,0.1-0.4,0.1-0.6,0.1c-0.4,0.1-0.8,0.1-1.2,0.2
														c-0.2,0-0.4,0-0.6,0c-0.2,0-0.4,0-0.6,0c-0.4,0-0.8-0.1-1.3-0.2c-0.8-0.2-1.6-0.5-2.2-1s-1.3-1.1-1.6-1.7
														c-0.4-0.6-0.6-1.3-0.7-2.1c0.3,0.6,0.7,1.2,1.2,1.6c0.4,0.4,1.1,0.8,1.6,1.1c1.3,0.5,2.6,0.6,3.9,0.4
														c1.3-0.3,2.5-0.7,3.7-1.4s2.2-1.5,3.1-2.5c0.4-0.4,0.9-1,1.3-1.5c0.2-0.3,0.4-0.5,0.5-0.8l0.3-0.4
														c0.1-0.2,0.2-0.3,0.3-0.4c0.6-1.2,1.2-2.3,1.5-3.6c0.1-0.3,0.2-0.6,0.3-1c0.1-0.4,0.1-0.6,0.2-1c0.1-0.6,0.1-1.3,0.1-2
														c0-0.6-0.1-1.3-0.3-2C423.6,74.8,423.3,74.1,422.9,73.6z"/>
												</g>
											</g>
											<g>
												<g>
													
														<ellipse transform="matrix(0.5746 -0.8184 0.8184 0.5746 87.0109 340.2177)" class="st0" cx="370.8" cy="86.4" rx="9.2" ry="6.2"/>
												</g>
												<g>
													<path class="st0" d="M379.1,78.7c0.5,0.4,1.1,1,1.4,1.6c0.4,0.6,0.6,1.3,0.8,2.1c0.2,0.7,0.3,1.4,0.3,2.2
														c0,0.7,0,1.5-0.2,2.2c-0.1,0.4-0.1,0.7-0.2,1.1c0,0.2-0.1,0.4-0.2,0.5c-0.1,0.2-0.1,0.4-0.2,0.5l-0.2,0.5
														c-0.1,0.2-0.2,0.4-0.2,0.5c-0.1,0.2-0.2,0.4-0.3,0.5l-0.3,0.5c-0.1,0.2-0.2,0.4-0.3,0.5l-0.3,0.4
														c-0.2,0.4-0.4,0.6-0.6,1c-0.4,0.6-0.9,1.2-1.4,1.7c-0.5,0.5-1.1,1.1-1.7,1.5c-0.6,0.4-1.3,0.9-2,1.3s-1.4,0.7-2.2,0.9
														c-0.2,0.1-0.4,0.1-0.5,0.2c-0.2,0.1-0.4,0.1-0.6,0.1c-0.4,0.1-0.8,0.1-1.2,0.2c-0.2,0-0.4,0-0.6,0s-0.4,0-0.6,0
														c-0.4,0-0.8-0.1-1.3-0.2c-0.8-0.2-1.6-0.5-2.2-1c-0.6-0.4-1.3-1.1-1.6-1.7c-0.4-0.6-0.6-1.3-0.7-2.1
														c0.3,0.6,0.7,1.2,1.2,1.6c0.4,0.4,1.1,0.8,1.6,1.1c1.3,0.5,2.6,0.6,3.9,0.4c1.3-0.3,2.5-0.7,3.7-1.4
														c1.2-0.7,2.2-1.5,3.1-2.5c0.4-0.4,0.9-1,1.3-1.5c0.2-0.3,0.4-0.5,0.5-0.8l0.3-0.4c0.1-0.2,0.2-0.3,0.3-0.4
														c0.6-1.2,1.2-2.3,1.5-3.6c0.1-0.3,0.2-0.6,0.3-1c0.1-0.4,0.1-0.6,0.2-1c0.1-0.6,0.1-1.3,0.1-2c0-0.6-0.1-1.3-0.3-2
														C379.8,79.9,379.5,79.2,379.1,78.7z"/>
												</g>
											</g>
											<g>
												<g>
													
														<ellipse transform="matrix(0.5746 -0.8184 0.8184 0.5746 115.1597 350.988)" class="st0" cx="395.2" cy="64.7" rx="9.2" ry="6.2"/>
												</g>
												<g>
													<path class="st0" d="M398.6,53.4c0.4-0.1,0.8-0.2,1.2-0.2c0.4,0,0.8,0,1.3,0c0.8,0.1,1.6,0.4,2.4,0.8
														c0.7,0.4,1.4,1,2.1,1.7c0.2,0.2,0.3,0.4,0.4,0.5c0.1,0.2,0.3,0.4,0.4,0.5c0.1,0.2,0.3,0.4,0.4,0.6
														c0.1,0.2,0.2,0.4,0.3,0.6c0.2,0.4,0.3,0.8,0.4,1.3c0.1,0.2,0.1,0.4,0.2,0.6c0,0.2,0.1,0.4,0.1,0.6
														c0.1,0.9,0.2,1.8,0.1,2.6c-0.1,0.9-0.2,1.7-0.4,2.5c-0.2,0.8-0.5,1.6-0.9,2.4c-0.4,0.8-0.8,1.5-1.3,2.2
														c-0.1,0.2-0.3,0.4-0.4,0.5c-0.1,0.2-0.3,0.4-0.4,0.5l-0.4,0.4c-0.1,0.1-0.1,0.2-0.2,0.3l-0.2,0.3
														c-0.3,0.3-0.5,0.6-0.9,0.9c-0.2,0.2-0.3,0.3-0.4,0.4s-0.4,0.3-0.5,0.4l-0.5,0.4c-0.2,0.1-0.4,0.3-0.5,0.4
														c-0.2,0.1-0.4,0.3-0.5,0.4l-0.5,0.3c-0.7,0.4-1.5,0.7-2.3,1c-0.8,0.2-1.6,0.4-2.5,0.4c-0.4,0-0.8,0-1.3,0
														c-0.2,0-0.4-0.1-0.6-0.1c-0.2,0-0.4-0.1-0.6-0.1l-0.6-0.2c-0.2-0.1-0.4-0.2-0.5-0.2l-0.3-0.1c-0.1,0-0.2-0.1-0.3-0.2
														c-0.2-0.1-0.4-0.2-0.5-0.4c1.4,0.4,3,0.4,4.4,0c0.7-0.2,1.4-0.4,2.1-0.7c0.4-0.2,0.6-0.4,1-0.5
														c0.3-0.2,0.6-0.4,0.9-0.5c1.3-0.8,2.3-1.8,3.2-3c0.9-1.2,1.7-2.4,2.3-3.8s1-2.8,1.2-4.2c0.2-1.4,0.1-3-0.4-4.4
														c-0.2-0.7-0.5-1.3-0.9-2c-0.4-0.6-0.9-1.2-1.4-1.6c-0.5-0.4-1.2-0.8-1.9-1.1C400,53.6,399.3,53.5,398.6,53.4z"/>
												</g>
											</g>
											<g>
												<path class="st0" d="M364.2,100.1l-10.9,0.8c-0.5,0-0.9-0.3-1.1-0.4c-0.2-0.2-0.4-0.6-0.3-1.2l3.1-14
													c-0.2,0.9-1.9,12-1,13.5C355,100.2,363.7,100.2,364.2,100.1z"/>
											</g>
											<g>
												<path class="st0" d="M386.8,31.1c-0.5,0.1-17.1,4.3-18.9,7.8c-1.9,3.5-7.5,21.7-7.5,21.7l4.8-22.1
													c0-0.2,0.1-0.4,0.2-0.5c0.7-2.2,2.5-3.8,4.8-4.1L386.8,31.1z"/>
											</g>
											<g>
												<polygon class="st0" points="396.5,35.1 387.6,42.3 387.9,45 												"/>
											</g>
											<g>
												<path class="st0" d="M373.1,57.8c0,0-4.2,3.6-5.7,4.8c-1.5,1.3,0.1,2.7,1,2.4l-7.2,6.8l-2.5,11.5c0,0,19-18,20.7-19.6
													s0.2-3.2-0.4-3.2l4.7-4.8l-6.6,2.4L373.1,57.8z"/>
											</g>
											<g>
												<path class="st0" d="M406.9,61.1l9.9-9.8c0,0-4.4-1.4-5-4.4l-7.9,7.9C403.8,54.8,406.3,57.4,406.9,61.1z"/>
											</g>
											<g>
												<path class="st0" d="M434.3,64.3c-1.3,9.4-2.5,18.9-3.9,28.4c0,0.2-0.1,0.4-0.1,0.5c-0.4,1.3-1.5,2.2-2.9,2.2L396,97.8
													l15.9-2.8l-8.5-0.5l9.3-1.8c0,0,6.2-0.8,8.5-4.2c2.3-3.4,3.8-9.4,3.8-9.4s0.8,0.8,0.3,3.7c-0.5,2.9-2.2,7.2-2.2,7.2
													s4.8-3.4,4.3-12.3c1-1.8,2.1-3.6,3.1-5.5C431.7,69.5,433,66.9,434.3,64.3z"/>
											</g>
											<g>
												<path class="st0" d="M439.6,22.9c0.2,0.2,0.4,0.4,0.3,0.9l-4,30.2l-0.2-6.6l-11,12.8l-0.8-2.7L409.1,71l18-20.6l0.7,2.1
													c0,0,5.4-5.7,4.7-13.6c0,0,0.4-7-4-9.5c-4.5-2.4-15.9,1-16.3,1.1l5.5-2.7l-15.4,0.8l36.5-6
													C439.1,22.5,439.4,22.7,439.6,22.9z"/>
											</g>
											<g>
												<polygon class="st0" points="377.9,99.1 385,96.8 402.9,78.8 387.6,97.2 392,98.1 												"/>
											</g>
										</g>
										<g>
											<g>
												<path class="st0" d="M461.7,61.3c1,0.6,1.8,1.4,2.4,2.3c0.7,0.9,1.3,1.9,1.8,2.9c1,2.1,1.5,4.3,1.8,6.6
													c0.3,2.2,0.2,4.6-0.4,6.7c-0.3,1.1-0.6,2.2-1.2,3.2c-0.3,0.5-0.5,1-1,1.4c-0.2,0.2-0.4,0.4-0.6,0.6
													c-0.2,0.2-0.4,0.4-0.7,0.4c0.8-0.7,1.3-1.8,1.6-2.8c0.4-1,0.6-2.1,0.7-3.1c0.3-2.2,0.3-4.3,0.1-6.5
													c-0.3-2.2-0.7-4.3-1.4-6.3C464.2,64.8,463.2,62.9,461.7,61.3z"/>
											</g>
										</g>
										<g>
											<path class="st0" d="M467.4,98.5c0.3,0.2,0.6,0.4,0.9,0.5c0.2,0.1,0.3,0.2,0.4,0.4c0.1,0.1,0.3,0.2,0.4,0.4
												c0.1,0.1,0.3,0.3,0.4,0.4c0.1,0.1,0.3,0.3,0.4,0.4c0.3,0.3,0.4,0.5,0.7,0.8c0.8,1.2,1.5,2.4,2.1,3.7
												c1.2,2.6,1.8,5.4,2,8.2c0,0.7,0.1,1.4,0.1,2.2s-0.1,1.4-0.2,2.2c-0.2,1.4-0.4,2.9-1.1,4.2c-0.3,0.7-0.6,1.3-1.1,2
												c-0.3,0.3-0.4,0.6-0.8,0.9c-0.3,0.3-0.6,0.5-1,0.7c-0.7,0.4-1.6,0.5-2.3,0.4c-0.4-0.1-0.7-0.3-1-0.4
												c-0.3-0.2-0.5-0.4-0.8-0.7c0.5,0.4,1.2,0.6,1.9,0.7c0.2,0,0.4,0,0.5,0s0.4-0.1,0.5-0.1c0.4-0.1,0.6-0.3,0.9-0.4
												c0.5-0.4,1-0.9,1.3-1.5c0.4-0.5,0.6-1.2,0.8-1.9c0.4-1.3,0.6-2.6,0.8-4c0.1-1.3,0.1-2.7,0-4c-0.2-2.7-0.7-5.4-1.6-7.9
												c-0.4-1.3-1-2.5-1.6-3.7C469.3,100.4,468.5,99.3,467.4,98.5z"/>
										</g>
										<g>
											<path class="st0" d="M475.3,123.3l-1.4,23.4c0,0.1,0,0.1,0,0.2c-0.1,0.2-0.4,0.2-0.4,0.2c-0.2,0-0.3-0.1-0.4-0.2
												l-12.2-21l11.3,15.5L475.3,123.3z"/>
										</g>
										<g>
											<path class="st0" d="M447.8,89.3c0.5,3.4,1.3,8.8,1.5,10.9c0.4,3.1,7.9,19.2,8,19.5l-8.6-14.8c-1.5-2.6-2.2-5.7-1.8-8.6
												L447.8,89.3z"/>
										</g>
										<g>
											<path class="st0" d="M455.6,42c2.2,4.5,4.9,9.7,7.6,15.1l-7.3-9.6l-4.8,19.1l3.1-24.2C454.3,41.5,455.3,41.4,455.6,42z"
												/>
										</g>
										<g>
											<path class="st0" d="M467,156.8c-2-2.4-3.8-4.9-5.5-7.5c-1.7-2.6-3.3-5.2-4.9-7.8c-1.5-2.7-3.1-5.4-4.5-8.1
												c-1.4-2.8-2.8-5.6-4-8.4c2,2.4,3.8,4.9,5.5,7.5c1.7,2.6,3.3,5.2,4.9,7.8c1.5,2.7,3.1,5.4,4.5,8.1S465.9,153.9,467,156.8z
												"/>
											<path class="st0" d="M468.5,156c-2-2.4-3.8-4.9-5.5-7.5c-1.7-2.6-3.3-5.2-4.9-7.8c-1.5-2.7-3.1-5.4-4.5-8.1
												c-1.4-2.8-2.8-5.6-4-8.4c2,2.4,3.8,4.9,5.5,7.5c1.7,2.6,3.3,5.2,4.9,7.8c1.5,2.7,3.1,5.4,4.5,8.1
												C465.9,150.4,467.3,153.1,468.5,156z"/>
											<path class="st0" d="M469.9,155.3c-2-2.4-3.8-4.9-5.5-7.5c-1.7-2.6-3.3-5.2-4.9-7.8c-1.5-2.7-3.1-5.4-4.5-8.1
												c-1.4-2.8-2.8-5.6-4-8.4c2,2.4,3.8,4.9,5.5,7.5s3.3,5.2,4.9,7.8c1.5,2.7,3.1,5.4,4.5,8.1
												C467.4,149.6,468.7,152.4,469.9,155.3z"/>
										</g>
										<g>
											<path class="st0" d="M389.9,112.6c-10.1,1.5-20.1,3-30.2,4.5c-0.4,0.1-0.7,0.5-0.4,1c3.4,5.4,6.7,10.8,10.1,16.2
												c0.2,0.2,0.3,0.4,0.4,0.6c-4.5-5.7-9.1-11.5-13.6-17.2c-0.4-0.5-0.4-1.1-0.3-1.4c0.1-0.3,0.4-1,1.3-1.1
												C368.2,114.3,379,113.5,389.9,112.6z"/>
										</g>
										<g>
											<path class="st0" d="M435.2,114l27.7,46.2c0.3,0.6,0.3,1,0.3,1.2c-0.1,0.2-0.4,0.4-1.1,0.4c-11.9,0.3-23.9,0.5-35.8,0.8
												c4.8-0.7,9.4-1.4,14.2-2.2c-2.9-0.4-5.7-1-8.5-1.4c4.5-0.3,8.9-0.5,13.4-0.8c0,0,11-0.6,10.2-5c-0.8-4.4-4.3-9.2-4.3-9.2
												l-5.3-4l0.5-3.5c-5.5-10-9.1-15.8-11.6-19.2c-0.9-1.2-2.2-3.4-5-4.7c-1-0.4-2.2-0.6-4.4-0.9c-2.6-0.4-4.2-0.4-10.4-0.7
												c-1-0.1-1.8-0.1-2.2-0.1c4.6-0.4,9.2-0.7,13.7-1.1C429.9,109.3,433.3,111,435.2,114z"/>
										</g>
										<g>
											<path class="st0" d="M411.4,162.8l-8.6,0.2c-4.8,0.1-8.8-0.4-12.1-2.4c-1.3-0.7-2.3-1.7-4.6-4.2
												c-2.4-2.7-5.7-6.6-9.2-11.9c4,4.2,7.8,7.2,10.6,9.2c5,3.6,10,7.4,17.2,8.5C406.7,162.5,408.9,162.7,411.4,162.8z"/>
										</g>
										<g>
											<polygon class="st0" points="418.5,110.9 415.9,121.8 416.8,110.7 											"/>
										</g>
										<g>
											<path class="st0" d="M389.5,130.5c-0.3,0.8-0.9,1.5-1.8,2c-2.2,1.1-6,0.8-9.8-0.7c-5.7-2.2-9.2-6-8.4-8.9l0,0
												c0.3-0.8,0.9-1.5,1.8-2c2.2-1.1,6-0.8,9.8,0.7l0,0C386.8,123.8,390.4,127.6,389.5,130.5L389.5,130.5z M371.2,123.4
												L371.2,123.4c-0.5,1.6,2.3,4.8,7.3,6.7c3.9,1.5,7,1.4,8.4,0.8c0.4-0.3,0.8-0.5,0.9-0.9l0,0c0.5-1.6-2.3-4.8-7.3-6.7l0,0
												c-3.9-1.5-7-1.4-8.4-0.8C371.7,122.7,371.3,123,371.2,123.4z"/>
										</g>
										<g>
											<path class="st0" d="M372.4,118.1c0.5-0.2,1.1-0.4,1.6-0.4s1.1-0.2,1.6-0.3s1.2-0.1,1.7,0c0.5,0,1.2,0.1,1.7,0.1
												c2.2,0.3,4.4,0.9,6.6,1.9c1.1,0.4,2.1,1.1,3.1,1.7c1,0.6,1.9,1.4,2.7,2.3c0.2,0.3,0.4,0.4,0.6,0.7l0.3,0.4
												c0.1,0.1,0.2,0.3,0.3,0.4c0.4,0.5,0.6,1.2,0.9,1.8c0.5,1.3,0.7,2.8,0.4,4.2c-0.3,1.4-1,2.9-2.1,3.9
												c-0.5,0.5-1.1,0.9-1.7,1.3c-0.3,0.2-0.6,0.3-0.9,0.4c-0.4,0.2-0.6,0.2-1,0.4c-1.3,0.4-2.5,0.4-3.8,0.4
												c-0.6,0-1.2-0.1-1.8-0.2c-0.3-0.1-0.5-0.1-0.9-0.2c-0.3-0.1-0.5-0.1-0.8-0.2c-0.3-0.1-0.5-0.2-0.8-0.3
												c-0.3-0.1-0.5-0.2-0.8-0.3c-0.5-0.2-1.1-0.4-1.6-0.6c-0.3-0.1-0.5-0.3-0.8-0.4c-0.3-0.1-0.5-0.3-0.7-0.4
												c-0.5-0.3-1-0.5-1.4-0.9c-0.4-0.3-0.9-0.6-1.3-1s-0.9-0.7-1.3-1.1c-0.4-0.4-0.8-0.8-1.2-1.2c-0.4-0.4-0.7-0.8-1-1.3
												c1.5,1.5,3.3,2.7,5.3,3.7c1,0.4,2,0.9,3,1.3c1,0.4,2.1,0.6,3.1,0.8c1.1,0.2,2.2,0.3,3.2,0.3s2.2-0.1,3.1-0.4
												c0.3-0.1,0.5-0.2,0.7-0.3c0.3-0.1,0.4-0.2,0.7-0.4c0.4-0.3,0.9-0.6,1.3-1c0.8-0.7,1.3-1.7,1.5-2.8
												c0.2-1.1,0.1-2.2-0.4-3.1c-0.4-1-1-1.9-1.7-2.7c-0.7-0.8-1.5-1.5-2.3-2.2c-0.9-0.6-1.8-1.3-2.7-1.7c-1.9-1-4-1.8-6-2.3
												C376.7,117.9,374.5,117.8,372.4,118.1z"/>
										</g>
										<g>
											
												<ellipse transform="matrix(0.3798 -0.9251 0.9251 0.3798 128.6743 465.4208)" class="st0" cx="411.4" cy="136.7" rx="4.4" ry="9.8"/>
										</g>
										<g>
											<path class="st0" d="M421.5,140.7c-0.3,0.8-0.9,1.5-1.8,2c-2.2,1.1-6,0.8-9.8-0.7c-5.7-2.2-9.2-6-8.4-8.9l0,0
												c0.3-0.8,0.9-1.5,1.8-2c2.2-1.1,6-0.8,9.8,0.7l0,0C418.8,133.9,422.4,137.8,421.5,140.7L421.5,140.7z M403.2,133.6
												L403.2,133.6c-0.5,1.6,2.3,4.8,7.3,6.7c3.9,1.5,7,1.4,8.4,0.8c0.4-0.3,0.8-0.5,0.9-0.9l0,0c0.5-1.6-2.3-4.8-7.3-6.7l0,0
												c-3.9-1.5-7-1.4-8.4-0.8C403.6,132.8,403.3,133.2,403.2,133.6z"/>
										</g>
										<g>
											<path class="st0" d="M404.4,128.3c0.5-0.2,1.1-0.4,1.6-0.4c0.5-0.1,1.1-0.2,1.6-0.3c0.5-0.1,1.2-0.1,1.7,0
												c0.5,0,1.2,0.1,1.7,0.1c2.2,0.3,4.4,0.9,6.6,1.9c1.1,0.4,2.1,1.1,3.1,1.7c1,0.6,1.9,1.4,2.7,2.3c0.2,0.3,0.4,0.4,0.6,0.7
												l0.3,0.4c0.1,0.1,0.2,0.3,0.3,0.4c0.4,0.5,0.6,1.2,0.9,1.8c0.5,1.3,0.7,2.8,0.4,4.2c-0.3,1.4-1,2.9-2.1,3.9
												c-0.5,0.5-1.1,0.9-1.7,1.3c-0.3,0.2-0.6,0.3-0.9,0.4c-0.4,0.2-0.6,0.2-1,0.4c-1.3,0.4-2.5,0.4-3.8,0.4
												c-0.6,0-1.2-0.1-1.8-0.2c-0.3-0.1-0.5-0.1-0.9-0.2c-0.3-0.1-0.5-0.1-0.8-0.2c-0.3-0.1-0.5-0.2-0.8-0.3
												c-0.3-0.1-0.5-0.2-0.8-0.3c-0.5-0.2-1.1-0.4-1.6-0.6c-0.3-0.1-0.5-0.3-0.8-0.4c-0.3-0.1-0.5-0.3-0.7-0.4
												c-0.5-0.3-1-0.5-1.4-0.9c-0.4-0.3-0.9-0.6-1.3-1s-0.9-0.7-1.3-1.1c-0.4-0.4-0.8-0.8-1.2-1.2c-0.4-0.4-0.7-0.8-1-1.3
												c1.5,1.5,3.3,2.7,5.3,3.7c1,0.4,2,0.9,3,1.3c1,0.4,2.1,0.6,3.1,0.8s2.2,0.3,3.2,0.3s2.2-0.1,3.1-0.4
												c0.3-0.1,0.5-0.2,0.7-0.3c0.3-0.1,0.4-0.2,0.7-0.4c0.4-0.3,0.9-0.6,1.3-1c0.8-0.7,1.3-1.7,1.5-2.8
												c0.2-1.1,0.1-2.2-0.4-3.1c-0.4-1-1-1.9-1.7-2.7c-0.7-0.8-1.5-1.5-2.3-2.2c-0.9-0.6-1.8-1.3-2.7-1.7c-1.9-1-4-1.8-6-2.3
												C408.7,128.2,406.5,127.9,404.4,128.3z"/>
										</g>
										<g>
											
												<ellipse transform="matrix(0.3798 -0.9251 0.9251 0.3798 136.2733 500.5923)" class="st0" cx="441.5" cy="148.7" rx="4.4" ry="9.8"/>
										</g>
										<g>
											<path class="st0" d="M451.4,152.5c-0.3,0.8-0.9,1.5-1.8,2c-2.2,1.1-6,0.8-9.8-0.7c-5.7-2.2-9.2-6-8.4-8.9l0,0
												c0.3-0.8,0.9-1.5,1.8-2c2.2-1.1,6-0.8,9.8,0.7l0,0C448.8,145.8,452.4,149.6,451.4,152.5L451.4,152.5z M433.2,145.3
												L433.2,145.3c-0.5,1.6,2.3,4.8,7.3,6.7c3.9,1.5,7,1.4,8.4,0.8c0.4-0.3,0.8-0.5,0.9-0.9l0,0c0.5-1.6-2.3-4.8-7.3-6.7l0,0
												c-3.9-1.5-7-1.4-8.4-0.8C433.6,144.7,433.3,145,433.2,145.3z"/>
										</g>
										<g>
											<path class="st0" d="M434.3,140.1c0.5-0.2,1.1-0.4,1.6-0.4c0.5-0.1,1.1-0.2,1.6-0.3s1.2-0.1,1.7,0c0.5,0,1.2,0.1,1.7,0.1
												c2.2,0.3,4.4,0.9,6.6,1.9c1.1,0.4,2.1,1.1,3.1,1.7s1.9,1.4,2.7,2.3c0.2,0.3,0.4,0.4,0.6,0.7l0.3,0.4
												c0.1,0.1,0.2,0.3,0.3,0.4c0.4,0.5,0.6,1.2,0.9,1.8c0.5,1.3,0.7,2.8,0.4,4.2c-0.3,1.4-1,2.9-2.1,3.9
												c-0.5,0.5-1.1,0.9-1.7,1.3c-0.3,0.2-0.6,0.3-0.9,0.4c-0.4,0.2-0.6,0.2-1,0.4c-1.3,0.4-2.5,0.4-3.8,0.4
												c-0.6,0-1.2-0.1-1.8-0.2c-0.3-0.1-0.5-0.1-0.9-0.2c-0.3-0.1-0.5-0.1-0.8-0.2c-0.3-0.1-0.5-0.2-0.8-0.3
												c-0.3-0.1-0.5-0.2-0.8-0.3c-0.5-0.2-1.1-0.4-1.6-0.6c-0.3-0.1-0.5-0.3-0.8-0.4c-0.3-0.1-0.5-0.3-0.7-0.4
												c-0.5-0.3-1-0.5-1.4-0.9c-0.4-0.3-0.9-0.6-1.3-1c-0.4-0.4-0.9-0.7-1.3-1.1c-0.4-0.4-0.8-0.8-1.2-1.2
												c-0.4-0.4-0.7-0.8-1-1.3c1.5,1.5,3.3,2.7,5.3,3.7c1,0.4,2,0.9,3,1.3c1,0.4,2.1,0.6,3.1,0.8c1.1,0.2,2.2,0.3,3.2,0.3
												s2.2-0.1,3.1-0.4c0.3-0.1,0.5-0.2,0.7-0.3c0.3-0.1,0.4-0.2,0.7-0.4c0.4-0.3,0.9-0.6,1.3-1c0.8-0.7,1.3-1.7,1.5-2.8
												c0.2-1.1,0.1-2.2-0.4-3.1c-0.4-1-1-1.9-1.7-2.7c-0.7-0.8-1.5-1.5-2.3-2.2c-0.9-0.6-1.8-1.3-2.7-1.7c-1.9-1-4-1.8-6-2.3
												C438.7,139.9,436.4,139.7,434.3,140.1z"/>
										</g>
										<g>
											<polygon class="st0" points="396.5,161.4 399.1,140.4 399.2,161.6 											"/>
										</g>
										<g>
											<path class="st0" d="M394.7,160.5l3.2-28.6c0.2-1.4-1.3-2.4-2.6-1.8l-2.4,0.5c0,0-0.6,4.7-3.6,5.2
												c-3,0.5-2.4,5.7-1.6,5.9c1.4,0.2,4.2-3.5,4.2-3.5s-0.4,1.5-2,4l-1.7,14.2L394.7,160.5z"/>
										</g>
										<g>
											<path class="st0" d="M389,121.6l1.2-6.3l5.7-0.6l-2.4,16.6C392.8,127.9,391.2,124.7,389,121.6z"/>
										</g>
										<g>
											<path class="st0" d="M420.6,110.9l-4.3,18.6c0,0,4.9,1.6,7.3,5.4s1.1,3.9,1.1,3.9s3.1,0.4-2.2-8.3c0,0,2.1,1.4,3.7,3.4
												l5.2-22.5L420.6,110.9z"/>
										</g>
										<g>
											<polygon class="st0" points="433.8,114.3 429.8,133.3 436.7,127.7 438.1,119.8 											"/>
										</g>
										<g>
											<polygon class="st0" points="422.3,145.5 418.4,160.6 413.7,160.9 417.4,146.8 											"/>
										</g>
										<g class="st1">
											<g class="st2">
												<path class="st3" d="M437.6,98.3c0.2-4.6,0.6-9.1,1.1-13.6c0.4-4.5,1-9.1,1.5-13.6c0.5-4.5,1.3-9,2-13.6
													c0.7-4.5,1.5-9,2.4-13.5c-0.2,4.6-0.6,9.1-1.1,13.6c-0.4,4.5-1,9.1-1.5,13.6c-0.6,4.5-1.3,9-2,13.6
													C439.3,89.3,438.5,93.8,437.6,98.3z"/>
											</g>
											<g class="st2">
												<path class="st3" d="M444.8,40.5c-0.1-1.3-0.1-2.7,0-4c0.1-1.3,0.2-2.7,0.4-4c0.2-1.3,0.4-2.6,0.6-4
													c0.3-1.3,0.5-2.6,1-4c0.1,1.3,0.1,2.7,0,4c-0.1,1.3-0.2,2.7-0.4,4c-0.2,1.3-0.4,2.6-0.6,4
													C445.6,37.9,445.3,39.2,444.8,40.5z"/>
											</g>
											<g class="st2">
												<path class="st3" d="M356.6,107.9c5.5-0.8,11-1.3,16.6-1.9c5.6-0.5,11-1,16.6-1.4c5.6-0.4,11-0.7,16.6-1
													c5.6-0.3,11.1-0.4,16.7-0.5c-5.5,0.8-11,1.3-16.6,1.9c-5.6,0.5-11,1-16.6,1.4c-5.6,0.4-11,0.7-16.6,1
													C367.7,107.7,362.2,107.9,356.6,107.9z"/>
											</g>
										</g>
										<g class="st1">
											<polygon class="st4" points="379.8,146.8 380.4,136 382.5,136.7 381.6,149.6 											"/>
										</g>
									</g>
									<path class="st0" d="M462.4,104.5c-0.4,2.2-0.3,4.9,0.2,7.8c0.9,5.4,3.2,11,5.7,10.5c0.9-0.2,1.6-1,2-2.3
										c0.7-2.3,0.7-6,0.2-9.4c-0.4-2.9-1.3-5.6-2.2-7.5c-1.1-2.2-2.3-3.2-3.5-3C463.6,100.7,462.8,102.1,462.4,104.5z
										 M465.1,101.6c-0.1,0-0.1,0-0.2,0.1C464.9,101.7,465,101.7,465.1,101.6L465.1,101.6z"/>
									<path class="st0" d="M456.3,62.5c-1.3,1.8-1.7,6-0.8,10.9c0.9,5.5,3.4,11.1,6.1,10.9c0.5-0.1,1.1-0.4,1.4-0.9
										c0.3-0.4,0.5-0.9,0.7-1.5c0.7-2.2,0.7-5.6,0.1-9.3c-0.9-5.5-3.4-11.1-6.1-10.9C457.1,61.6,456.6,61.9,456.3,62.5z"/>
								</g>
							</g>
						</g>
					</g>
				</g>
			</g>
		</g>
	</g>
	<polygon class="st0" points="175.4,34 203.9,34 196,72.3 215.7,85.4 207.9,122.6 163.3,91.5 	"/>
	<polygon class="st0" points="268.1,34 296.6,34 288.6,72.3 308.4,85.4 300.6,122.6 256,91.5 	"/>
</g>
<g>
	<g>
		<g>
			<defs>
				<path id="SVGID_00000050639524359086499090000008643440142974376851_" d="M504.2-105.5c-1,3.1-2.8,6-5.2,8.3
					c-3.6,3.5-8.4,5.5-13.4,5.6l-68.7,1.5c-8.7,0.2-16.8-3.6-22.2-10.3l-34.8-42.8c-4.5-5.6-6.3-12.8-4.8-19.8l15.2-72.2
					c1.1-5.1,5.1-8.9,10.2-9.8l75.4-13.1c4.2-0.7,8.4-0.1,12.2,1.8c3.8,1.9,6.8,4.9,8.7,8.7l29.2,57.5c2.4,4.6,3.4,9.8,3.1,15
					l-3.9,64.8C505-108.7,504.7-107,504.2-105.5z"/>
			</defs>
			<clipPath id="SVGID_00000130619672689102248640000008285869749344899759_">
				<use xlink:href="#SVGID_00000050639524359086499090000008643440142974376851_"  style="overflow:visible;"/>
			</clipPath>
			<g style="clip-path:url(#SVGID_00000130619672689102248640000008285869749344899759_);">
				<path class="st6" d="M519.4-59.2c-53.6,3.4-107.2,6.7-160.8,10.1l99.1-112.3C478.2-127.4,498.8-93.3,519.4-59.2z"/>
				<polygon class="st7" points="352.2,-154.9 358.8,-49.1 457.9,-161.5 				"/>
				<path class="st8" d="M470.2-268.8c-4.2,35.7-8.3,71.4-12.5,107l-112.4-99.1C386.9-263.5,428.5-266.2,470.2-268.8z"/>
				<path class="st9" d="M470.2-268.8c-4.3,35.6-8.6,71.3-12.9,106.9c41.2-25.3,82.4-50.5,123.6-75.8
					C544-248.1,507.1-258.5,470.2-268.8z"/>
				<path class="st10" d="M521.1-57.8c11.2-55.6,22.5-111.1,33.7-166.7c-32.5,20.9-65,41.7-97.5,62.6
					C478.6-127.2,499.9-92.5,521.1-57.8z"/>
				<polygon class="st11" points="351.9,-155.4 457.6,-162.1 345.3,-261.1 				"/>
			</g>
		</g>
	</g>
	<g>
		<g>
			<g>
				<g>
					<path class="st0" d="M227.9-241.2h31.9L229.1-96.6l-25.9-28.6L227.9-241.2z"/>
					<path class="st0" d="M331-241.2h31.9L332.2-96.6l-25.9-28.6L331-241.2z"/>
				</g>
			</g>
			<g>
				<g>
					<g>
						<g>
							<g>
								<g>
									<g>
										<g>
											
												<ellipse transform="matrix(0.3798 -0.9251 0.9251 0.3798 369.4962 278.5634)" class="st0" cx="392.5" cy="-136.3" rx="4.9" ry="10.9"/>
										</g>
										<g>
											<path class="st0" d="M504.2-105.5c-1,3.1-2.8,6-5.2,8.3c-3.6,3.5-8.4,5.5-13.4,5.6l-68.7,1.5
												c-8.7,0.2-16.8-3.6-22.2-10.3l-34.8-42.8c-4.5-5.6-6.3-12.8-4.8-19.8l15.2-72.2c1.1-5.1,5.1-8.9,10.2-9.8l75.4-13.1
												c4.2-0.7,8.4-0.1,12.2,1.8c3.8,1.9,6.8,4.9,8.7,8.7l29.2,57.5c2.4,4.6,3.4,9.8,3.1,15l-3.9,64.8
												C505-108.7,504.7-107,504.2-105.5z M356.5-162.6l1.5,0.3c-1.3,6.1,0.2,12.4,4.2,17.3l34.8,42.8c4.9,6,12.1,9.3,19.8,9.2
												l68.7-1.5c8.8-0.2,16.1-7.2,16.6-16l3.9-64.8c0.3-4.7-0.7-9.3-2.8-13.5L474-246.3c-3.3-6.6-10.5-10.1-17.7-8.9L380.9-242
												c-3.9,0.7-7,3.6-7.8,7.5l-15.2,72.2L356.5-162.6z"/>
										</g>
										<g>
											<path class="st0" d="M491-95.7c-0.1,0.4-0.3,0.7-0.5,1c-1.1,1.9-3.3,2.6-5,2.7l-67.3,1.5c-8,0.1-16.3-1-22.7-9.4
												l-33.7-43.9c-1.4-1.9-1.7-4.3-0.8-6.4c1-2.2,2.9-3.6,5.3-3.7l78.3-6.3c5.7-0.5,11.1,2.3,14.1,7.3l31.6,52.5l0,0
												C491.4-98.4,491.4-96.9,491-95.7z M362.8-149c-0.4,1.3-0.2,2.8,0.7,3.9l33.7,43.9c5.5,7.2,12.4,8.7,21,8.6l67.2-1.5
												c1.1,0,2.6-0.5,3.3-1.7c0.6-1,0.5-2.3-0.2-3.8L457.1-152c-2.6-4.3-7.3-6.7-12.2-6.3l-78.3,6.3c-1.6,0.1-3,1.1-3.6,2.6
												C362.9-149.3,362.9-149.2,362.8-149z"/>
										</g>
										<g>
											<path class="st0" d="M504-106.4c-0.6,1.9-2.1,3.3-4.1,3.7c-2.5,0.6-4.9-0.4-6.2-2.7l-30.2-51.5
												c-2.3-3.9-3.2-8.4-2.6-12.9l9.5-76.4c0.2-1.2,1.3-2.3,2.7-2.5c1.4-0.3,2.6,0.3,3.2,1.3c7.4,14.2,28,55.2,29.9,58.9
												c2,4,2.3,9.3,2.4,9.5v0.1l-4.3,70.9C504.2-107.3,504.1-106.8,504-106.4z M472.4-245.9l-9.5,76.4c-0.5,4,0.3,8.1,2.4,11.6
												l30.1,51.6c1,1.7,2.7,2,4,1.7s2.7-1.3,2.8-3.4l4.3-70.9c0-0.6-0.5-5.3-2.1-8.7c-1.8-3.7-22.4-44.7-29.8-58.9
												c-0.1-0.3-0.6-0.3-1-0.3C472.9-246.6,472.4-246.2,472.4-245.9L472.4-245.9z"/>
										</g>
										<g>
											<g>
												<path class="st0" d="M454.2-171.8c-1.1,3.4-4.2,5.9-7.8,6.2l-82.6,6c-2.1,0.2-4.2-0.7-5.6-2.3c-1.4-1.6-2-3.8-1.5-5.9
													l14.8-67.6c1.1-4.8,4.9-8.5,9.8-9.3l76.2-12.6c2-0.3,4,0.3,5.5,1.7s2.2,3.4,1.9,5.4l-10.4,76.9
													C454.5-172.8,454.4-172.3,454.2-171.8z M373.7-235.9c-0.1,0.3-0.2,0.6-0.2,0.9l-14.7,67.6c-0.3,1.5,0.1,3,1.1,4.1
													c1,1.1,2.4,1.7,3.9,1.6l82.6-6c3.2-0.2,5.9-2.7,6.3-5.9l10.4-76.8c0.2-1.4-0.3-2.8-1.3-3.7c-1-1-2.4-1.4-3.8-1.2
													l-76.3,12.6C377.8-242.1,374.8-239.5,373.7-235.9z"/>
											</g>
											<g>
												<g>
													
														<ellipse transform="matrix(0.5746 -0.8184 0.8184 0.5746 350.4986 223.6486)" class="st0" cx="390.4" cy="-225.3" rx="10.2" ry="6.9"/>
												</g>
												<g>
													<path class="st0" d="M399.7-233.9c0.6,0.5,1.2,1.1,1.6,1.8s0.7,1.5,0.9,2.3c0.2,0.8,0.3,1.6,0.3,2.5
														c0,0.8,0,1.7-0.2,2.5c-0.1,0.4-0.1,0.8-0.2,1.2c0,0.2-0.1,0.4-0.2,0.6s-0.1,0.4-0.2,0.6l-0.2,0.6
														c-0.1,0.2-0.2,0.4-0.2,0.6c-0.1,0.2-0.2,0.4-0.3,0.6l-0.3,0.6c-0.1,0.2-0.2,0.4-0.3,0.6l-0.3,0.5
														c-0.2,0.4-0.4,0.7-0.7,1.1c-0.5,0.7-1,1.3-1.6,1.9c-0.6,0.6-1.2,1.2-1.9,1.7c-0.7,0.5-1.4,1-2.2,1.4
														c-0.8,0.4-1.6,0.8-2.4,1c-0.2,0.1-0.4,0.1-0.6,0.2c-0.2,0.1-0.4,0.1-0.7,0.1c-0.4,0.1-0.9,0.1-1.3,0.2
														c-0.2,0-0.5,0-0.7,0s-0.5,0-0.7,0c-0.5,0-0.9-0.1-1.4-0.2c-0.9-0.2-1.8-0.6-2.5-1.1s-1.4-1.2-1.8-1.9
														c-0.5-0.7-0.7-1.5-0.8-2.3c0.3,0.7,0.8,1.3,1.3,1.8s1.2,0.9,1.8,1.2c1.4,0.6,2.9,0.7,4.3,0.4s2.8-0.8,4.1-1.6
														c1.3-0.8,2.4-1.7,3.4-2.8c0.5-0.5,1-1.1,1.4-1.7c0.2-0.3,0.4-0.6,0.6-0.9l0.3-0.5c0.1-0.2,0.2-0.3,0.3-0.5
														c0.7-1.3,1.3-2.6,1.7-4c0.1-0.3,0.2-0.7,0.3-1.1c0.1-0.4,0.1-0.7,0.2-1.1c0.1-0.7,0.1-1.5,0.1-2.2
														c0-0.7-0.1-1.5-0.3-2.2C400.4-232.6,400.1-233.3,399.7-233.9z"/>
												</g>
											</g>
											<g>
												<g>
													
														<ellipse transform="matrix(0.5746 -0.8184 0.8184 0.5746 377.3879 260.2469)" class="st0" cx="439" cy="-232.9" rx="10.2" ry="6.9"/>
												</g>
												<g>
													<path class="st0" d="M432.7-240.5c1.5-2.4,3.8-4.4,6.7-5.5c1.5-0.5,3.1-0.8,4.8-0.6c1.7,0.2,3.4,0.9,4.7,2.1
														c0.7,0.6,1.3,1.2,1.8,2c0.5,0.7,0.9,1.5,1.2,2.3c0.6,1.6,0.8,3.3,0.8,5c0,0.8-0.1,1.6-0.3,2.4
														c-0.2,0.8-0.4,1.6-0.6,2.3c-0.5,1.5-1.2,3-2.1,4.3c-0.9,1.3-1.9,2.5-3.1,3.6c-1.2,1.1-2.5,2-4,2.7s-3.1,1.2-4.8,1.4
														c-0.8,0.1-1.7,0.1-2.6,0c-0.9-0.1-1.7-0.3-2.5-0.6c-1.6-0.7-3.1-1.8-4.1-3.2c-0.1-0.2-0.2-0.4-0.4-0.5l-0.3-0.6
														l-0.1-0.3l-0.1-0.3c-0.1-0.2-0.2-0.4-0.2-0.6c-0.1-0.2-0.1-0.4-0.2-0.6s-0.1-0.4-0.2-0.6c-0.1-0.4-0.2-0.8-0.2-1.2
														v-0.6c0-0.2,0-0.4,0-0.6c0-0.4,0-0.8,0.1-1.1c0.1-0.8,0.2-1.5,0.4-2.2c0.1-0.4,0.2-0.7,0.3-1c0.1-0.3,0.3-0.7,0.4-1
														l0.5-0.9c0.2-0.3,0.4-0.6,0.6-0.9c-0.5,1.3-0.9,2.6-1.1,4c-0.2,1.4-0.1,2.8,0.1,4.1c0.1,0.3,0.2,0.7,0.3,1
														c0,0.2,0.1,0.3,0.2,0.5s0.1,0.3,0.2,0.5l0.2,0.5l0.1,0.2l0.1,0.2l0.3,0.4c0.1,0.1,0.2,0.3,0.3,0.4
														c0.9,1.1,2,1.9,3.4,2.3c1.3,0.4,2.7,0.5,4.1,0.3s2.7-0.7,3.9-1.3c2.4-1.3,4.5-3.3,6-5.6c1.5-2.3,2.5-5,2.7-7.7
														c0.1-1.4,0-2.8-0.5-4.1c-0.4-1.3-1.1-2.5-2.1-3.5s-2.3-1.6-3.6-1.9c-1.3-0.3-2.8-0.2-4.1,0.1
														C437-244,434.6-242.4,432.7-240.5z"/>
												</g>
											</g>
											<g>
												<g>
													
														<ellipse transform="matrix(0.5746 -0.8184 0.8184 0.5746 336.4576 273.8022)" class="st0" cx="431.6" cy="-186.8" rx="10.2" ry="6.9"/>
												</g>
												<g>
													<path class="st0" d="M440.9-195.3c0.6,0.5,1.2,1.1,1.6,1.8c0.4,0.7,0.7,1.5,0.9,2.3c0.2,0.8,0.3,1.6,0.3,2.5
														c0,0.8,0,1.7-0.2,2.5c-0.1,0.4-0.1,0.8-0.2,1.2c0,0.2-0.1,0.4-0.2,0.6s-0.1,0.4-0.2,0.6l-0.2,0.6
														c-0.1,0.2-0.2,0.4-0.2,0.6c-0.1,0.2-0.2,0.4-0.3,0.6l-0.3,0.6c-0.1,0.2-0.2,0.4-0.3,0.6l-0.3,0.5
														c-0.2,0.4-0.4,0.7-0.7,1.1c-0.5,0.7-1,1.3-1.6,1.9c-0.6,0.6-1.2,1.2-1.9,1.7c-0.7,0.5-1.4,1-2.2,1.4
														c-0.8,0.4-1.6,0.8-2.4,1c-0.2,0.1-0.4,0.1-0.6,0.2c-0.2,0.1-0.4,0.1-0.7,0.1c-0.4,0.1-0.9,0.1-1.3,0.2
														c-0.2,0-0.5,0-0.7,0s-0.5,0-0.7,0c-0.5,0-0.9-0.1-1.4-0.2c-0.9-0.2-1.8-0.6-2.5-1.1s-1.4-1.2-1.8-1.9
														c-0.5-0.7-0.7-1.5-0.8-2.3c0.3,0.7,0.8,1.3,1.3,1.8s1.2,0.9,1.8,1.2c1.4,0.6,2.9,0.7,4.3,0.4c1.4-0.3,2.8-0.8,4.1-1.6
														c1.3-0.8,2.4-1.7,3.4-2.8c0.5-0.5,1-1.1,1.4-1.7c0.2-0.3,0.4-0.6,0.6-0.9l0.3-0.5c0.1-0.2,0.2-0.3,0.3-0.5
														c0.7-1.3,1.3-2.6,1.7-4c0.1-0.3,0.2-0.7,0.3-1.1c0.1-0.4,0.1-0.7,0.2-1.1c0.1-0.7,0.1-1.5,0.1-2.2s-0.1-1.5-0.3-2.2
														C441.6-194,441.3-194.7,440.9-195.3z"/>
												</g>
											</g>
											<g>
												<g>
													
														<ellipse transform="matrix(0.5746 -0.8184 0.8184 0.5746 311.0303 236.2821)" class="st0" cx="382.8" cy="-181.1" rx="10.2" ry="6.9"/>
												</g>
												<g>
													<path class="st0" d="M392.1-189.6c0.6,0.5,1.2,1.1,1.6,1.8s0.7,1.5,0.9,2.3c0.2,0.8,0.3,1.6,0.3,2.5
														c0,0.8,0,1.7-0.2,2.5c-0.1,0.4-0.1,0.8-0.2,1.2c0,0.2-0.1,0.4-0.2,0.6s-0.1,0.4-0.2,0.6l-0.2,0.6
														c-0.1,0.2-0.2,0.4-0.2,0.6c-0.1,0.2-0.2,0.4-0.3,0.6l-0.3,0.6c-0.1,0.2-0.2,0.4-0.3,0.6l-0.3,0.5
														c-0.2,0.4-0.4,0.7-0.7,1.1c-0.5,0.7-1,1.3-1.6,1.9c-0.6,0.6-1.2,1.2-1.9,1.7c-0.7,0.5-1.4,1-2.2,1.4
														c-0.8,0.4-1.6,0.8-2.4,1c-0.2,0.1-0.4,0.1-0.6,0.2c-0.2,0.1-0.4,0.1-0.7,0.1c-0.4,0.1-0.9,0.1-1.3,0.2
														c-0.2,0-0.5,0-0.7,0c-0.2,0-0.5,0-0.7,0c-0.5,0-0.9-0.1-1.4-0.2c-0.9-0.2-1.8-0.6-2.5-1.1c-0.7-0.5-1.4-1.2-1.8-1.9
														c-0.5-0.7-0.7-1.5-0.8-2.3c0.3,0.7,0.8,1.3,1.3,1.8s1.2,0.9,1.8,1.2c1.4,0.6,2.9,0.7,4.3,0.4s2.8-0.8,4.1-1.6
														c1.3-0.8,2.4-1.7,3.4-2.8c0.5-0.5,1-1.1,1.4-1.7c0.2-0.3,0.4-0.6,0.6-0.9l0.3-0.5c0.1-0.2,0.2-0.3,0.3-0.5
														c0.7-1.3,1.3-2.6,1.7-4c0.1-0.3,0.2-0.7,0.3-1.1c0.1-0.4,0.1-0.7,0.2-1.1c0.1-0.7,0.1-1.5,0.1-2.2s-0.1-1.5-0.3-2.2
														C392.8-188.3,392.5-189,392.1-189.6z"/>
												</g>
											</g>
											<g>
												<g>
													
														<ellipse transform="matrix(0.5746 -0.8184 0.8184 0.5746 342.3799 248.2769)" class="st0" cx="410" cy="-205.2" rx="10.2" ry="6.9"/>
												</g>
												<g>
													<path class="st0" d="M413.8-217.8c0.4-0.1,0.9-0.2,1.3-0.2s0.9,0,1.4,0c0.9,0.1,1.8,0.4,2.7,0.9
														c0.8,0.5,1.6,1.1,2.3,1.9c0.2,0.2,0.3,0.4,0.5,0.6c0.1,0.2,0.3,0.4,0.4,0.6s0.3,0.4,0.4,0.7c0.1,0.2,0.2,0.5,0.3,0.7
														c0.2,0.5,0.3,0.9,0.5,1.4c0.1,0.2,0.1,0.5,0.2,0.7c0,0.2,0.1,0.5,0.1,0.7c0.1,1,0.2,2,0.1,2.9c-0.1,1-0.2,1.9-0.5,2.8
														c-0.2,0.9-0.6,1.8-1,2.7c-0.4,0.9-0.9,1.7-1.4,2.5c-0.1,0.2-0.3,0.4-0.4,0.6s-0.3,0.4-0.4,0.6l-0.4,0.5
														c-0.1,0.1-0.1,0.2-0.2,0.3l-0.2,0.3c-0.3,0.3-0.6,0.7-1,1c-0.2,0.2-0.3,0.3-0.5,0.5s-0.4,0.3-0.6,0.4l-0.6,0.4
														c-0.2,0.1-0.4,0.3-0.6,0.4c-0.2,0.1-0.4,0.3-0.6,0.4l-0.6,0.3c-0.8,0.4-1.7,0.8-2.6,1.1c-0.9,0.2-1.8,0.4-2.8,0.5
														c-0.5,0-0.9,0-1.4,0c-0.2,0-0.5-0.1-0.7-0.1s-0.4-0.1-0.7-0.1l-0.7-0.2c-0.2-0.1-0.4-0.2-0.6-0.2l-0.3-0.1
														c-0.1,0-0.2-0.1-0.3-0.2c-0.2-0.1-0.4-0.2-0.6-0.4c1.6,0.4,3.3,0.4,4.9,0c0.8-0.2,1.6-0.5,2.3-0.8
														c0.4-0.2,0.7-0.4,1.1-0.6c0.3-0.2,0.7-0.4,1-0.6c1.4-0.9,2.6-2,3.6-3.3c1-1.3,1.9-2.7,2.6-4.2s1.1-3.1,1.3-4.7
														c0.2-1.6,0.1-3.3-0.4-4.9c-0.2-0.8-0.6-1.5-1-2.2c-0.4-0.7-1-1.3-1.6-1.8s-1.3-0.9-2.1-1.2
														C415.4-217.6,414.6-217.7,413.8-217.8z"/>
												</g>
											</g>
											<g>
												<path class="st0" d="M375.5-165.8l-12.1,0.9c-0.6,0-1-0.3-1.2-0.5c-0.2-0.2-0.5-0.7-0.3-1.3l3.4-15.6
													c-0.2,1-2.1,13.4-1.1,15C365.2-165.7,374.9-165.7,375.5-165.8z"/>
											</g>
											<g>
												<path class="st0" d="M400.6-242.6c-0.6,0.1-19.1,4.8-21.1,8.7c-2.1,3.9-8.3,24.2-8.3,24.2l5.4-24.6
													c0-0.2,0.1-0.4,0.2-0.6c0.8-2.4,2.8-4.2,5.4-4.6L400.6-242.6z"/>
											</g>
											<g>
												<polygon class="st0" points="411.4,-238.2 401.5,-230.1 401.9,-227.1 												"/>
											</g>
											<g>
												<path class="st0" d="M385.4-212.9c0,0-4.7,4-6.4,5.4c-1.7,1.4,0.1,3,1.1,2.7l-8,7.6l-2.8,12.8c0,0,21.2-20.1,23.1-21.8
													c1.9-1.7,0.2-3.6-0.5-3.6l5.2-5.4l-7.3,2.7L385.4-212.9z"/>
											</g>
											<g>
												<path class="st0" d="M423-209.2l11-10.9c0,0-4.9-1.6-5.6-4.9l-8.8,8.8C419.6-216.2,422.4-213.3,423-209.2z"/>
											</g>
											<g>
												<path class="st0" d="M453.6-205.6c-1.4,10.5-2.8,21-4.3,31.6c0,0.2-0.1,0.4-0.1,0.6c-0.4,1.4-1.7,2.4-3.2,2.5l-35.1,2.6
													l17.7-3.1l-9.5-0.6l10.4-2c0,0,6.9-0.9,9.5-4.7c2.6-3.8,4.2-10.5,4.2-10.5s0.9,0.9,0.3,4.1s-2.5,8-2.5,8
													s5.4-3.8,4.8-13.7c1.1-2,2.3-4,3.4-6.1C450.7-199.8,452.1-202.7,453.6-205.6z"/>
											</g>
											<g>
												<path class="st0" d="M459.4-251.8c0.2,0.2,0.4,0.5,0.3,1l-4.5,33.6l-0.2-7.3l-12.3,14.2l-0.9-3l-16.3,15.1l20-22.9
													l0.8,2.3c0,0,6-6.3,5.2-15.1c0,0,0.5-7.8-4.5-10.6c-5-2.7-17.7,1.1-18.1,1.2l6.1-3l-17.2,0.9l40.6-6.7
													C458.9-252.2,459.2-252,459.4-251.8z"/>
											</g>
											<g>
												<polygon class="st0" points="390.7,-166.9 398.6,-169.4 418.6,-189.5 401.5,-169 406.4,-168 												"/>
											</g>
										</g>
										<g>
											<g>
												<path class="st0" d="M484.1-209c1.1,0.7,2,1.6,2.7,2.6c0.8,1,1.4,2.1,2,3.2c1.1,2.3,1.7,4.8,2,7.3s0.2,5.1-0.4,7.5
													c-0.3,1.2-0.7,2.4-1.3,3.6c-0.3,0.6-0.6,1.1-1.1,1.6c-0.2,0.2-0.4,0.5-0.7,0.7c-0.2,0.2-0.5,0.4-0.8,0.5
													c0.9-0.8,1.4-2,1.8-3.1c0.4-1.1,0.7-2.3,0.8-3.5c0.3-2.4,0.3-4.8,0.1-7.2c-0.3-2.4-0.8-4.8-1.6-7
													C486.8-205.1,485.7-207.2,484.1-209z"/>
											</g>
										</g>
										<g>
											<path class="st0" d="M490.4-167.6c0.3,0.2,0.7,0.4,1,0.6c0.2,0.1,0.3,0.2,0.5,0.4c0.1,0.1,0.3,0.2,0.4,0.4
												c0.1,0.1,0.3,0.3,0.4,0.4c0.1,0.1,0.3,0.3,0.4,0.4c0.3,0.3,0.5,0.6,0.8,0.9c0.9,1.3,1.7,2.7,2.3,4.1c1.3,2.9,2,6,2.2,9.1
												c0,0.8,0.1,1.6,0.1,2.4s-0.1,1.6-0.2,2.4c-0.2,1.6-0.5,3.2-1.2,4.7c-0.3,0.8-0.7,1.5-1.2,2.2c-0.3,0.3-0.5,0.7-0.9,1
												c-0.3,0.3-0.7,0.6-1.1,0.8c-0.8,0.4-1.8,0.6-2.6,0.4c-0.4-0.1-0.8-0.3-1.1-0.5c-0.3-0.2-0.6-0.5-0.9-0.8
												c0.6,0.4,1.3,0.7,2.1,0.8c0.2,0,0.4,0,0.6,0s0.4-0.1,0.6-0.1c0.4-0.1,0.7-0.3,1-0.5c0.6-0.4,1.1-1,1.5-1.7
												c0.4-0.6,0.7-1.3,0.9-2.1c0.5-1.4,0.7-2.9,0.9-4.4c0.1-1.5,0.1-3,0-4.5c-0.2-3-0.8-6-1.8-8.8c-0.5-1.4-1.1-2.8-1.8-4.1
												C492.5-165.4,491.6-166.7,490.4-167.6z"/>
										</g>
										<g>
											<path class="st0" d="M499.2-139.9l-1.6,26.1c0,0.1,0,0.1,0,0.2c-0.1,0.2-0.4,0.2-0.4,0.2c-0.2,0-0.3-0.1-0.4-0.2
												L483.2-137l12.6,17.3L499.2-139.9z"/>
										</g>
										<g>
											<path class="st0" d="M468.6-177.8c0.6,3.8,1.4,9.8,1.7,12.1c0.4,3.4,8.8,21.4,8.9,21.7l-9.6-16.5c-1.7-2.9-2.4-6.3-2-9.6
												L468.6-177.8z"/>
										</g>
										<g>
											<path class="st0" d="M477.3-230.5c2.5,5,5.5,10.8,8.5,16.8l-8.1-10.7l-5.4,21.3l3.4-27
												C475.8-231,476.9-231.2,477.3-230.5z"/>
										</g>
										<g>
											<path class="st0" d="M490-102.6c-2.2-2.7-4.2-5.5-6.1-8.4s-3.7-5.8-5.5-8.7c-1.7-3-3.4-6-5-9c-1.6-3.1-3.1-6.2-4.4-9.4
												c2.2,2.7,4.2,5.5,6.1,8.4c1.9,2.9,3.7,5.8,5.5,8.7c1.7,3,3.4,6,5,9S488.7-105.9,490-102.6z"/>
											<path class="st0" d="M491.6-103.5c-2.2-2.7-4.2-5.5-6.1-8.4s-3.7-5.8-5.5-8.7c-1.7-3-3.4-6-5-9c-1.6-3.1-3.1-6.2-4.4-9.4
												c2.2,2.7,4.2,5.5,6.1,8.4c1.9,2.9,3.7,5.8,5.5,8.7c1.7,3,3.4,6,5,9C488.8-109.8,490.3-106.7,491.6-103.5z"/>
											<path class="st0" d="M493.2-104.3c-2.2-2.7-4.2-5.5-6.1-8.4s-3.7-5.8-5.5-8.7c-1.7-3-3.4-6-5-9c-1.6-3.1-3.1-6.2-4.4-9.4
												c2.2,2.7,4.2,5.5,6.1,8.4c1.9,2.9,3.7,5.8,5.5,8.7c1.7,3,3.4,6,5,9C490.4-110.6,491.9-107.5,493.2-104.3z"/>
										</g>
										<g>
											<path class="st0" d="M404.1-151.8c-11.2,1.7-22.4,3.3-33.6,5c-0.5,0.1-0.8,0.6-0.5,1.1c3.8,6,7.5,12,11.3,18
												c0.2,0.2,0.3,0.5,0.5,0.7c-5-6.4-10.1-12.8-15.1-19.2c-0.5-0.6-0.4-1.2-0.3-1.6c0.1-0.3,0.4-1.1,1.5-1.2
												C379.9-150,392-150.9,404.1-151.8z"/>
										</g>
										<g>
											<path class="st0" d="M454.5-150.3l30.9,51.4c0.3,0.7,0.3,1.1,0.3,1.3c-0.1,0.2-0.5,0.5-1.2,0.5
												c-13.3,0.3-26.6,0.6-39.9,0.9c5.3-0.8,10.5-1.6,15.8-2.5c-3.2-0.5-6.3-1.1-9.5-1.6c5-0.3,9.9-0.6,14.9-0.9
												c0,0,12.3-0.7,11.4-5.6c-0.9-4.9-4.8-10.2-4.8-10.2l-5.9-4.4l0.6-3.9c-6.1-11.1-10.1-17.6-12.9-21.4
												c-1-1.3-2.5-3.8-5.6-5.2c-1.1-0.5-2.4-0.7-4.9-1c-2.9-0.4-4.7-0.4-11.6-0.8c-1.1-0.1-2-0.1-2.5-0.1
												c5.1-0.4,10.2-0.8,15.3-1.2C448.7-155.5,452.4-153.6,454.5-150.3z"/>
										</g>
										<g>
											<path class="st0" d="M428-95.9l-9.6,0.2c-5.4,0.1-9.8-0.5-13.5-2.7c-1.4-0.8-2.6-1.9-5.1-4.7c-2.7-3-6.3-7.4-10.2-13.3
												c4.5,4.7,8.7,8,11.8,10.3c5.6,4,11.1,8.2,19.2,9.5C422.8-96.3,425.3-96,428-95.9z"/>
										</g>
										<g>
											<polygon class="st0" points="436,-153.7 433.1,-141.6 434.1,-154 											"/>
										</g>
										<g>
											<path class="st0" d="M403.7-131.9c-0.3,0.9-1,1.7-2,2.2c-2.5,1.2-6.7,0.9-10.9-0.8c-6.3-2.5-10.3-6.7-9.3-9.9l0,0
												c0.3-0.9,1-1.7,2-2.2c2.5-1.2,6.7-0.9,10.9,0.8l0,0C400.7-139.4,404.7-135.1,403.7-131.9L403.7-131.9z M383.3-139.8
												L383.3-139.8c-0.6,1.8,2.6,5.3,8.1,7.5c4.3,1.7,7.8,1.6,9.4,0.9c0.5-0.3,0.9-0.6,1-1l0,0c0.6-1.8-2.6-5.3-8.1-7.5l0,0
												c-4.3-1.7-7.8-1.6-9.4-0.9C383.8-140.6,383.4-140.3,383.3-139.8z"/>
										</g>
										<g>
											<path class="st0" d="M384.6-145.7c0.6-0.2,1.2-0.4,1.8-0.5c0.6-0.1,1.2-0.2,1.8-0.3c0.6-0.1,1.3-0.1,1.9,0
												c0.6,0,1.3,0.1,1.9,0.1c2.5,0.3,4.9,1,7.3,2.1c1.2,0.5,2.3,1.2,3.4,1.9c1.1,0.7,2.1,1.6,3,2.6c0.2,0.3,0.5,0.5,0.7,0.8
												l0.3,0.4c0.1,0.1,0.2,0.3,0.3,0.5c0.4,0.6,0.7,1.3,1,2c0.6,1.4,0.8,3.1,0.5,4.7c-0.3,1.6-1.1,3.2-2.3,4.3
												c-0.6,0.6-1.2,1-1.9,1.4c-0.3,0.2-0.7,0.3-1,0.5c-0.4,0.2-0.7,0.2-1.1,0.4c-1.4,0.4-2.8,0.5-4.2,0.4
												c-0.7,0-1.3-0.1-2-0.2c-0.3-0.1-0.6-0.1-1-0.2c-0.3-0.1-0.6-0.1-0.9-0.2c-0.3-0.1-0.6-0.2-0.9-0.3s-0.6-0.2-0.9-0.3
												c-0.6-0.2-1.2-0.4-1.8-0.7c-0.3-0.1-0.6-0.3-0.9-0.4c-0.3-0.1-0.6-0.3-0.8-0.4c-0.6-0.3-1.1-0.6-1.6-1
												c-0.5-0.3-1-0.7-1.5-1.1c-0.5-0.4-1-0.8-1.4-1.2c-0.5-0.4-0.9-0.9-1.3-1.3c-0.4-0.5-0.8-0.9-1.1-1.5
												c1.7,1.7,3.7,3,5.9,4.1c1.1,0.5,2.2,1,3.3,1.4c1.1,0.4,2.3,0.7,3.5,0.9s2.4,0.3,3.6,0.3s2.4-0.1,3.5-0.5
												c0.3-0.1,0.6-0.2,0.8-0.3c0.3-0.1,0.5-0.2,0.8-0.4c0.5-0.3,1-0.7,1.4-1.1c0.9-0.8,1.4-1.9,1.7-3.1
												c0.2-1.2,0.1-2.4-0.4-3.5c-0.4-1.1-1.1-2.1-1.9-3c-0.8-0.9-1.7-1.7-2.6-2.4c-1-0.7-2-1.4-3-1.9c-2.1-1.1-4.4-2-6.7-2.6
												C389.4-145.9,387-146.1,384.6-145.7z"/>
										</g>
										<g>
											
												<ellipse transform="matrix(0.3798 -0.9251 0.9251 0.3798 381.1333 318.4831)" class="st0" cx="428.1" cy="-125" rx="4.9" ry="10.9"/>
										</g>
										<g>
											<path class="st0" d="M439.3-120.6c-0.3,0.9-1,1.7-2,2.2c-2.5,1.2-6.7,0.9-10.9-0.8c-6.3-2.5-10.3-6.7-9.3-9.9l0,0
												c0.3-0.9,1-1.7,2-2.2c2.5-1.2,6.7-0.9,10.9,0.8l0,0C436.3-128.1,440.3-123.8,439.3-120.6L439.3-120.6z M418.9-128.5
												L418.9-128.5c-0.6,1.8,2.6,5.3,8.1,7.5c4.3,1.7,7.8,1.6,9.4,0.9c0.5-0.3,0.9-0.6,1-1l0,0c0.6-1.8-2.6-5.3-8.1-7.5l0,0
												c-4.3-1.7-7.8-1.6-9.4-0.9C419.4-129.3,419-128.9,418.9-128.5z"/>
										</g>
										<g>
											<path class="st0" d="M420.2-134.4c0.6-0.2,1.2-0.4,1.8-0.5c0.6-0.1,1.2-0.2,1.8-0.3c0.6-0.1,1.3-0.1,1.9,0
												c0.6,0,1.3,0.1,1.9,0.1c2.5,0.3,4.9,1,7.3,2.1c1.2,0.5,2.3,1.2,3.4,1.9c1.1,0.7,2.1,1.6,3,2.6c0.2,0.3,0.5,0.5,0.7,0.8
												l0.3,0.4c0.1,0.1,0.2,0.3,0.3,0.5c0.4,0.6,0.7,1.3,1,2c0.6,1.4,0.8,3.1,0.5,4.7c-0.3,1.6-1.1,3.2-2.3,4.3
												c-0.6,0.6-1.2,1-1.9,1.4c-0.3,0.2-0.7,0.3-1,0.5c-0.4,0.2-0.7,0.2-1.1,0.4c-1.4,0.4-2.8,0.5-4.2,0.4
												c-0.7,0-1.3-0.1-2-0.2c-0.3-0.1-0.6-0.1-1-0.2c-0.3-0.1-0.6-0.1-0.9-0.2c-0.3-0.1-0.6-0.2-0.9-0.3s-0.6-0.2-0.9-0.3
												c-0.6-0.2-1.2-0.4-1.8-0.7c-0.3-0.1-0.6-0.3-0.9-0.4c-0.3-0.1-0.6-0.3-0.8-0.4c-0.6-0.3-1.1-0.6-1.6-1
												c-0.5-0.3-1-0.7-1.5-1.1c-0.5-0.4-1-0.8-1.4-1.2c-0.5-0.4-0.9-0.9-1.3-1.3c-0.4-0.5-0.8-0.9-1.1-1.5
												c1.7,1.7,3.7,3,5.9,4.1c1.1,0.5,2.2,1,3.3,1.4c1.1,0.4,2.3,0.7,3.5,0.9s2.4,0.3,3.6,0.3s2.4-0.1,3.5-0.5
												c0.3-0.1,0.6-0.2,0.8-0.3c0.3-0.1,0.5-0.2,0.8-0.4c0.5-0.3,1-0.7,1.4-1.1c0.9-0.8,1.4-1.9,1.7-3.1
												c0.2-1.2,0.1-2.4-0.4-3.5c-0.4-1.1-1.1-2.1-1.9-3c-0.8-0.9-1.7-1.7-2.6-2.4c-1-0.7-2-1.4-3-1.9c-2.1-1.1-4.4-2-6.7-2.6
												C425-134.5,422.6-134.8,420.2-134.4z"/>
										</g>
										<g>
											
												<ellipse transform="matrix(0.3798 -0.9251 0.9251 0.3798 389.5964 357.654)" class="st0" cx="461.5" cy="-111.7" rx="4.9" ry="10.9"/>
										</g>
										<g>
											<path class="st0" d="M472.6-107.4c-0.3,0.9-1,1.7-2,2.2c-2.5,1.2-6.7,0.9-10.9-0.8c-6.3-2.5-10.3-6.7-9.3-9.9l0,0
												c0.3-0.9,1-1.7,2-2.2c2.5-1.2,6.7-0.9,10.9,0.8l0,0C469.7-114.9,473.7-110.6,472.6-107.4L472.6-107.4z M452.3-115.4
												L452.3-115.4c-0.6,1.8,2.6,5.3,8.1,7.5c4.3,1.7,7.8,1.6,9.4,0.9c0.5-0.3,0.9-0.6,1-1l0,0c0.6-1.8-2.6-5.3-8.1-7.5l0,0
												c-4.3-1.7-7.8-1.6-9.4-0.9C452.8-116.1,452.4-115.8,452.3-115.4z"/>
										</g>
										<g>
											<path class="st0" d="M453.6-121.2c0.6-0.2,1.2-0.4,1.8-0.5c0.6-0.1,1.2-0.2,1.8-0.3c0.6-0.1,1.3-0.1,1.9,0
												c0.6,0,1.3,0.1,1.9,0.1c2.5,0.3,4.9,1,7.3,2.1c1.2,0.5,2.3,1.2,3.4,1.9s2.1,1.6,3,2.6c0.2,0.3,0.5,0.5,0.7,0.8l0.3,0.4
												c0.1,0.1,0.2,0.3,0.3,0.5c0.4,0.6,0.7,1.3,1,2c0.6,1.4,0.8,3.1,0.5,4.7c-0.3,1.6-1.1,3.2-2.3,4.3c-0.6,0.6-1.2,1-1.9,1.4
												c-0.3,0.2-0.7,0.3-1,0.5c-0.4,0.2-0.7,0.2-1.1,0.4c-1.4,0.4-2.8,0.5-4.2,0.4c-0.7,0-1.3-0.1-2-0.2
												c-0.3-0.1-0.6-0.1-1-0.2c-0.3-0.1-0.6-0.1-0.9-0.2c-0.3-0.1-0.6-0.2-0.9-0.3s-0.6-0.2-0.9-0.3c-0.6-0.2-1.2-0.4-1.8-0.7
												c-0.3-0.1-0.6-0.3-0.9-0.4c-0.3-0.1-0.6-0.3-0.8-0.4c-0.6-0.3-1.1-0.6-1.6-1c-0.5-0.3-1-0.7-1.5-1.1
												c-0.5-0.4-1-0.8-1.4-1.2c-0.5-0.4-0.9-0.9-1.3-1.3c-0.4-0.5-0.8-0.9-1.1-1.5c1.7,1.7,3.7,3,5.9,4.1
												c1.1,0.5,2.2,1,3.3,1.4c1.1,0.4,2.3,0.7,3.5,0.9s2.4,0.3,3.6,0.3s2.4-0.1,3.5-0.5c0.3-0.1,0.6-0.2,0.8-0.3
												c0.3-0.1,0.5-0.2,0.8-0.4c0.5-0.3,1-0.7,1.4-1.1c0.9-0.8,1.4-1.9,1.7-3.1c0.2-1.2,0.1-2.4-0.4-3.5
												c-0.4-1.1-1.1-2.1-1.9-3s-1.7-1.7-2.6-2.4c-1-0.7-2-1.4-3-1.9c-2.1-1.1-4.4-2-6.7-2.6
												C458.4-121.4,455.9-121.7,453.6-121.2z"/>
										</g>
										<g>
											<polygon class="st0" points="411.5,-97.5 414.4,-120.9 414.5,-97.3 											"/>
										</g>
										<g>
											<path class="st0" d="M409.5-98.5l3.6-31.9c0.2-1.6-1.5-2.7-2.9-2l-2.7,0.6c0,0-0.7,5.2-4,5.8s-2.7,6.4-1.8,6.6
												c1.6,0.2,4.7-3.9,4.7-3.9s-0.4,1.7-2.2,4.4l-1.9,15.8L409.5-98.5z"/>
										</g>
										<g>
											<path class="st0" d="M403.1-141.8l1.3-7l6.4-0.7l-2.7,18.5C407.3-134.8,405.6-138.4,403.1-141.8z"/>
										</g>
										<g>
											<path class="st0" d="M438.3-153.7l-4.8,20.7c0,0,5.5,1.8,8.1,6c2.6,4.2,1.2,4.3,1.2,4.3s3.4,0.4-2.4-9.2
												c0,0,2.3,1.6,4.1,3.8l5.8-25.1L438.3-153.7z"/>
										</g>
										<g>
											<polygon class="st0" points="453,-150 448.5,-128.8 456.2,-135 457.8,-143.8 											"/>
										</g>
										<g>
											<polygon class="st0" points="440.2,-115.2 435.8,-98.4 430.6,-98.1 434.7,-113.8 											"/>
										</g>
										<g class="st1">
											<g class="st2">
												<path class="st3" d="M457.2-167.8c0.2-5.1,0.7-10.1,1.2-15.2c0.5-5,1.1-10.1,1.7-15.1s1.4-10,2.2-15.1
													c0.8-5,1.7-10,2.7-15c-0.2,5.1-0.7,10.1-1.2,15.2c-0.5,5-1.1,10.1-1.7,15.1c-0.7,5-1.4,10-2.2,15.1
													C459.1-177.8,458.2-172.8,457.2-167.8z"/>
											</g>
											<g class="st2">
												<path class="st3" d="M465.3-232.2c-0.1-1.5-0.1-3,0-4.5s0.2-3,0.4-4.4c0.2-1.5,0.4-2.9,0.7-4.4c0.3-1.5,0.6-2.9,1.1-4.4
													c0.1,1.5,0.1,3,0,4.5s-0.2,3-0.4,4.4c-0.2,1.5-0.4,2.9-0.7,4.4C466.1-235.1,465.8-233.6,465.3-232.2z"/>
											</g>
											<g class="st2">
												<path class="st3" d="M367-157.1c6.1-0.9,12.3-1.5,18.5-2.1c6.2-0.6,12.3-1.1,18.5-1.6c6.2-0.4,12.3-0.8,18.5-1.1
													c6.2-0.3,12.4-0.5,18.6-0.6c-6.1,0.9-12.3,1.5-18.5,2.1c-6.2,0.6-12.3,1.1-18.5,1.6s-12.3,0.8-18.5,1.1
													C379.4-157.3,373.2-157.1,367-157.1z"/>
											</g>
										</g>
										<g class="st1">
											<polygon class="st4" points="392.8,-113.8 393.5,-125.8 395.9,-125 394.9,-110.7 											"/>
										</g>
									</g>
									<path class="st0" d="M484.9-160.9c-0.4,2.4-0.3,5.5,0.2,8.7c1,6,3.6,12.2,6.4,11.7c1-0.2,1.8-1.1,2.2-2.6
										c0.8-2.6,0.8-6.7,0.2-10.5c-0.5-3.2-1.4-6.2-2.5-8.3c-1.2-2.4-2.6-3.6-3.9-3.3C486.2-165.1,485.3-163.6,484.9-160.9z
										 M487.8-164.1c-0.1,0-0.1,0-0.2,0.1C487.6-164,487.7-164,487.8-164.1L487.8-164.1z"/>
									<path class="st0" d="M478-207.7c-1.5,2-1.9,6.7-0.9,12.1c1,6.1,3.8,12.4,6.8,12.1c0.6-0.1,1.2-0.4,1.6-1
										c0.3-0.4,0.6-1,0.8-1.7c0.8-2.4,0.8-6.2,0.1-10.4c-1-6.1-3.8-12.4-6.8-12.1C479-208.6,478.4-208.3,478-207.7z"/>
								</g>
							</g>
						</g>
					</g>
				</g>
			</g>
		</g>
	</g>
	<polygon class="st0" points="165.2,-239.4 197,-239.4 188.1,-196.7 210.1,-182.1 201.4,-140.7 151.7,-175.3 	"/>
	<polygon class="st0" points="268.4,-239.4 300.2,-239.4 291.3,-196.7 313.3,-182.1 304.6,-140.7 255,-175.3 	"/>
</g>
<path class="st9" d="M10-118.5"/>
</svg>
