<svg id="Слой_1" data-name="Слой 1" xmlns="http://www.w3.org/2000/svg" viewBox="0 0 50 50"><defs><style>.cls-1{fill:#042f2e;}.cls-2{fill:#fff;}</style></defs><g id="_30_Animal_Bear_Polar_Canada" data-name="30, Animal, Bear, Polar, Canada"><path class="cls-1" d="M19.57,26.59c0,.07.06.19.06.26l-3.22,6.93H10.86v-.19a2.23,2.23,0,0,1,2.21-2.2l2.33-8.52c.51.13.89.26,1.26.32l.76.19h.07c.06,0,.12,0,.12.06s.06,0,.13.06h.06c.06,0,.06.07.13.07H18a3.7,3.7,0,0,0,.31.25l.07.06h0c0,.07.06.07.06.13v.06c0,.06.06.06.06.13v.12a.07.07,0,0,0,.07.07.67.67,0,0,1,.12.31.07.07,0,0,0,.07.07c.06.06.06.18.12.25v.06c0,.06.07.13.07.19v.13c.12.25.18.56.31.94C19.57,26.53,19.57,26.59,19.57,26.59Z"/><path class="cls-1" d="M18.3,23.82h0l-.12-.13c-.06-.06-.13-.06-.19-.12h-.13c-.06,0-.06-.07-.12-.07h-.07c-.06,0-.06,0-.12-.06s-.06,0-.13-.06h-.06a4.9,4.9,0,0,0-.76-.19c-.38-.06-.75-.19-1.26-.32a.63.63,0,0,1-.31-.12c-1.2-.38-1.45-.7-2.15-.82s-1.7-.25-2.58-.38S8.59,21.55,8,21c-.19-.19-1.27-1.39-1.08-1.89s1.45-.82,2-.95c.32-.06.32-.06.44-.31.38-.82.26-.88,1-1.2,1.77-.82,1.39-.31,1.7-1.26.51-1.32.64-1.58,1.39-.95.51.51.32.63.88.63A10.7,10.7,0,0,0,15.78,15c2.21-.06,3.16-.13,4.79-1.07a4.47,4.47,0,0,1,4.67-.13,3.23,3.23,0,0,0,2.4.63c.82-.06,1.76-.25,2.58-.37a18.26,18.26,0,0,1,5.62,0c3.09.56,5,3,5.92,5.86.51,1.7,0,3.85-.38,5.49-.5,2-.88,2.9.19,4.79a2.61,2.61,0,0,1,.57,2.21c-.06.44-.38,1.82-.69,2H38.17c.19-.56.63-.88.82-1.45-.25-.19-.88-.37-1.2-.63S37.16,32,37,32c-.38.06-.44.63-.69,1.76a3.63,3.63,0,0,1-.32.7l-5.48-.07c-.13-.37.25-.63.44-.82a12.35,12.35,0,0,0,1.13-2.39,3.28,3.28,0,0,1-.82-.57c-1.26-1.26-.75-2.27-.94-2.52a2.61,2.61,0,0,0-.7-.19A10.76,10.76,0,0,1,28,27c-.19.25-1.26,3-1.45,3.47-1.07,2.71-.5,2.84-.82,3.91H19.19c.12-1.13.75-1.51,1.7-2.08A26.14,26.14,0,0,0,20,27.22c-.07-.18-.13-.37-.19-.56s-.06-.19-.06-.26v-.06a7.79,7.79,0,0,0-.32-.94v-.13c0-.06-.06-.13-.06-.19V25c-.07-.13-.07-.19-.13-.25s0-.07-.06-.07a.89.89,0,0,1-.13-.31s0-.07-.06-.07V24.2c0-.07-.06-.07-.06-.13V24c0-.06-.07-.06-.07-.13h0C18.37,23.88,18.37,23.88,18.3,23.82ZM14.84,18A.84.84,0,0,0,14,17.2h0a.82.82,0,1,0,.82.82Z"/><path class="cls-2" d="M14.08,17.26a.82.82,0,1,1-.82.82.8.8,0,0,1,.82-.82Z"/><path class="cls-1" d="M17.74,24.26a.37.37,0,0,1-.25-.06.19.19,0,0,1-.13-.07c-.06,0-.06,0-.13-.06h-.06C17,24,16.79,24,16.6,24l-.12-.07a.78.78,0,0,1,.37-1.51l.13.06a2.44,2.44,0,0,0,.63.13h.13c.06,0,.12.06.19.06a.21.21,0,0,1,.12.06.87.87,0,0,1,.51,1A.94.94,0,0,1,17.74,24.26Z"/><path class="cls-1" d="M17.8,24.32a.39.39,0,0,1-.25-.06h-.06a.83.83,0,0,1-.51-1,.77.77,0,0,1,1-.5h.06a.76.76,0,0,1,.44,1A.67.67,0,0,1,17.8,24.32Z"/><path class="cls-1" d="M18,24.39a1,1,0,0,1-.38-.13h0a.8.8,0,0,1,.69-1.45s.07,0,.07.06a.06.06,0,0,1,.06.07A.74.74,0,0,1,18.68,24,.88.88,0,0,1,18,24.39Z"/><path class="cls-1" d="M18.24,24.58a.72.72,0,0,1-.5-.19h-.07l-.06-.07a.8.8,0,0,1,.69-1.45.07.07,0,0,1,.07.07.48.48,0,0,0,.25.12c.06,0,.06.07.13.07a.86.86,0,0,1,.12,1.13A.64.64,0,0,1,18.24,24.58Z"/><path class="cls-1" d="M18.43,24.7a.69.69,0,0,1-.57-.25l-.06-.06a.78.78,0,1,1,1-1.2l.06.06A.9.9,0,0,1,19,24.51,1,1,0,0,1,18.43,24.7Z"/><path class="cls-1" d="M18.43,24.77a.7.7,0,0,1-.57-.26h0a.8.8,0,0,1,1.2-1.07h0A.81.81,0,0,1,19,24.58,1.08,1.08,0,0,1,18.43,24.77Z"/><path class="cls-1" d="M18.49,24.83a.88.88,0,0,1-.63-.32h0a.81.81,0,0,1,1.26-1h0A.81.81,0,0,1,19,24.64.72.72,0,0,1,18.49,24.83Z"/><path class="cls-1" d="M18.56,24.89a1.07,1.07,0,0,1-.63-.25l-.07-.06a.82.82,0,0,1,.19-1.14.73.73,0,0,1,1.07.19h0A.78.78,0,0,1,19,24.7.48.48,0,0,1,18.56,24.89Z"/><path class="cls-1" d="M18.68,25a.88.88,0,0,1-.69-.38v-.06a.75.75,0,0,1,.25-1.08.74.74,0,0,1,1.07.26h0a.73.73,0,0,1-.25,1.07A.37.37,0,0,1,18.68,25Z"/><path class="cls-1" d="M18.75,25.21a.8.8,0,0,1-.7-.38h0A.78.78,0,0,1,19.38,24a.06.06,0,0,0,.06.06.8.8,0,0,1-.32,1.07C19,25.14,18.87,25.21,18.75,25.21Z"/><path class="cls-1" d="M18.81,25.27a.73.73,0,0,1-.69-.44v-.06a.81.81,0,0,1,.31-1.08A.8.8,0,0,1,19.5,24a.06.06,0,0,0,.07.06h0a.8.8,0,0,1-.32,1.07A.66.66,0,0,1,18.81,25.27Z"/><path class="cls-1" d="M19,25.71a.83.83,0,0,1-.76-.5h0v-.07a.76.76,0,0,1,1.39-.63v.07h0a.73.73,0,0,1-.44,1C19.19,25.65,19.06,25.71,19,25.71Z"/><path class="cls-1" d="M19.12,26a.81.81,0,0,1-.75-.51v-.06a.78.78,0,1,1,1.45-.57h0V25a.8.8,0,0,1-.51,1C19.31,26,19.19,26,19.12,26Z"/><path class="cls-1" d="M19.25,26.34a.8.8,0,0,1-.76-.57h0v-.06a.78.78,0,0,1,1.45-.57v.13a.77.77,0,0,1-.5,1A.24.24,0,0,1,19.25,26.34Z"/><path class="cls-1" d="M19.57,27.41a.89.89,0,0,1-.76-.56v-.07a.8.8,0,1,1,1.51-.5v.06a.82.82,0,0,1-.5,1A.5.5,0,0,1,19.57,27.41Z"/><path class="cls-1" d="M16.41,34.6H10.86a.84.84,0,0,1-.82-.82v-.19a2.92,2.92,0,0,1,2.4-2.9l2.14-8a.78.78,0,0,1,1.52.38l-2.27,8.52a.77.77,0,0,1-.76.56,1.38,1.38,0,0,0-1.26.82h4.1l3-6.43A.8.8,0,0,1,20,26.15a.82.82,0,0,1,.38,1.07l-3.22,6.94A1,1,0,0,1,16.41,34.6Z"/><path class="cls-1" d="M35.9,35.42h0l-5.49-.06a.77.77,0,0,1-.69-.44,1.35,1.35,0,0,1,.5-1.58l.07-.06A9.73,9.73,0,0,0,31,31.77a2.94,2.94,0,0,1-.44-.38,3.94,3.94,0,0,1-1.14-2.46c-.12,0-.19-.07-.31-.07a10.55,10.55,0,0,1-1-.5c-.19.44-.51,1.26-1,2.52V31a8.55,8.55,0,0,0-.69,2.71,2.78,2.78,0,0,1-.19,1.13.75.75,0,0,1-.7.57H19a.69.69,0,0,1-.57-.25.76.76,0,0,1-.19-.63A3,3,0,0,1,19.94,32a29.38,29.38,0,0,0-.82-4.42L18.94,27c0-.07-.07-.19-.07-.26v-.12a8.19,8.19,0,0,0-.31-.95h0c0-.06-.07-.12-.07-.19h0v-.06c-.06-.06-.06-.19-.12-.25h0v-.07h0c-.07-.12-.07-.19-.13-.25v-.06h0a.06.06,0,0,0-.06-.06h0s0-.07-.06-.07h0l-.07-.06h0a.06.06,0,0,1-.06-.06h-.32a1.63,1.63,0,0,0-.63-.13H17c-.38-.06-.82-.19-1.32-.32-.13-.06-.26-.06-.38-.12a6.29,6.29,0,0,1-1.39-.57,2.74,2.74,0,0,0-.69-.25,13.72,13.72,0,0,0-1.77-.25,3.46,3.46,0,0,1-.76-.13c-.25,0-.44-.06-.69-.06A2.82,2.82,0,0,1,7.9,22c-1.45-1.51-1.39-2.27-1.26-2.71.12-.25.31-.82,2.52-1.45h0c.06-.13.06-.19.13-.25.25-.63.44-.82,1.19-1.2.57-.25.95-.44,1.2-.51h.07a.48.48,0,0,1,.12-.25c.32-.94.57-1.57,1.26-1.76a1.59,1.59,0,0,1,1.39.56l.38.38h1.32c2.08-.06,2.9-.12,4.42-1a5.2,5.2,0,0,1,5.48-.06,2.41,2.41,0,0,0,1.9.5A17.71,17.71,0,0,0,29.78,14c.25-.06.51-.06.82-.12a19.87,19.87,0,0,1,5.87,0c3.09.56,5.42,2.83,6.49,6.36.57,1.9.06,4.23-.38,5.93h0c-.06.19-.06.38-.12.57-.38,1.58-.57,2.21.25,3.66.06.06.06.19.13.25a3.09,3.09,0,0,1,.5,2.52,5.87,5.87,0,0,1-1,2.52.68.68,0,0,1-.5.19h0l-3.78-.5a.76.76,0,0,1-.63-.32.69.69,0,0,1-.07-.69,2.06,2.06,0,0,1,.51-.82,4.06,4.06,0,0,1-.51-.25c-.06,0-.06-.06-.12-.06-.07.18-.07.37-.13.56s-.06.26-.06.44v.07a1.7,1.7,0,0,1-.26.57c-.06.06-.06.12-.12.18A1.26,1.26,0,0,1,35.9,35.42Zm-4.1-1.64h3.66c0-.06,0-.06.06-.06s.06-.25.06-.38c.19-1,.38-1.83,1.26-2a2,2,0,0,1,1.33.44,3.87,3.87,0,0,0,.5.25,7.67,7.67,0,0,1,.76.38.77.77,0,0,1,.25.88c-.06.13-.12.25-.19.38h1.45a10.26,10.26,0,0,0,.38-1.39A1.69,1.69,0,0,0,41,30.88a.43.43,0,0,1-.13-.25c-1.13-1.95-.82-3.09-.44-4.79.06-.19.06-.38.13-.57h0c.37-1.64.88-3.59.37-5.05-.56-1.7-1.95-4.66-5.29-5.29a19.2,19.2,0,0,0-5.36,0c-.26.06-.51.06-.76.12-.63.13-1.26.19-1.89.26a3.66,3.66,0,0,1-2.84-.76,3.63,3.63,0,0,0-3.85.13,9.08,9.08,0,0,1-5.17,1.19H14.39a1.16,1.16,0,0,1-1.13-.5c-.06-.06-.06-.13-.19-.19a3.81,3.81,0,0,1-.19.5.52.52,0,0,0-.06.26,1.39,1.39,0,0,1-1,1c-.19.06-.51.19-1.07.44-.26.12-.32.19-.38.19s-.06.12-.13.19a4.08,4.08,0,0,0-.19.44,1.13,1.13,0,0,1-.82.69H9.1a7.05,7.05,0,0,0-1.39.51,7.07,7.07,0,0,0,.82,1c.19.19.38.19,1,.26a4.11,4.11,0,0,1,.82.06c.25.06.5.06.76.13a17.47,17.47,0,0,1,1.89.25,3.61,3.61,0,0,1,1,.38,6.82,6.82,0,0,0,1.19.44.61.61,0,0,0,.32.06c.5.13.88.25,1.2.32h.06a6.9,6.9,0,0,1,.7.19h.06c.06,0,.12.06.19.06s.06,0,.12.06H18a.26.26,0,0,1,.13.06.06.06,0,0,1,.06.07h.06c.06.06.13.06.25.12s.07.07.13.07l.06.06h0a.8.8,0,0,1,.13.13l.06.06.07.06h0a.06.06,0,0,0,.06.06v.07a.06.06,0,0,0,.06.06c.06.06.06.13.13.13a.06.06,0,0,0,.06.06c0,.06.06.06.06.13a.06.06,0,0,0,.07.06V24h0c.06.12.12.25.19.37s0,.07.06.13.06.19.13.32h0v.06c0,.06.06.12.06.19v.12c.12.26.19.63.31.95v.06h0c0,.07.07.19.07.25s.12.38.19.57a23.22,23.22,0,0,1,.88,5.24.73.73,0,0,1-.38.69h-.06l-.89.57h4.67v-.13a8.67,8.67,0,0,1,.76-3.21l.06-.13a21.72,21.72,0,0,1,1.51-3.53.85.85,0,0,1,.95-.25,3.45,3.45,0,0,1,.63.37,4.76,4.76,0,0,0,1,.57.7.7,0,0,0,.19.06,5.15,5.15,0,0,1,.69.26c.07,0,.07.06.13.06a1.18,1.18,0,0,1,.31.95,1.92,1.92,0,0,0,.7,1.57c.06.07.38.25.63.44a.86.86,0,0,1,.38.95A7,7,0,0,1,31.8,33.78Z"/><path class="cls-1" d="M27.83,28a.72.72,0,0,1-.51-.19.79.79,0,0,1-.06-1.13s1.58-1.89,1.07-3.72a.73.73,0,0,1,.57-1,.72.72,0,0,1,.94.57c.7,2.65-1.32,5-1.38,5.17A.9.9,0,0,1,27.83,28Z"/><path class="cls-1" d="M36.91,33a.69.69,0,0,1-.63-.38.73.73,0,0,1,.25-1.07h0c.5-.32.13-2-.32-3a.8.8,0,0,1,1.45-.69c.19.38,1.58,3.66-.25,4.85l-.06.07A.74.74,0,0,1,36.91,33Z"/><path class="cls-1" d="M22,26a8.06,8.06,0,0,1-4.1-1.45h0a3.06,3.06,0,0,1-.38-.25l-.06-.06a.79.79,0,0,1-.32-.63.84.84,0,0,1,.82-.82.68.68,0,0,1,.5.19,1,1,0,0,1,.26.19h0c.5.37,2.33,1.45,3.78,1.13a.81.81,0,1,1,.32,1.58A2,2,0,0,1,22,26Z"/><path class="cls-1" d="M25.87,40.09H10.93a.82.82,0,0,1,0-1.64h15a.83.83,0,0,1,.82.82A.94.94,0,0,1,25.87,40.09Z"/><path class="cls-1" d="M33.75,42.49h-6.3a.82.82,0,0,1,0-1.64h6.3a.82.82,0,0,1,0,1.64Z"/></g></svg>