<svg id="Слой_1" data-name="Слой 1" xmlns="http://www.w3.org/2000/svg" viewBox="0 0 50 50"><defs><style>.cls-1{fill:#042f2e;}</style></defs><g id="_883_protection_green_light_light_bulb_earth" data-name="883, protection, green, light, light bulb, earth"><path class="cls-1" d="M22.7,32.56v2.2h3v-2.2a1.49,1.49,0,1,0-3,0Z"/><path class="cls-1" d="M22.05,15.25l-1.37,2.68,2,1.3a.33.33,0,0,1,.18.3v3.75a.38.38,0,0,1-.3.36l-2.85.71-2.8,2.8a14.49,14.49,0,0,1,3.21,7.61h1.85v-2.2a2.26,2.26,0,1,1,4.52,0v2.2h1.9A14.14,14.14,0,0,1,31,28.1H28.12a.43.43,0,0,1-.36-.18l-1.19-2.26a.47.47,0,0,1,.12-.48l1-.65.54-2.8c0-.12.11-.23.29-.29l2.8-.78a.45.45,0,0,1,.3.06l2.26,1.49.06.06a12.45,12.45,0,0,0,.11-1.49,10,10,0,0,0-.47-3l-4.28.71h-.06c-.06,0-.18-.06-.24-.06a.46.46,0,0,1-.12-.3V15.67l-1.73.59c-.11.06-.17,0-.29,0l-1.49-.71a.33.33,0,0,1-.18-.3l-.71-4.17h-.12a9.6,9.6,0,0,0-4.34,1L22.17,15C22.11,15,22.11,15.13,22.05,15.25Z"/><path class="cls-1" d="M26.93,15.43,29,14.71a.4.4,0,0,1,.36.06.34.34,0,0,1,.17.3v2.56l3.75-.6a9.71,9.71,0,0,0-8.09-6l.66,3.81Z"/><path class="cls-1" d="M19.19,23.76c.06-.06.12-.06.18-.12L22.05,23V19.77L20,18.4a.32.32,0,0,1-.12-.47l1.36-2.8-2-2.74a11.41,11.41,0,0,0-1.9,1.49,9.66,9.66,0,0,0-2.86,6.9,9.76,9.76,0,0,0,1.91,5.83Z"/><path class="cls-1" d="M35.49,11.74a.78.78,0,1,0-.77-.77A.79.79,0,0,0,35.49,11.74Z"/><path class="cls-1" d="M33.41,22.86l-2.08-1.42L29,22.09l-.54,2.74c0,.12-.06.18-.17.24l-.84.53.89,1.73h3.16a.83.83,0,0,0,.18-.24,10.1,10.1,0,0,0,2.14-4.29A.28.28,0,0,1,33.41,22.86Z"/><path class="cls-1" d="M39.24,23.64a1.49,1.49,0,1,0,1.49,1.48A1.51,1.51,0,0,0,39.24,23.64Z"/><path class="cls-1" d="M10.57,31.07A1.13,1.13,0,0,0,9.44,32.2a1.13,1.13,0,0,0,2.26,0A1.1,1.1,0,0,0,10.57,31.07Z"/><path class="cls-1" d="M36.62,42.26H26.27a1.61,1.61,0,0,0,1.61-1.61v-2.5a.38.38,0,0,1,.36-.35H29a1.13,1.13,0,0,0,1.13-1.13A1.09,1.09,0,0,0,29,35.54h-9.7a1.13,1.13,0,0,0-1.13,1.13,1.1,1.1,0,0,0,1.13,1.13h6a.38.38,0,0,1,.36.35.39.39,0,0,1-.36.36H20.44v2.14a1.61,1.61,0,0,0,1.61,1.61H13.54a.36.36,0,1,0,0,.71H36.62a.36.36,0,1,0,0-.71Z"/><path class="cls-1" d="M10.57,12.1a.77.77,0,1,1-.78.77A.77.77,0,0,1,10.57,12.1Z"/><path class="cls-1" d="M38.82,17.33a.78.78,0,1,1-.77.77A.78.78,0,0,1,38.82,17.33Z"/><path class="cls-1" d="M33.65,30.72a.77.77,0,1,1-.77.77A.76.76,0,0,1,33.65,30.72Z"/><path class="cls-1" d="M12.05,26.25a.78.78,0,0,1,.78.78.78.78,0,1,1-.78-.78Z"/></g></svg>