<svg id="Слой_1" data-name="Слой 1" xmlns="http://www.w3.org/2000/svg" viewBox="0 0 50 50"><defs><style>.cls-1{fill:#042f2e;}</style></defs><g id="_879_earth_gear_setting" data-name="879, earth, gear, setting"><path class="cls-1" d="M29.94,27.94v-.2h-1a2.39,2.39,0,0,0-2.36,2.36v.2h1A2.39,2.39,0,0,0,29.94,27.94Z"/><path class="cls-1" d="M25.83,16.61a8.43,8.43,0,0,0,0,16.86.25.25,0,0,1-.07-.2V26.93h-2a3,3,0,0,1-3-3v-.74a.44.44,0,0,1,.41-.4h2.43a3.09,3.09,0,0,1,2.22.94V21.47a.41.41,0,1,1,.81,0v6.47a3.29,3.29,0,0,1,2.36-1h1.48a.44.44,0,0,1,.41.4v.61a3.17,3.17,0,0,1-3.17,3.17h-1V33.2a.24.24,0,0,1-.07.2,8.41,8.41,0,0,0-.74-16.79ZM21.92,28.14A.88.88,0,1,1,21,29,1,1,0,0,1,21.92,28.14Zm.87-7.55a.88.88,0,1,1,.88-.87A.94.94,0,0,1,22.79,20.59Zm6.75,2.5a.88.88,0,1,1,.87-.88A.89.89,0,0,1,29.54,23.09Z"/><path class="cls-1" d="M21.51,23.49v.34a2.24,2.24,0,0,0,2.23,2.22h2v-.33a2.24,2.24,0,0,0-2.22-2.23Z"/><path class="cls-1" d="M38.5,27.87a.56.56,0,0,1,.34-.33l4.92-1.08V23.63l-4.92-1.08a.57.57,0,0,1-.34-.34,13.81,13.81,0,0,0-1.68-4.11.55.55,0,0,1,0-.47l2.69-4.25-2-2-4.25,2.69a.55.55,0,0,1-.47,0,12.74,12.74,0,0,0-4.11-1.68.57.57,0,0,1-.34-.34L27.24,7.18H24.41L23.33,12.1a.55.55,0,0,1-.33.34,12.7,12.7,0,0,0-4.12,1.68.55.55,0,0,1-.47,0l-4.24-2.7-2,2,2.7,4.24a.57.57,0,0,1,0,.48,12.89,12.89,0,0,0-1.69,4.11.51.51,0,0,1-.33.33L8,23.63v2.83l4.92,1.08a.53.53,0,0,1,.34.33A12.89,12.89,0,0,0,14.91,32a.66.66,0,0,1,0,.48l-2.7,4.24,2,2L18.48,36A.55.55,0,0,1,19,36a12.74,12.74,0,0,0,4.11,1.68.57.57,0,0,1,.34.34L24.48,43h2.83l1.08-4.92a.57.57,0,0,1,.34-.34A12.74,12.74,0,0,0,32.84,36a.55.55,0,0,1,.47,0l4.25,2.7,2-2-2.7-4.24a.66.66,0,0,1,0-.48A17.76,17.76,0,0,0,38.5,27.87ZM25.83,34.28A9.24,9.24,0,1,1,35.06,25,9.21,9.21,0,0,1,25.83,34.28Z"/></g></svg>