<svg id="Слой_1" data-name="Слой 1" xmlns="http://www.w3.org/2000/svg" viewBox="0 0 50 50"><defs><style>.cls-1{fill:#042f2e;}</style></defs><g id="_877_eco_manufacturing_ecology_factory_green_factory" data-name="877, eco manufacturing, ecology factory, green factory"><path class="cls-1" d="M25.6,20.72H20L18.58,40.06h8.86L26,20.72ZM24.11,30H22.62v1.49h1.49V33H22.62v1.48h1.49V36H22.62V34.46H21.13V33h1.49V31.49H21.13V30h1.49V28.52H21.13V27h1.49v1.49h1.49Z"/><path class="cls-1" d="M45.64,17a1.12,1.12,0,0,0,1.13-1.13,1.13,1.13,0,0,0-2.26,0A1.13,1.13,0,0,0,45.64,17Z"/><path class="cls-1" d="M32.26,19.24a.78.78,0,1,0-.77-.78A.79.79,0,0,0,32.26,19.24Z"/><path class="cls-1" d="M48.26,40.06V25.6l-4.58,3.93a.36.36,0,0,1-.42.06.41.41,0,0,1-.23-.36V25.6l-4.58,3.93a.37.37,0,0,1-.6-.24l-.65-3.81-4.7,4.05a.36.36,0,0,1-.42.06.41.41,0,0,1-.24-.36V25.6l-4.52,3.87L28.09,40H48.26ZM30.41,33.75a.39.39,0,0,1,.36-.36H45.64a.39.39,0,0,1,.36.36v3.69a.39.39,0,0,1-.36.36H30.77a.39.39,0,0,1-.36-.36Z"/><rect class="cls-1" x="31.19" y="34.11" width="14.16" height="2.97"/><path class="cls-1" d="M35.23,12.16a.77.77,0,1,1-.77.77A.77.77,0,0,1,35.23,12.16Z"/><path class="cls-1" d="M25.6,9.9a.77.77,0,1,1-.78.77A.77.77,0,0,1,25.6,9.9Z"/><path class="cls-1" d="M17.39,15.84a.78.78,0,1,1-.78.78A.78.78,0,0,1,17.39,15.84Z"/><path class="cls-1" d="M42,20.31a.77.77,0,1,1-.78.77A.77.77,0,0,1,42,20.31Z"/><path class="cls-1" d="M21.13,14.77h1.08v3.75H20.72V20h4.46V18.52H23V16.26h1.19a2.51,2.51,0,0,0,2.5-2.5v-.12a.38.38,0,0,0-.36-.35H24.76A2.64,2.64,0,0,0,23,14V10.37a.36.36,0,0,0-.72,0v1.49a2.61,2.61,0,0,0-1.9-.77H18.87a.38.38,0,0,0-.35.35v.72A2.64,2.64,0,0,0,21.13,14.77Z"/><path class="cls-1" d="M50.11,43.75H48.26v-3h-20v3h-.77v-3H18.52v3H16.67a.37.37,0,0,0-.35.35.38.38,0,0,0,.35.36h33.5a.39.39,0,0,0,.35-.36A.39.39,0,0,0,50.11,43.75Z"/></g></svg>