<svg id="Слой_1" data-name="Слой 1" xmlns="http://www.w3.org/2000/svg" viewBox="0 0 50 50"><defs><style>.cls-1{fill:#042f2e;}</style></defs><g id="_123_Autumn_Corn_Food" data-name="123, Autumn, Corn, Food"><path class="cls-1" d="M23.19,35a13.77,13.77,0,0,1,1.9-3.69A13.41,13.41,0,0,0,12,25.84a8.52,8.52,0,0,1,3.33,4,12.32,12.32,0,0,1,.47,4.59c-.06,2.08-.12,4,1.49,5.83,2.08,2.38,5.18,3.33,7.5,2.49a3.24,3.24,0,0,1-.54-.47C22.48,40.83,22.12,38.15,23.19,35Zm-2.38-.83h-.12a.38.38,0,0,1-.36-.3c-1.07-4-3.45-4.94-3.51-4.94a.41.41,0,0,1-.23-.47.4.4,0,0,1,.47-.24c.12.06,2.8,1,3.93,5.47C21.17,33.93,21.05,34.11,20.81,34.17Z"/><path class="cls-1" d="M36.81,25.6a13.09,13.09,0,0,0-4.1.66.22.22,0,0,0-.12,0,14.4,14.4,0,0,0-6.66,5.06.13.13,0,0,1-.12.12,14.43,14.43,0,0,0-1.91,3.69c-.95,2.79-.65,5.23.78,6.42h0a3.31,3.31,0,0,0,.47.42,13.76,13.76,0,0,1,.42-3,10.6,10.6,0,0,1,4.58-6.31.39.39,0,0,1,.54.12.39.39,0,0,1-.12.53c-4.58,2.86-4.7,8-4.64,9.11a5.56,5.56,0,0,0,2.26.47,7.88,7.88,0,0,0,5.71-2.79c1.6-1.73,1.54-3.75,1.49-5.83a11.13,11.13,0,0,1,.47-4.58,8.36,8.36,0,0,1,3.33-4A17,17,0,0,0,36.81,25.6Zm-4.16,6.72a.77.77,0,1,1,.77-.77A.82.82,0,0,1,32.65,32.32Z"/><path class="cls-1" d="M15.16,15.61a1.49,1.49,0,1,0-1.49-1.49A1.48,1.48,0,0,0,15.16,15.61Z"/><path class="cls-1" d="M19.8,26.08a14.86,14.86,0,0,1,5.77,4.64A16.43,16.43,0,0,1,28,28.16a15.6,15.6,0,0,1,4.16-2.44c.06-.65.06-1.31.06-1.9a24,24,0,0,0-2-10.12c-1.25-2.61-2.92-4-4.64-4s-3.39,1.43-4.64,4a23.58,23.58,0,0,0-2,10.12c0,.65,0,1.31.06,1.9C19.2,25.84,19.5,25.9,19.8,26.08Zm8.74-10.47h1.13A.38.38,0,0,1,30,16a.39.39,0,0,1-.36.36H28.54a.39.39,0,0,1-.35-.36A.34.34,0,0,1,28.54,15.61Zm0,2.2H30a.39.39,0,0,1,.36.35c0,.18-.18.42-.36.42H28.54a.39.39,0,0,1-.35-.36A.39.39,0,0,1,28.54,17.81Zm0,2.26H30a.36.36,0,1,1,0,.71H28.54a.38.38,0,0,1-.35-.35A.34.34,0,0,1,28.54,20.07Zm0,2.2H30A.36.36,0,1,1,30,23H28.54a.38.38,0,0,1-.35-.35A.34.34,0,0,1,28.54,22.27Zm0,2.26H30a.39.39,0,0,1,.36.36.38.38,0,0,1-.36.35H28.54a.38.38,0,0,1-.35-.35A.34.34,0,0,1,28.54,24.53ZM24.8,13.35h1.48a.38.38,0,0,1,.36.35.39.39,0,0,1-.36.36H24.8a.39.39,0,0,1-.36-.36A.38.38,0,0,1,24.8,13.35Zm0,2.26h1.48a.38.38,0,0,1,.36.35.39.39,0,0,1-.36.36H24.8a.39.39,0,0,1-.36-.36A.38.38,0,0,1,24.8,15.61Zm0,2.2h1.48a.39.39,0,0,1,.36.35.4.4,0,0,1-.36.42H24.8a.39.39,0,0,1-.36-.36A.45.45,0,0,1,24.8,17.81Zm0,2.26h1.48a.36.36,0,1,1,0,.71H24.8a.36.36,0,1,1,0-.71Zm0,2.2h1.48a.36.36,0,1,1,0,.71H24.8a.36.36,0,1,1,0-.71Zm0,2.26h1.48a.39.39,0,0,1,.36.36.38.38,0,0,1-.36.35H24.8a.38.38,0,0,1-.36-.35A.39.39,0,0,1,24.8,24.53Zm-3.34-8.92H22.6A.38.38,0,0,1,23,16a.39.39,0,0,1-.35.36H21.46a.39.39,0,0,1-.35-.36A.38.38,0,0,1,21.46,15.61Zm-.35,2.2H22.6a.38.38,0,0,1,.35.35c0,.18-.18.42-.35.42H21.11a.39.39,0,0,1-.36-.36A.39.39,0,0,1,21.11,17.81Zm0,2.26H22.6a.36.36,0,0,1,0,.71H21.11a.39.39,0,0,1-.36-.35A.35.35,0,0,1,21.11,20.07Zm0,2.2H22.6a.36.36,0,0,1,0,.71H21.11a.39.39,0,0,1-.36-.35A.35.35,0,0,1,21.11,22.27Zm0,2.26H22.6a.39.39,0,0,1,.35.36.38.38,0,0,1-.35.35H21.11a.38.38,0,0,1-.36-.35A.35.35,0,0,1,21.11,24.53Z"/><path class="cls-1" d="M39,39.4a.78.78,0,1,0,.77.78A.79.79,0,0,0,39,39.4Z"/><path class="cls-1" d="M37.47,15.61a.78.78,0,1,0-.78-.78A.79.79,0,0,0,37.47,15.61Z"/><path class="cls-1" d="M11.05,37.14a1.13,1.13,0,0,0-1.13,1.13,1.13,1.13,0,0,0,2.26,0A1.13,1.13,0,0,0,11.05,37.14Z"/><path class="cls-1" d="M41.57,18.88a.77.77,0,0,1,.78.77.78.78,0,1,1-1.55,0A.77.77,0,0,1,41.57,18.88Z"/><path class="cls-1" d="M35.62,18.11a.77.77,0,1,1-.77.77A.77.77,0,0,1,35.62,18.11Z"/><path class="cls-1" d="M32.65,10a.77.77,0,0,1,.77.78.77.77,0,0,1-1.54,0A.77.77,0,0,1,32.65,10Z"/><path class="cls-1" d="M20,9.18a.78.78,0,1,1-.78.77A.78.78,0,0,1,20,9.18Z"/><path class="cls-1" d="M10.34,12.93a.78.78,0,1,1-.77.77A.77.77,0,0,1,10.34,12.93Z"/><path class="cls-1" d="M13.31,18.88a.77.77,0,0,1,.78.77.78.78,0,1,1-1.55,0A.77.77,0,0,1,13.31,18.88Z"/><path class="cls-1" d="M11.05,30.78a.77.77,0,1,1-.77.77A.77.77,0,0,1,11.05,30.78Z"/><path class="cls-1" d="M15.52,41.9a.78.78,0,1,1-.78.77A.78.78,0,0,1,15.52,41.9Z"/><path class="cls-1" d="M38.6,33.75a.78.78,0,0,1,0,1.55.78.78,0,1,1,0-1.55Z"/><path class="cls-1" d="M40.8,28.52a.77.77,0,1,1-.77.77A.76.76,0,0,1,40.8,28.52Z"/></g></svg>