<svg id="Слой_1" data-name="Слой 1" xmlns="http://www.w3.org/2000/svg" viewBox="0 0 50 50"><defs><style>.cls-1{fill:#042f2e;}</style></defs><g id="_891_Earth_globe_world_love_day" data-name="891, Earth, globe, world, love, day"><path class="cls-1" d="M18.67,39.35a1.13,1.13,0,0,0-1.13,1.13,1.13,1.13,0,0,0,2.26,0A1.12,1.12,0,0,0,18.67,39.35Z"/><path class="cls-1" d="M24,30.72c-1.13-.53-2.56-1.25-2.68-1.31l-2.08-.89c-.06,0-.12-.06-.18,0l-1.25.18A2.64,2.64,0,0,1,15,27.15a2.68,2.68,0,0,1-.11-2l1.3-4a1,1,0,0,1,.48-.59l.65-.42a.32.32,0,0,0,.12-.47l-.29-.6a1,1,0,0,1-.06-.83l.17-.54c.06-.12,0-.18,0-.29l-.41-.48a1.1,1.1,0,0,1,.24-1.37l.29-.3a1.11,1.11,0,0,1,1.43-.06.26.26,0,0,0,.3.06c.12,0,.18-.12.24-.17L20.7,12.4a.41.41,0,0,0-.06-.42l-1.19-1.49a13.53,13.53,0,0,0-6.37,18A13.41,13.41,0,0,0,24,36.14a5.35,5.35,0,0,1-.9-3A4.17,4.17,0,0,1,24,30.72Z"/><path class="cls-1" d="M30.33,18.7a.61.61,0,0,0,.42.24l1.07.18h.12a.58.58,0,0,0,.59-.42l.36-.95a.61.61,0,0,0-.3-.77l-1.19-.71c-.06-.06-.17-.12-.23-.18l-.9-1a.83.83,0,0,0-.41-.17.64.64,0,0,0-.66.59l-.12,1.25a1.13,1.13,0,0,0,.12.48Z"/><path class="cls-1" d="M24.74,11.62l.36,1.08a1,1,0,0,1-.48,1.13l-1.07.59c-.06.06-.12.12-.12.18l-.06,1.55a.22.22,0,0,0,.06.17c.06,0,.12.06.18.06a1,1,0,0,1,1.19,1.13l-.18,1.07a3,3,0,0,0,1.55,3.1l2.08,1.07h.12l2.91-.12a1,1,0,0,1,1,.65l.89,2.62a1,1,0,0,0,.53.54,1,1,0,0,0,.84-.18.84.84,0,0,0,.24-.77l-.24-.9a1,1,0,0,1,.18-.83l1.66-2.2a.18.18,0,0,0,0-.24l-.65-1.19a1,1,0,0,1-.06-.71l.59-2.32a10.52,10.52,0,0,0,0-2.38,13.5,13.5,0,0,0-10-5.42L24.8,11.51C24.74,11.51,24.74,11.57,24.74,11.62Zm3.57,5.12.12-1.25a1.39,1.39,0,0,1,2.32-.89l.95.89c.06.06.06.06.12.06l1.19.72a1.36,1.36,0,0,1,.59,1.66l-.35.95a1.41,1.41,0,0,1-1.31.95h-.18l-1.07-.17a1.62,1.62,0,0,1-.89-.48l-1.19-1.43A1.53,1.53,0,0,1,28.31,16.74Z"/><path class="cls-1" d="M37,16a4.46,4.46,0,0,1-.12,1.31l-.6,2.32v.17L36.94,21A1,1,0,0,1,36.88,22l-1.67,2.2a.22.22,0,0,0-.06.18l.24.89A1.52,1.52,0,0,1,35,26.8a1.6,1.6,0,0,1-1.07.47,1,1,0,0,1-.41-.06,1.65,1.65,0,0,1-1.08-1l-.89-2.62c-.06-.12-.12-.18-.24-.18l-2.91.12a1.13,1.13,0,0,1-.48-.12l-2.08-1.07a3.54,3.54,0,0,1-1.9-3.86l.18-1.07a.26.26,0,0,0-.06-.18.62.62,0,0,0-.24-.06A1,1,0,0,1,23,17a1,1,0,0,1-.36-.83l.06-1.55a.79.79,0,0,1,.47-.77l1.08-.6c.11-.06.11-.18.11-.3L24,11.86a1,1,0,0,1,.12-.83l1.19-1.79a12.79,12.79,0,0,0-5.12,1l1.07,1.31a1,1,0,0,1,.12,1.19L20,15.43a1.33,1.33,0,0,1-.77.6,1,1,0,0,1-.89-.24.37.37,0,0,0-.48,0l-.3.3c-.12.12-.18.29-.06.41l.3.54a1.13,1.13,0,0,1,.06.89l-.18.54v.29l.3.6a1.12,1.12,0,0,1-.42,1.43l-.65.41-.18.18-1.31,4a1.83,1.83,0,0,0,.12,1.48,2,2,0,0,0,2,1.13l1.25-.17a2,2,0,0,1,.6.06l2.08.89c.12.06,2.08,1,2.91,1.43a4,4,0,0,1,2.56-1,3.83,3.83,0,0,1,3.57,2.26,3.8,3.8,0,0,1,3.57-2.26,3.76,3.76,0,0,1,2.44.84A13.49,13.49,0,0,0,37.35,17,2.15,2.15,0,0,0,37,16Z"/><path class="cls-1" d="M39.49,9.6a1.13,1.13,0,0,0,0,2.26,1.09,1.09,0,0,0,1.13-1.13A1.16,1.16,0,0,0,39.49,9.6Z"/><path class="cls-1" d="M34.26,30c-1.49,0-2.32.65-3.27,2.5a.36.36,0,0,1-.36.17h0a.42.42,0,0,1-.36-.17c-.89-1.85-1.72-2.5-3.21-2.5a3.2,3.2,0,0,0-3.21,3.21c0,2.5,1.9,4.16,4.34,6.31.77.71,1.61,1.42,2.44,2.26.83-.84,1.67-1.55,2.44-2.26,2.44-2.15,4.34-3.81,4.34-6.31A3.11,3.11,0,0,0,34.26,30Zm1.49,3.51a.39.39,0,0,1-.36-.36,1.2,1.2,0,0,0-1.19-1.19.36.36,0,1,1,0-.71,2,2,0,0,1,2,2A.56.56,0,0,1,35.75,33.46Z"/><path class="cls-1" d="M10.11,31.14a.77.77,0,1,0,.77.77A.79.79,0,0,0,10.11,31.14Z"/></g></svg>