<svg id="Слой_1" data-name="Слой 1" xmlns="http://www.w3.org/2000/svg" viewBox="0 0 50 50"><defs><style>.cls-1{fill:#010101;}</style></defs><g id="_79_Sailboat_Sea_Ship_Summer" data-name="79, Sailboat, Sea, Ship, Summer"><path class="cls-1" d="M25.13,9.36V5.9H17.32V8.12h3.91a.58.58,0,0,1,.53.53.57.57,0,0,1-.53.53H17.32V17h7.81Z"/><path class="cls-1" d="M33.39,9.36V17h4V7.05H30.73V8.83h2.13A.58.58,0,0,1,33.39,9.36Z"/><path class="cls-1" d="M26.29,23.48V47h8.88a34.55,34.55,0,0,1,2.75-13.68c.09-.26.27-.53.35-.79L31.79,30.4a.56.56,0,0,1,.36-1.06l6.57,2.22a21.16,21.16,0,0,1,1.69-2.93l-13.86-5Z"/><path class="cls-1" d="M19.27,29.25a.56.56,0,0,1,.36,1.07l-6.48,2.13c.09.26.26.53.35.8A35.32,35.32,0,0,1,16.25,47h8.88V23.48l-.26.09L11,28.54c.35.62,1,1.6,1.68,2.93Z"/><path class="cls-1" d="M25.49,22.15h.09l12.87,4.53V18.15H32.77a.56.56,0,0,1-.53-.53V10h-6v7.11H29a.53.53,0,0,1,0,1.06H12.79v2.22H16.7a.54.54,0,0,1,0,1.07H12.79v5.15l12.7-4.44Zm9.77-2.22a1.1,1.1,0,1,1-.63,1.42A1.13,1.13,0,0,1,35.26,19.93Zm-3.29,0a1.1,1.1,0,1,1-.62,1.42A1,1,0,0,1,32,19.93Z"/><path class="cls-1" d="M6.84,34.22a1.16,1.16,0,1,1-1.15,1.16A1.16,1.16,0,0,1,6.84,34.22Z"/><path class="cls-1" d="M45.64,30.85A1.16,1.16,0,1,1,44.49,32,1.16,1.16,0,0,1,45.64,30.85Z"/><path class="cls-1" d="M46.8,22a1.16,1.16,0,1,1-1.16,1.15A1.15,1.15,0,0,1,46.8,22Z"/><rect class="cls-1" x="4.62" y="20.9" width="2.22" height="2.22" transform="translate(-7.78 3.71) rotate(-21.84)"/><rect class="cls-1" x="42.71" y="10.15" width="2.22" height="2.22" transform="translate(-1.04 17.12) rotate(-21.86)"/></g></svg>