<svg id="Слой_1" data-name="Слой 1" xmlns="http://www.w3.org/2000/svg" viewBox="0 0 50 50"><defs><style>.cls-1{fill:#042f2e;}</style></defs><g id="_549_Barrel_Energy_Fuel_Oil" data-name="549, Barrel, Energy, Fuel, Oil"><path class="cls-1" d="M36.6,9.09a.57.57,0,1,1-.56.56A.56.56,0,0,1,36.6,9.09Z"/><path class="cls-1" d="M40.2,23.28a.57.57,0,1,1-.57.56A.56.56,0,0,1,40.2,23.28Z"/><path class="cls-1" d="M10.24,9.47a.57.57,0,1,1-.56.56A.56.56,0,0,1,10.24,9.47Z"/><path class="cls-1" d="M8.67,19.68a.57.57,0,1,1-.57.57A.57.57,0,0,1,8.67,19.68Z"/><path class="cls-1" d="M10.62,29.14a.56.56,0,0,1,.57.57.57.57,0,0,1-.57.57.58.58,0,0,1-.57-.57A.57.57,0,0,1,10.62,29.14Z"/><path class="cls-1" d="M39.76,35.07a.57.57,0,1,1-.57.57A.56.56,0,0,1,39.76,35.07Z"/><path class="cls-1" d="M29.41,31.1H34.9V25.55H29c.82,1,1.64,2,1.64,3.09A3.39,3.39,0,0,1,29.41,31.1Z"/><path class="cls-1" d="M27.27,24.79c-.25.38-.57.69-.82,1.07-.76.95-1.58,2-1.58,2.78a2.46,2.46,0,0,0,4.92,0c0-.82-.82-1.77-1.57-2.78A4.78,4.78,0,0,1,27.27,24.79Z"/><path class="cls-1" d="M22.16,26.3a2.33,2.33,0,0,1-1.7-.69h-5.3v5.55h10a3.17,3.17,0,0,1-1.14-2.46c0-1,.82-2.08,1.64-3.09H23.93A2.6,2.6,0,0,1,22.16,26.3Z"/><path class="cls-1" d="M23.86,23.78a3.93,3.93,0,0,0-1.13-2c-.19-.26-.38-.45-.57-.7a3.94,3.94,0,0,0-.5.7,4,4,0,0,0-1.14,2,1.69,1.69,0,0,0,1.71,1.7A1.67,1.67,0,0,0,23.86,23.78Z"/><path class="cls-1" d="M21.85,11.61a1.39,1.39,0,0,0-2.78,0V13h2.78Z"/><path class="cls-1" d="M9.61,36.27a1.58,1.58,0,1,0,1.58,1.57A1.55,1.55,0,0,0,9.61,36.27Z"/><path class="cls-1" d="M34.84,16.53H15.16v5.55h5.3a7.17,7.17,0,0,1,.57-.7c.31-.37.56-.75.82-1.07a.35.35,0,0,1,.31-.19h0a.37.37,0,0,1,.32.19,6.19,6.19,0,0,0,.82,1.07c.19.26.38.45.56.7h11Z"/><path class="cls-1" d="M13.21,23.84a1,1,0,0,0,1,1H20a2.71,2.71,0,0,1-.18-1A2.53,2.53,0,0,1,20,22.9h-5.8A.91.91,0,0,0,13.21,23.84Z"/><path class="cls-1" d="M35.85,22.83H24.43a1.78,1.78,0,0,1,.25,1,2.75,2.75,0,0,1-.18,1h1.82c.26-.32.45-.63.63-.88a.35.35,0,0,1,.32-.19h0a.35.35,0,0,1,.32.19,6.59,6.59,0,0,0,.63.88h7.56a1,1,0,0,0,1-1A.93.93,0,0,0,35.85,22.83Z"/><path class="cls-1" d="M35.85,13.75H14.15a1,1,0,0,0,0,2H35.78a1,1,0,0,0,.07-2Z"/><path class="cls-1" d="M40.77,16.15a1.19,1.19,0,0,0-1.2,1.2,1.2,1.2,0,1,0,2.39,0A1.19,1.19,0,0,0,40.77,16.15Z"/><rect class="cls-1" x="15.16" y="34.69" width="19.74" height="5.55"/><path class="cls-1" d="M35.85,31.92H14.22a1,1,0,1,0,0,2H35.85a1,1,0,0,0,1-1A1,1,0,0,0,35.85,31.92Z"/><path class="cls-1" d="M35.85,41H14.22a1,1,0,1,0,0,2H35.91a1,1,0,0,0,1-1A1.09,1.09,0,0,0,35.85,41Z"/></g></svg>