<svg id="Слой_1" data-name="Слой 1" xmlns="http://www.w3.org/2000/svg" viewBox="0 0 50 50"><defs><style>.cls-1{fill:#010101;}</style></defs><g id="_125_Autumn_Fall_Plant_Tree" data-name="125, Autumn, Fall, Plant, Tree"><path class="cls-1" d="M35.73,16.09a.31.31,0,0,1-.24-.12.42.42,0,0,1-.06-.29,2.84,2.84,0,0,0,.06-.71,5.54,5.54,0,0,0-5.55-5.55,5.41,5.41,0,0,0-3.48,1.24.35.35,0,0,1-.47,0,5.72,5.72,0,0,0-3.48-1.24A5.54,5.54,0,0,0,17,15a2.84,2.84,0,0,0,.06.71A.49.49,0,0,1,17,16a.23.23,0,0,1-.23.12,5.54,5.54,0,0,0,.65,11,5.86,5.86,0,0,0,3.12-.95.35.35,0,0,1,.47.06,7.05,7.05,0,0,0,2.66,1.89V23.88l-3.25-3.07a1.46,1.46,0,0,1-.05-2.06,1.44,1.44,0,0,1,1.06-.48,1.29,1.29,0,0,1,1,.42l1.18,1.12V17.92a1.83,1.83,0,0,1,3.66,0v5.31l3.89-3.78a1.72,1.72,0,0,1,1-.41,1.51,1.51,0,0,1,1.06.47,1.45,1.45,0,0,1,.41,1.07,1.25,1.25,0,0,1-.47,1l-5.9,5.72v1.18a6.75,6.75,0,0,0,4.13-2.3.36.36,0,0,1,.47-.06,5.44,5.44,0,0,0,3.13.95,5.54,5.54,0,0,0,5.55-5.55A5.39,5.39,0,0,0,35.73,16.09ZM17.2,19.75a.43.43,0,0,1-.53,0,1.19,1.19,0,0,0-1.6,0,1.18,1.18,0,0,0,0,1.59.43.43,0,0,1,0,.53.4.4,0,0,1-.23.12.31.31,0,0,1-.24-.12,1.83,1.83,0,0,1,2.6-2.59A.35.35,0,0,1,17.2,19.75ZM19.56,24a.73.73,0,1,1-.53-.89A.68.68,0,0,1,19.56,24Zm.71-9.62a.71.71,0,0,1-.89.53.73.73,0,1,1,.36-1.41A.72.72,0,0,1,20.27,14.38ZM24,13.67a.73.73,0,0,1-1.41-.35.7.7,0,0,1,.88-.53A.67.67,0,0,1,24,13.67Zm7.38,1.65A.37.37,0,0,1,31,15a1.84,1.84,0,0,0-1.83-1.83,1.81,1.81,0,0,0-1.6.95.32.32,0,0,1-.29.17c-.12,0-.24,0-.3-.12a1.26,1.26,0,0,0-.76-.29.36.36,0,1,1,0-.71,1.69,1.69,0,0,1,.94.24,2.67,2.67,0,0,1,2-1A2.62,2.62,0,0,1,31.77,15,.38.38,0,0,1,31.36,15.32ZM35,24.71a.73.73,0,1,1-.53-.89A.73.73,0,0,1,35,24.71Zm1.95-2a.45.45,0,0,1-.24.12.31.31,0,0,1-.24-.12.46.46,0,0,1,0-.53,1.86,1.86,0,0,0,0-2.6.46.46,0,0,1,0-.53A.43.43,0,0,1,37,19,2.66,2.66,0,0,1,37,22.7Z"/><path class="cls-1" d="M33,20.58a.89.89,0,0,0-.17-.54.67.67,0,0,0-.53-.23,1,1,0,0,0-.54.18l-4.48,4.36a.34.34,0,0,1-.41.06.4.4,0,0,1-.24-.35V17.92a1.12,1.12,0,0,0-1.12-1.12,1.08,1.08,0,0,0-1.12,1.12v2.77a.33.33,0,0,1-.24.36.35.35,0,0,1-.41-.06l-1.83-1.71a.72.72,0,0,0-.53-.18.63.63,0,0,0-.53.24.74.74,0,0,0,0,1.06l3.36,3.19a.41.41,0,0,1,.12.29v16.7h2.24V27.18a.31.31,0,0,1,.12-.23l6.08-5.9A.55.55,0,0,0,33,20.58Z"/><path class="cls-1" d="M14.78,30.08a.77.77,0,1,0,.77.76A.78.78,0,0,0,14.78,30.08Z"/><path class="cls-1" d="M38.79,29.43a1.82,1.82,0,0,0-1.35.53,1.8,1.8,0,0,0-.53,1.53h.23A1.89,1.89,0,0,0,38.5,31,1.83,1.83,0,0,0,39,29.43C38.91,29.49,38.85,29.43,38.79,29.43Z"/><path class="cls-1" d="M18.26,37.45A1.9,1.9,0,0,0,16.9,38a1.86,1.86,0,0,0-.53,1.54h.24A1.9,1.9,0,0,0,18,39a1.86,1.86,0,0,0,.53-1.54Z"/><path class="cls-1" d="M12.07,33.73a2,2,0,0,0-.54,0,1.75,1.75,0,0,0-1.06.35,2,2,0,0,0,1.18,1.18,1.63,1.63,0,0,0,.53.06,1.77,1.77,0,0,0,1.07-.36A2,2,0,0,0,12.07,33.73Z"/><path class="cls-1" d="M32.3,34.15a1.57,1.57,0,0,0-.53-.06,1.82,1.82,0,0,0-1.06.35,1.94,1.94,0,0,0,1.18,1.18,1.63,1.63,0,0,0,.53.06,1.77,1.77,0,0,0,1.06-.35A1.89,1.89,0,0,0,32.3,34.15Z"/></g></svg>