<svg id="Слой_1" data-name="Слой 1" xmlns="http://www.w3.org/2000/svg" viewBox="0 0 50 50"><defs><style>.cls-1{fill:#fff;}.cls-2{fill:#042f2e;}</style></defs><g id="_557_Damage_Deforestation_Destruction_Environment" data-name="557, Damage, Deforestation, Destruction, Environment"><path class="cls-1" d="M9.26,33.62a1.59,1.59,0,1,1-1.59,1.59A1.58,1.58,0,0,1,9.26,33.62Z"/><path class="cls-1" d="M36.66,16.89h-7c2.22-1.65,1.84-5.46,1.84-5.46h7.76s-.45,4.07,1.84,5.46Z"/><path class="cls-1" d="M33.1,32.41C33,34,32.72,41.18,37,43.92H12.44c4.76-3.5,3.94-11.83,3.94-11.83H33.1Z"/><path class="cls-1" d="M12.56,21.73h7.63s-.57,5.21,2.35,7.05H7.86c2.86-2.09,2.35-7,2.35-7Z"/><path class="cls-1" d="M34.31,31.26c-.07-.19-.13-.38-.19-.57a2.94,2.94,0,0,1,2.41-3.37c2.61-.44,4.26,1.46,5.66,2.1-1.65.13-2.48,3.31-4.64,3.69A3,3,0,0,1,34.31,31.26Z"/><path class="cls-2" d="M9.26,37.56a2.42,2.42,0,1,1,2.41-2.42A2.42,2.42,0,0,1,9.26,37.56Zm0-3.18a.83.83,0,1,0,.82.83A.84.84,0,0,0,9.26,34.38Z"/><path class="cls-2" d="M37,33.93a3.62,3.62,0,0,1-3.43-2.41c-.07-.26-.13-.45-.19-.7h0a3.72,3.72,0,0,1,.63-2.8,4,4,0,0,1,3.31-1.59A7.35,7.35,0,0,1,41.49,28a6.45,6.45,0,0,0,1.08.64.81.81,0,0,1,.45.89.74.74,0,0,1-.7.63c-.45.07-1,.7-1.46,1.34a5.54,5.54,0,0,1-3.18,2.35C37.49,33.87,37.23,33.93,37,33.93ZM37.29,28a1.94,1.94,0,0,0-.63.07,1.78,1.78,0,0,0-1.34.89,2.33,2.33,0,0,0-.38,1.58,1,1,0,0,0,.13.39,2.19,2.19,0,0,0,2,1.39.84.84,0,0,0,.38-.06h0c.89-.13,1.53-1,2.16-1.78a8.55,8.55,0,0,1,1-1.14"/><path class="cls-2" d="M33.1,33.17a1.1,1.1,0,0,1-.45-.13A.81.81,0,0,1,32.4,32a.06.06,0,0,1,.06-.06h0a5.78,5.78,0,0,1,1.4-1.34,8.68,8.68,0,0,1,3-1.39.78.78,0,0,1,.38,1.52,7.56,7.56,0,0,0-2.48,1.15,7.93,7.93,0,0,0-1.08,1A.55.55,0,0,1,33.1,33.17Z"/><path class="cls-2" d="M37,44.74H12.44a.81.81,0,0,1-.77-.57.77.77,0,0,1,.26-.89c4.32-3.18,3.62-11,3.62-11.13a1,1,0,0,1,.19-.63.7.7,0,0,1,.57-.26H33.1a.81.81,0,0,1,.57.26.76.76,0,0,1,.19.63v.26c-.13,1.33-.38,8.33,3.63,10.81a.73.73,0,0,1,.31.89A.75.75,0,0,1,37,44.74ZM14.41,43.15H34.94a10.94,10.94,0,0,1-2.29-5.21,27,27,0,0,1-.38-5H17.2C17.27,34.89,17.14,39.85,14.41,43.15Z"/><path class="cls-2" d="M20.32,38.77a.85.85,0,0,1-.83-.83V32a.83.83,0,0,1,1.66,0v5.91A.85.85,0,0,1,20.32,38.77Z"/><path class="cls-2" d="M24.26,39.78a.85.85,0,0,1-.83-.82V37a.8.8,0,0,1,.83-.77.83.83,0,0,1,.83.77v2A.89.89,0,0,1,24.26,39.78Z"/><path class="cls-2" d="M29.16,44.74a.84.84,0,0,1-.83-.82V36A.83.83,0,0,1,30,36v7.89A.84.84,0,0,1,29.16,44.74Z"/><path class="cls-2" d="M22.54,29.61H7.86A.81.81,0,0,1,7.09,29a.76.76,0,0,1,.26-.89c2.41-1.78,2-6.3,2-6.36a1.12,1.12,0,0,1,.19-.63.69.69,0,0,1,.58-.26h10a.81.81,0,0,1,.57.26.76.76,0,0,1,.19.63c0,.06-.44,4.77,2,6.3a.73.73,0,0,1,.32.89C23.24,29.36,22.93,29.61,22.54,29.61ZM9.7,28h11a10.06,10.06,0,0,1-1.27-5.47H11A10.81,10.81,0,0,1,9.7,28Z"/><path class="cls-2" d="M12.56,26.05a.84.84,0,0,1-.82-.83V21.73a.83.83,0,1,1,1.65,0v3.49A.8.8,0,0,1,12.56,26.05Z"/><path class="cls-2" d="M14.91,26.69a.85.85,0,0,1-.82-.83V24.65a.83.83,0,0,1,1.65,0v1.21A.85.85,0,0,1,14.91,26.69Z"/><path class="cls-2" d="M17.84,29.61a.84.84,0,0,1-.83-.83v-4.7a.83.83,0,1,1,1.66,0v4.7A.85.85,0,0,1,17.84,29.61Z"/><path class="cls-2" d="M41.05,17.72H29.67a.81.81,0,0,1-.77-.57.77.77,0,0,1,.26-.89c1.78-1.34,1.52-4.71,1.52-4.77a1.17,1.17,0,0,1,.19-.64.7.7,0,0,1,.58-.25H39.2a.8.8,0,0,1,.57.25.7.7,0,0,1,.19.64c-.12,1-.06,3.75,1.47,4.71a.74.74,0,0,1,.32.89A.75.75,0,0,1,41.05,17.72Zm-9.67-1.59h7.89a7.82,7.82,0,0,1-.89-3.88H32.27A8.07,8.07,0,0,1,31.38,16.13Z"/><path class="cls-2" d="M36.66,17.72a.84.84,0,0,1-.83-.83V14.48a.83.83,0,1,1,1.66,0v2.41A.85.85,0,0,1,36.66,17.72Z"/><path class="cls-2" d="M18.79,17.72H11.61a.83.83,0,1,1,0-1.65h7.18a.84.84,0,0,1,.83.82A.88.88,0,0,1,18.79,17.72Z"/><path class="cls-2" d="M23.56,17.72H21.15a.83.83,0,1,1,0-1.65h2.41a.84.84,0,0,1,.83.82A.89.89,0,0,1,23.56,17.72Z"/><path class="cls-2" d="M26,17.72h0a.8.8,0,0,1-.83-.83.84.84,0,0,1,.83-.82H26a.84.84,0,0,1,.83.82A1,1,0,0,1,26,17.72Z"/><path class="cls-2" d="M33.1,24.84H25.91a.83.83,0,0,1,0-1.65H33.1a.83.83,0,0,1,0,1.65Z"/><path class="cls-2" d="M37.87,24.84H35.45a.83.83,0,1,1,0-1.65h2.42a.83.83,0,0,1,0,1.65Z"/><path class="cls-2" d="M40.28,24.84h0a.79.79,0,0,1-.82-.82.84.84,0,0,1,.82-.83h.07a.84.84,0,0,1,.82.83A.89.89,0,0,1,40.28,24.84Z"/></g></svg>