<?xml version="1.0" encoding="utf-8"?>
<!-- Generator: Adobe Illustrator 26.0.1, SVG Export Plug-In . SVG Version: 6.00 Build 0)  -->
<svg version="1.1" id="Слой_1" xmlns="http://www.w3.org/2000/svg" xmlns:xlink="http://www.w3.org/1999/xlink" x="0px" y="0px"
	 viewBox="0 0 484.5 227.3" style="enable-background:new 0 0 484.5 227.3;" xml:space="preserve">
<style type="text/css">
	.st0{fill:#115E59;}
</style>
<g>
	<path class="st0" d="M54.3,177.1c-1.1-10.1-3.1-20.5-3.3-30.9c-0.5-20.6,8.3-36.6,26-47.6c5-3.1,9.9-6.4,14.9-9.7
		c17.1-11.5,30.1-26,34.7-47c3.1,19.4-0.4,37.4-13.2,52.4c-7,8.2-15.3,15.8-24.3,21.6C68.4,129.5,58,147.6,60,172.4
		c0.5-1.2,1.5-2.4,1.7-3.8C64.4,144.5,79.6,130,99,118c15.4-9.5,26.9-22.9,32.1-40.9c-1.1,26.8-9.7,50-33.4,64.4
		c-18.9,11.4-35.3,23.9-36.4,51.1c-15.6-17.4-25.7-34.3-27.9-55c-2.6-24.8,7.2-44.4,26.5-59.5c6.4-5,13-9.7,19.7-14.3
		C96.5,52.2,110.9,38.4,117,17c5.2,18,1.2,35.9-13.1,49.7c-10.2,9.9-21.7,18.7-33.6,26.6C42.3,112,39.2,150.6,54.3,177.1z"/>
</g>
<image style="overflow:visible;enable-background:new    ;" width="442" height="98" xlink:href="ecoUnion.png"  transform="matrix(1 0 0 1 21.2748 298.1451)">
</image>
</svg>
