<?xml version="1.0" encoding="utf-8"?>
<!-- Generator: Adobe Illustrator 26.0.1, SVG Export Plug-In . SVG Version: 6.00 Build 0)  -->
<svg version="1.1" id="Слой_1" xmlns="http://www.w3.org/2000/svg" xmlns:xlink="http://www.w3.org/1999/xlink" x="0px" y="0px"
	 viewBox="0 0 247 216" style="enable-background:new 0 0 247 216;" xml:space="preserve">
<style type="text/css">
	.st0{fill:#115E59;}
</style>
<g>
	<path class="st0" d="M14,101V66c0-0.4,0.1-0.8,0.4-1s0.7-0.4,1.1-0.4h16c0.4,0,0.8,0.1,1.1,0.4c0.2,0.3,0.4,0.6,0.4,1v3.7
		c0,0.3-0.1,0.5-0.2,0.7c-0.1,0.2-0.3,0.4-0.5,0.5c-0.2,0.1-0.5,0.2-0.7,0.2h-11v8.3h8.1c0.4,0,0.7,0.1,1,0.4c0.2,0.2,0.4,0.6,0.4,1
		v3.8c0,0.4-0.1,0.7-0.4,1c-0.2,0.2-0.6,0.4-1,0.4h-8.2v9.8h10.9c0.4,0,0.8,0.1,1.1,0.4s0.4,0.6,0.4,1v3.7c0,0.3-0.1,0.5-0.2,0.7
		c-0.1,0.2-0.3,0.4-0.5,0.5s-0.5,0.2-0.7,0.2h-16c-0.4,0-0.8-0.1-1.1-0.4C14.1,101.7,14,101.4,14,101z"/>
	<path class="st0" d="M35.2,101.4c0-0.1,0-0.2,0-0.2l7.1-35.1c0.1-0.4,0.3-0.8,0.7-1c0.4-0.3,0.8-0.4,1.2-0.4H51
		c0.3,0,0.6,0.1,0.9,0.2c0.3,0.1,0.5,0.3,0.7,0.5c0.2,0.2,0.4,0.5,0.4,0.7l7.1,35.1c0,0.1,0,0.1,0,0.2c0,0.4-0.1,0.6-0.4,0.8
		c-0.2,0.2-0.6,0.3-1,0.3h-4.6c-0.8,0-1.3-0.4-1.4-1.2L51,92.5h-6.8l-1.6,8.9c-0.1,0.4-0.2,0.7-0.4,0.9c-0.2,0.2-0.5,0.2-1,0.2h-4.6
		c-0.4,0-0.8-0.1-1-0.4C35.4,102,35.2,101.8,35.2,101.4z M50.4,86.2l-2.3-13.6c0-0.1-0.1-0.2-0.1-0.2c-0.1-0.1-0.1-0.1-0.2-0.1
		c-0.1,0-0.1,0-0.2,0.1c-0.1,0.1-0.1,0.1-0.1,0.2l-2.3,13.6H50.4z"/>
	<path class="st0" d="M63.7,101.3v-35c0-0.3,0-0.6,0.2-0.8c0.1-0.2,0.3-0.4,0.5-0.5c0.2-0.1,0.5-0.2,0.8-0.2h10.6
		c1.7,0,3.1,0.4,4.4,1c1.2,0.6,2.2,1.5,2.9,2.7c0.7,1.1,1.1,2.4,1.1,3.9V79c0,0.9-0.2,1.7-0.5,2.5c-0.4,0.8-0.8,1.5-1.4,2.2
		c-0.6,0.6-1.3,1.2-2.1,1.7l0.1,0.1l5.4,15.9c0.1,0.1,0.1,0.2,0.1,0.4c0,0.2-0.1,0.4-0.3,0.6c-0.2,0.2-0.4,0.2-0.7,0.2h-4.7
		c-0.2,0-0.5-0.1-0.7-0.2s-0.5-0.2-0.6-0.5c-0.2-0.2-0.3-0.4-0.4-0.6L74,87.7c-0.5-0.2-0.9-0.4-1.4-0.4c-0.6,0-1.1,0.2-1.5,0.6v13.2
		c0,0.4-0.1,0.6-0.4,0.9c-0.3,0.2-0.6,0.4-1.1,0.4h-4.3c-0.4,0-0.8-0.1-1.1-0.4C63.8,102,63.7,101.6,63.7,101.3z M74.2,80.9
		c0.5,0,1.1-0.1,1.5-0.4c0.5-0.2,0.8-0.6,1.1-1.1c0.3-0.4,0.4-0.9,0.4-1.4v-4.9c0-0.5-0.1-1.1-0.4-1.5c-0.3-0.5-0.6-0.8-1.1-1.1
		s-0.9-0.4-1.5-0.4h-2.9c-0.2,0-0.4,0.1-0.5,0.2c-0.1,0.2-0.2,0.4-0.2,0.5v9.1c0,0.2,0.1,0.5,0.3,0.6c0.2,0.2,0.4,0.3,0.6,0.3
		C71.4,80.9,74.2,80.9,74.2,80.9z"/>
	<path class="st0" d="M93.8,101.1V70.8h-4.4c-0.5,0-0.8-0.1-1.1-0.4c-0.3-0.3-0.4-0.5-0.4-0.9v-3.6c0-0.4,0.1-0.7,0.4-0.9
		c0.3-0.2,0.6-0.4,1.1-0.4h15.8c0.3,0,0.5,0.1,0.8,0.2c0.2,0.1,0.4,0.3,0.6,0.5c0.1,0.2,0.2,0.4,0.2,0.6v3.7c0,0.2-0.1,0.5-0.2,0.6
		c-0.1,0.2-0.4,0.4-0.6,0.5c-0.2,0.1-0.5,0.2-0.8,0.2h-4.6v30.2c0,0.4-0.1,0.8-0.4,1.1c-0.3,0.3-0.6,0.4-1,0.4h-4
		c-0.2,0-0.5-0.1-0.6-0.2c-0.2-0.1-0.4-0.3-0.5-0.5C94,101.6,93.8,101.3,93.8,101.1z"/>
	<path class="st0" d="M110.2,101.1v-35c0-0.2,0.1-0.5,0.2-0.6c0.1-0.3,0.3-0.4,0.5-0.5c0.2-0.1,0.4-0.2,0.6-0.2h4
		c0.4,0,0.8,0.1,1.1,0.4c0.3,0.3,0.4,0.6,0.4,1v13.4l10.3-0.1V66.1c0-0.2,0.1-0.5,0.2-0.6c0.1-0.2,0.4-0.4,0.6-0.5s0.5-0.2,0.8-0.2
		h3.9c0.2,0,0.5,0.1,0.8,0.2c0.2,0.1,0.4,0.3,0.6,0.5c0.1,0.2,0.2,0.4,0.2,0.6v35c0,0.3-0.1,0.5-0.2,0.7c-0.1,0.2-0.3,0.4-0.5,0.5
		s-0.5,0.2-0.8,0.2H129c-0.3,0-0.5-0.1-0.8-0.2c-0.2-0.1-0.4-0.3-0.5-0.5c-0.1-0.2-0.2-0.5-0.2-0.7v-15H117v15
		c0,0.3-0.1,0.5-0.2,0.7c-0.1,0.2-0.3,0.4-0.5,0.5s-0.5,0.2-0.7,0.2h-4c-0.2,0-0.5-0.1-0.6-0.2c-0.2-0.1-0.4-0.3-0.5-0.5
		C110.2,101.6,110.2,101.3,110.2,101.1z"/>
	<path class="st0" d="M13.7,153.2v-35.4c0-0.2,0.1-0.5,0.2-0.7c0.1-0.2,0.3-0.4,0.5-0.5s0.4-0.2,0.6-0.2h4c0.2,0,0.5,0.1,0.6,0.2
		c0.2,0.1,0.4,0.3,0.5,0.5c0.1,0.2,0.2,0.5,0.2,0.7v30.1h8.1c0.4,0,0.7,0.1,0.9,0.4c0.2,0.2,0.4,0.5,0.4,0.9v4.1
		c0,0.4-0.1,0.6-0.4,0.9c-0.2,0.2-0.5,0.4-0.9,0.4H14.9c-0.2,0-0.5-0.1-0.6-0.2c-0.2-0.1-0.4-0.3-0.5-0.5
		C13.8,153.6,13.7,153.4,13.7,153.2z"/>
	<path class="st0" d="M33.5,153.1v-35c0-0.4,0.1-0.8,0.4-1.1c0.3-0.3,0.6-0.4,1-0.4h4c0.2,0,0.5,0.1,0.6,0.2
		c0.2,0.1,0.4,0.3,0.5,0.5c0.1,0.2,0.2,0.5,0.2,0.7v35c0,0.3-0.1,0.5-0.2,0.7s-0.3,0.4-0.5,0.5c-0.2,0.1-0.4,0.2-0.6,0.2h-4
		c-0.4,0-0.8-0.1-1-0.4C33.6,153.9,33.5,153.6,33.5,153.1z"/>
	<path class="st0" d="M46.5,152.8v-33.9c0-0.4,0.1-0.8,0.4-1.2c0.2-0.4,0.5-0.6,0.9-0.8c0.4-0.2,0.8-0.3,1.2-0.3h11
		c1.4,0.1,2.5,0.4,3.4,0.9c0.9,0.5,1.7,1.3,2.4,2.4c0.6,1.1,0.9,2.4,0.9,3.8l0.1,4.1c0,0.9-0.1,1.8-0.4,2.7
		c-0.2,0.9-0.6,1.8-1.2,2.6c-0.6,0.8-1.4,1.4-2.4,1.6c1.7,0.3,2.9,1.1,3.7,2.4s1.4,3.1,1.4,5.3l0.1,3.7c0,1.4-0.2,2.7-0.6,3.7
		c-0.4,1.1-1,1.9-1.7,2.5c-0.7,0.6-1.4,1.1-2.2,1.4c-1.1,0.4-2.1,0.6-2.7,0.6H48.2c-0.3,0-0.6-0.1-0.9-0.2c-0.3-0.1-0.5-0.4-0.6-0.6
		S46.5,153.1,46.5,152.8z M57.1,132.1c0.5,0,1-0.2,1.5-0.5c0.5-0.4,0.8-0.8,1.1-1.4c0.2-0.6,0.4-1.3,0.4-2.1l-0.1-2.6
		c0-1.3-0.3-2.3-0.8-2.9c-0.6-0.6-1.4-1-2.5-1h-2.9c-0.2,0-0.4,0.1-0.6,0.3c-0.2,0.2-0.2,0.4-0.2,0.6l0.1,9.1c0,0.4,0.2,0.5,0.6,0.5
		H57.1z M57.9,149.5c1.1-0.2,1.9-0.6,2.5-1.4c0.5-0.7,0.8-1.7,0.8-2.9l0.1-2.8c0-1.1-0.1-2-0.5-2.7c-0.3-0.6-0.8-1.1-1.4-1.4
		c-0.6-0.3-1.4-0.4-2.3-0.4h-3.4c-0.3,0-0.5,0.1-0.6,0.3c-0.1,0.2-0.2,0.5-0.2,0.7l0.1,9.8c0,0.2,0.1,0.4,0.2,0.5
		c0.1,0.1,0.4,0.2,0.6,0.2L57.9,149.5L57.9,149.5z"/>
	<path class="st0" d="M72.4,152.9v-35c0-0.4,0.1-0.8,0.4-1c0.3-0.2,0.6-0.4,1.1-0.4h16c0.4,0,0.8,0.1,1.1,0.4s0.4,0.6,0.4,1v3.7
		c0,0.3-0.1,0.5-0.2,0.7s-0.3,0.4-0.5,0.5s-0.4,0.2-0.6,0.2h-11v8.3h8.3c0.4,0,0.7,0.1,1,0.4c0.2,0.2,0.4,0.6,0.4,1v3.8
		c0,0.4-0.1,0.7-0.4,1c-0.2,0.2-0.6,0.4-1,0.4h-8.3v9.8H90c0.4,0,0.8,0.1,1.1,0.4s0.4,0.6,0.4,1v3.7c0,0.3-0.1,0.5-0.2,0.7
		s-0.3,0.4-0.5,0.5c-0.2,0.1-0.5,0.2-0.7,0.2h-16c-0.4,0-0.8-0.1-1.1-0.4C72.6,153.7,72.4,153.3,72.4,152.9z"/>
	<path class="st0" d="M96.1,153.3v-35c0-0.3,0.1-0.5,0.2-0.8c0.1-0.2,0.3-0.4,0.5-0.5s0.5-0.2,0.8-0.2h10.6c1.7,0,3.1,0.4,4.4,1
		c1.2,0.6,2.2,1.5,2.9,2.7c0.7,1.1,1.1,2.4,1.1,3.9v6.6c0,0.9-0.2,1.7-0.5,2.5c-0.4,0.8-0.8,1.5-1.4,2.2c-0.6,0.6-1.3,1.2-2.1,1.7
		l0.1,0.1l5.4,15.9c0.1,0.1,0.1,0.2,0.1,0.4s-0.1,0.4-0.3,0.6c-0.2,0.2-0.4,0.2-0.7,0.2h-4.7c-0.2,0-0.5-0.1-0.7-0.2
		c-0.2-0.1-0.5-0.2-0.6-0.5c-0.2-0.2-0.3-0.4-0.4-0.6l-4.4-13.6c-0.5-0.2-0.9-0.4-1.4-0.4c-0.6,0-1.1,0.2-1.5,0.6V153
		c0,0.4-0.1,0.6-0.4,0.9c-0.3,0.2-0.6,0.4-1.1,0.4h-4.3c-0.4,0-0.8-0.1-1.1-0.4C96.2,153.9,96.1,153.6,96.1,153.3z M106.5,132.9
		c0.5,0,1.1-0.1,1.5-0.4c0.5-0.2,0.8-0.6,1.1-1.1c0.3-0.4,0.4-0.9,0.4-1.4v-5c0-0.5-0.1-1.1-0.4-1.5s-0.6-0.8-1.1-1.1
		c-0.5-0.2-0.9-0.4-1.5-0.4h-2.9c-0.2,0-0.4,0.1-0.5,0.2c-0.1,0.2-0.2,0.4-0.2,0.5v9.1c0,0.2,0.1,0.5,0.3,0.6
		c0.2,0.2,0.4,0.3,0.6,0.3L106.5,132.9L106.5,132.9z"/>
	<path class="st0" d="M120.3,153.4c0-0.1,0-0.2,0-0.2l7.1-35.1c0.1-0.4,0.3-0.8,0.7-1c0.4-0.3,0.8-0.4,1.2-0.4h6.8
		c0.3,0,0.6,0.1,0.9,0.2c0.3,0.1,0.5,0.3,0.7,0.5c0.2,0.2,0.4,0.5,0.4,0.7l7.1,35.1c0,0.1,0,0.1,0,0.2c0,0.4-0.1,0.6-0.4,0.8
		c-0.3,0.2-0.6,0.3-1,0.3h-4.6c-0.8,0-1.3-0.4-1.4-1.2l-1.7-8.8h-7l-1.7,8.8c-0.1,0.4-0.2,0.7-0.4,0.9c-0.2,0.2-0.5,0.3-1,0.3h-4.4
		c-0.4,0-0.8-0.1-1-0.4C120.5,154,120.3,153.7,120.3,153.4z M135.5,138.2l-2.3-13.6c0-0.1-0.1-0.2-0.1-0.2c-0.1-0.1-0.1-0.1-0.2-0.1
		s-0.1,0-0.2,0.1s-0.1,0.1-0.1,0.2l-2.3,13.6H135.5z"/>
	<path class="st0" d="M152.5,153v-30.2h-4.4c-0.5,0-0.8-0.1-1.1-0.4s-0.4-0.5-0.4-0.9v-3.7c0-0.4,0.1-0.7,0.4-0.9
		c0.3-0.2,0.6-0.4,1.1-0.4h15.8c0.3,0,0.5,0.1,0.8,0.2c0.2,0.1,0.4,0.3,0.6,0.5c0.1,0.2,0.2,0.4,0.2,0.6v3.7c0,0.2-0.1,0.5-0.2,0.6
		c-0.1,0.2-0.4,0.4-0.6,0.5s-0.5,0.2-0.8,0.2h-4.6V153c0,0.4-0.1,0.8-0.4,1.1c-0.3,0.3-0.6,0.4-1,0.4h-4c-0.2,0-0.5-0.1-0.6-0.2
		c-0.2-0.1-0.4-0.3-0.5-0.5C152.5,153.6,152.5,153.3,152.5,153z"/>
	<path class="st0" d="M169.5,153.1v-35c0-0.4,0.1-0.8,0.4-1.1c0.3-0.3,0.6-0.4,1-0.4h4c0.2,0,0.5,0.1,0.6,0.2
		c0.2,0.1,0.4,0.3,0.5,0.5c0.1,0.2,0.2,0.5,0.2,0.7v35c0,0.3-0.1,0.5-0.2,0.7s-0.3,0.4-0.5,0.5c-0.2,0.1-0.4,0.2-0.6,0.2h-4
		c-0.4,0-0.8-0.1-1-0.4C169.6,153.9,169.5,153.6,169.5,153.1z"/>
	<path class="st0" d="M183.5,149.5c-0.9-1.7-1.4-3.4-1.4-5.3v-17.8c0-1.2,0.2-2.5,0.6-3.6c0.4-1.2,1-2.2,1.8-3.1
		c0.8-0.9,1.7-1.7,2.8-2.3c1.5-0.9,3.2-1.4,5.2-1.4h1.8c1.2,0,2.4,0.2,3.6,0.6c1.1,0.4,2.2,1,3.1,1.8c0.9,0.8,1.7,1.7,2.3,2.7
		c0.9,1.5,1.4,3.3,1.4,5.2l0.1,17.9c0,1.2-0.2,2.4-0.6,3.6c-0.4,1.2-1,2.2-1.8,3.2c-0.8,0.9-1.7,1.8-2.8,2.4c-1.6,1-3.3,1.5-5.1,1.5
		h-1.9c-1.2,0-2.4-0.2-3.6-0.6c-1.1-0.4-2.2-1.1-3.1-1.8C185,151.6,184.1,150.7,183.5,149.5z M193.5,148.5c0.8,0,1.5-0.2,2.1-0.6
		c0.6-0.4,1.2-0.9,1.5-1.7c0.4-0.7,0.6-1.4,0.6-2.2v-17.6c0-0.8-0.2-1.5-0.6-2.1s-0.9-1.1-1.5-1.5s-1.4-0.5-2.2-0.5h-0.2
		c-0.8,0-1.5,0.2-2.2,0.5c-0.6,0.4-1.2,0.9-1.6,1.5c-0.4,0.6-0.6,1.4-0.6,2.1v17.7c0,0.8,0.2,1.5,0.6,2.2s0.9,1.2,1.6,1.7
		c0.6,0.4,1.4,0.6,2.2,0.6L193.5,148.5L193.5,148.5z"/>
	<path class="st0" d="M209.5,153v-35c0-0.3,0.1-0.5,0.2-0.7c0.1-0.2,0.3-0.4,0.5-0.5s0.5-0.2,0.8-0.2h6.4c0.3,0,0.6,0.1,0.8,0.2
		c0.3,0.1,0.5,0.3,0.7,0.5c0.2,0.2,0.4,0.4,0.4,0.6l7.8,23.5l-0.6-23.4c0-0.4,0.1-0.8,0.4-1.1c0.3-0.3,0.6-0.4,1-0.4h4.1
		c0.2,0,0.5,0.1,0.6,0.2c0.2,0.1,0.4,0.2,0.5,0.4c0.1,0.2,0.2,0.4,0.2,0.5v35c0,0.6-0.1,1-0.4,1.4c-0.2,0.4-0.6,0.5-1,0.5h-5.6
		c-0.4,0-0.8-0.1-1.2-0.4s-0.6-0.6-0.8-0.9l-8.7-23.9l0.5,23.9c0,0.4-0.1,0.8-0.4,1.1c-0.3,0.3-0.6,0.4-1.1,0.4h-4
		c-0.3,0-0.5-0.1-0.8-0.2c-0.2-0.1-0.4-0.3-0.5-0.5C209.5,153.5,209.5,153.3,209.5,153z"/>
	<path class="st0" d="M13.9,205v-34.9c0-0.2,0.1-0.5,0.2-0.6c0.1-0.2,0.3-0.4,0.5-0.5c0.2-0.1,0.5-0.2,0.8-0.2h16
		c0.3,0,0.6,0.1,0.8,0.2c0.2,0.1,0.4,0.3,0.6,0.5c0.1,0.2,0.2,0.4,0.2,0.6v3.8c0,0.2-0.1,0.5-0.2,0.6c-0.1,0.2-0.4,0.4-0.6,0.5
		c-0.2,0.1-0.5,0.2-0.8,0.2h-11v8.3h8.4c0.4,0,0.8,0.1,1,0.4c0.2,0.2,0.4,0.6,0.4,1v3.8c0,0.4-0.1,0.6-0.4,0.9
		c-0.2,0.2-0.6,0.4-1,0.4h-8.3v15c0,0.2-0.1,0.5-0.2,0.6c-0.1,0.2-0.3,0.4-0.5,0.5s-0.5,0.2-0.7,0.2h-3.6c-0.4,0-0.8-0.1-1.1-0.4
		C14.1,205.7,13.9,205.3,13.9,205z"/>
	<path class="st0" d="M36.6,205.2v-35c0-0.3,0.1-0.5,0.2-0.8c0.1-0.2,0.3-0.4,0.5-0.5c0.2-0.1,0.5-0.2,0.8-0.2h10.6
		c1.7,0,3.1,0.4,4.4,1c1.2,0.6,2.2,1.5,2.9,2.7c0.7,1.1,1.1,2.4,1.1,3.9v6.6c0,0.9-0.2,1.7-0.5,2.5c-0.4,0.8-0.8,1.5-1.4,2.2
		c-0.6,0.6-1.3,1.2-2.1,1.7l0.1,0.1l5.4,15.9c0.1,0.1,0.1,0.2,0.1,0.4s-0.1,0.4-0.3,0.6s-0.4,0.2-0.7,0.2H53c-0.2,0-0.5-0.1-0.7-0.2
		c-0.2-0.1-0.5-0.2-0.6-0.5c-0.2-0.2-0.3-0.4-0.4-0.6l-4.6-13.4c-0.5-0.2-0.9-0.4-1.4-0.4c-0.6,0-1.1,0.2-1.5,0.6v13.2
		c0,0.4-0.1,0.6-0.4,0.9c-0.3,0.2-0.6,0.4-1.1,0.4H38c-0.4,0-0.8-0.1-1.1-0.4C36.8,205.8,36.6,205.5,36.6,205.2z M47.1,184.8
		c0.5,0,1.1-0.1,1.5-0.4c0.5-0.2,0.8-0.6,1.1-1.1c0.3-0.4,0.4-0.9,0.4-1.4v-5c0-0.5-0.1-1.1-0.4-1.5c-0.3-0.5-0.6-0.8-1.1-1.1
		c-0.5-0.2-0.9-0.4-1.5-0.4h-2.9c-0.2,0-0.4,0.1-0.5,0.2c-0.1,0.2-0.2,0.4-0.2,0.5v9.1c0,0.2,0.1,0.5,0.3,0.6
		c0.2,0.2,0.4,0.3,0.6,0.3L47.1,184.8L47.1,184.8z"/>
	<path class="st0" d="M64.2,201.5c-0.9-1.7-1.4-3.4-1.4-5.3v-17.8c0-1.2,0.2-2.5,0.6-3.6c0.4-1.1,1-2.2,1.8-3.1
		c0.8-0.9,1.7-1.7,2.8-2.3c1.5-0.9,3.2-1.4,5.2-1.4H75c1.2,0,2.4,0.2,3.6,0.6c1.1,0.4,2.2,1,3.1,1.8s1.7,1.7,2.3,2.7
		c0.9,1.5,1.4,3.3,1.4,5.2l0.1,17.9c0,1.2-0.2,2.4-0.6,3.6c-0.4,1.2-1,2.2-1.8,3.2c-0.8,0.9-1.7,1.8-2.8,2.4c-1.6,1-3.3,1.5-5.1,1.5
		h-1.8c-1.2,0-2.4-0.2-3.6-0.6c-1.1-0.4-2.2-1.1-3.1-1.8C65.6,203.5,64.8,202.6,64.2,201.5z M74.1,200.4c0.8,0,1.5-0.2,2.1-0.6
		c0.6-0.4,1.2-0.9,1.5-1.7c0.4-0.7,0.6-1.4,0.6-2.2v-17.7c0-0.8-0.2-1.5-0.6-2.1c-0.4-0.6-0.9-1.1-1.5-1.5c-0.6-0.4-1.4-0.5-2.2-0.5
		h-0.2c-0.8,0-1.5,0.2-2.2,0.5c-0.6,0.4-1.2,0.9-1.6,1.5c-0.4,0.6-0.6,1.4-0.6,2.1V196c0,0.8,0.2,1.5,0.6,2.2s0.9,1.2,1.6,1.7
		c0.6,0.4,1.4,0.6,2.2,0.6h0.3C74.1,200.5,74.1,200.4,74.1,200.4z"/>
	<path class="st0" d="M90,205v-35c0-0.3,0.1-0.5,0.2-0.7s0.3-0.4,0.5-0.5c0.2-0.1,0.5-0.2,0.8-0.2h6.4c0.3,0,0.6,0.1,0.8,0.2
		c0.3,0.1,0.5,0.3,0.7,0.5s0.4,0.4,0.4,0.6l7.8,23.5l-0.5-23.4c0-0.4,0.1-0.8,0.4-1.1c0.3-0.3,0.6-0.4,1-0.4h4.2
		c0.2,0,0.5,0.1,0.6,0.2c0.2,0.1,0.4,0.2,0.5,0.4c0.1,0.2,0.2,0.4,0.2,0.5v35c0,0.6-0.1,1-0.4,1.4c-0.2,0.4-0.6,0.5-1,0.5H107
		c-0.4,0-0.8-0.1-1.2-0.4c-0.4-0.3-0.6-0.6-0.8-0.9l-8.8-24l0.5,23.9c0,0.4-0.1,0.8-0.4,1.1s-0.6,0.4-1.1,0.4h-4
		c-0.3,0-0.5-0.1-0.8-0.2c-0.2-0.1-0.4-0.3-0.5-0.5C90.1,205.4,90,205.2,90,205z"/>
	<path class="st0" d="M122.6,205v-30.2h-4.4c-0.5,0-0.8-0.1-1.1-0.4c-0.3-0.2-0.4-0.5-0.4-0.9v-3.7c0-0.4,0.1-0.7,0.4-0.9
		c0.3-0.2,0.6-0.4,1.1-0.4H134c0.3,0,0.5,0.1,0.8,0.2c0.2,0.1,0.4,0.3,0.6,0.5c0.1,0.2,0.2,0.4,0.2,0.6v3.7c0,0.2-0.1,0.5-0.2,0.6
		c-0.1,0.2-0.4,0.4-0.6,0.5c-0.2,0.1-0.5,0.2-0.8,0.2h-4.6V205c0,0.4-0.1,0.8-0.4,1.1c-0.3,0.3-0.6,0.4-1,0.4h-4
		c-0.2,0-0.5-0.1-0.6-0.2c-0.2-0.1-0.4-0.3-0.5-0.5C122.6,205.5,122.6,205.2,122.6,205z"/>
</g>
</svg>
