<?xml version="1.0" encoding="utf-8"?>
<!-- Generator: Adobe Illustrator 26.0.1, SVG Export Plug-In . SVG Version: 6.00 Build 0)  -->
<svg version="1.1"
	 id="svg928" xmlns:cc="http://creativecommons.org/ns#" xmlns:dc="http://purl.org/dc/elements/1.1/" xmlns:rdf="http://www.w3.org/1999/02/22-rdf-syntax-ns#" xmlns:svg="http://www.w3.org/2000/svg"
	 xmlns="http://www.w3.org/2000/svg" xmlns:xlink="http://www.w3.org/1999/xlink" x="0px" y="0px" viewBox="0 0 417 397.2"
	 style="enable-background:new 0 0 417 397.2;" xml:space="preserve">
<style type="text/css">
	.st0{fill:#115E59;}
</style>
<path class="st0" d="M208.5,37.3L208.5,37.3c-89.1,0-161.3,72.2-161.3,161.3s72.2,161.3,161.3,161.3l0,0
	c89.1,0,161.3-72.2,161.3-161.3l0,0C369.8,109.5,297.5,37.3,208.5,37.3z M300.1,95.6L116.5,96c24.4-21.9,56.6-35.2,92-35.2
	C243.7,60.8,275.8,74,300.1,95.6z M208.2,181.1l-53.9-62h107.8L208.2,181.1z M208.5,216.2l53.9,62H154.6L208.5,216.2z M70.7,198.6
	L70.7,198.6c0-37.1,14.7-70.9,38.6-95.6l83.8,95.6l-83.8,95.6C85.4,269.4,70.7,235.7,70.7,198.6z M208.5,336.4
	c-35.3,0-67.5-13.4-92-35.2l183.6,0.3C275.8,323.2,243.7,336.4,208.5,336.4L208.5,336.4z M346.3,198.6c0,37.2-14.7,71-38.7,95.7
	l-83.6-95.7l83.6-95.7C331.6,127.6,346.3,161.4,346.3,198.6L346.3,198.6z"/>
</svg>
