<?xml version="1.0" encoding="utf-8"?>
<!-- Generator: Adobe Illustrator 26.0.1, SVG Export Plug-In . SVG Version: 6.00 Build 0)  -->
<svg version="1.1"
	 id="svg928" xmlns:cc="http://creativecommons.org/ns#" xmlns:dc="http://purl.org/dc/elements/1.1/" xmlns:rdf="http://www.w3.org/1999/02/22-rdf-syntax-ns#" xmlns:svg="http://www.w3.org/2000/svg"
	 xmlns="http://www.w3.org/2000/svg" xmlns:xlink="http://www.w3.org/1999/xlink" x="0px" y="0px" viewBox="0 0 417 397.2"
	 style="enable-background:new 0 0 417 397.2;" xml:space="preserve">
<style type="text/css">
	.st0{fill:#115E59;}
</style>
<path class="st0" d="M208.5,13.8L208.5,13.8c-102.1,0-184.8,82.7-184.8,184.8s82.7,184.8,184.8,184.8l0,0
	c102.1,0,184.8-82.7,184.8-184.8l0,0C393.3,96.5,310.5,13.8,208.5,13.8z M313.5,80.6L103.1,81c28-25.1,64.9-40.3,105.4-40.3
	C248.8,40.7,285.6,55.8,313.5,80.6z M208.2,178.5l-61.8-71.1h123.5L208.2,178.5z M208.5,218.8l61.8,71.1H146.7L208.5,218.8z
	 M50.6,198.6L50.6,198.6c0-42.5,16.8-81.2,44.2-109.5l96,109.5l-96,109.5C67.4,279.7,50.6,241.1,50.6,198.6z M208.5,356.5
	c-40.5,0-77.4-15.3-105.4-40.3l210.4,0.4C285.6,341.4,248.8,356.5,208.5,356.5L208.5,356.5z M366.4,198.6
	c0,42.6-16.9,81.3-44.4,109.7l-95.8-109.7L322,88.9C349.5,117.3,366.4,156,366.4,198.6L366.4,198.6z"/>
</svg>
