<?xml version="1.0" encoding="utf-8"?>
<!-- Generator: Adobe Illustrator 26.0.1, SVG Export Plug-In . SVG Version: 6.00 Build 0)  -->
<svg version="1.1" id="Слой_1" xmlns="http://www.w3.org/2000/svg" xmlns:xlink="http://www.w3.org/1999/xlink" x="0px" y="0px"
	 viewBox="0 0 253 224" style="enable-background:new 0 0 253 224;" xml:space="preserve">
<style type="text/css">
	.st0{fill:#115E59;}
</style>
<g>
	<path class="st0" d="M241.5,39.8c-2.6-2.2-3.5-4.1-3-7.5c1.2-10.2-0.9-14.2-9.1-17.4c-3.6-1.4-7.4-2.3-11.1-2.8
		c-4.9-0.7-9.4,1-11.2,6c-1.7,4.9-2.8,10.1-4.1,15.2c-3.2,13.1-6.7,26.1-17.9,34.8c-16.5,12.4-32.4,26-40.8,27.9
		c-1.5,0.4-7.9,1.6-14.8,5.9c-1.5,0.9-2.6,1.7-3.2,2.2c-1.1,1.2-2.6,2.7-3.2,2.3c-0.6-0.4-0.5-1.8-0.4-2.6c0.5-6.4-3.3-8.6-2.7-14.5
		c0.1-1.1,0.6-4.4,3.1-7.4c2.8-3.3,4.8-3.2,6.4-6.2c0.1-0.4,2.5-4.9-0.2-8.9c-1.7-2.5-4.8-3.8-8.1-3.5c-1.6,0.1-3.8,0.5-6.5,1.6
		c-4.8,2-6.2,4.4-8.5,4.1c-1.2-0.1-3-1.1-5.7-7.9c-4.3-11-3.8-19-5.7-19.2c-0.9-0.1-1.7,1.8-3.5,5.5C87.7,55,86,59,85.3,62.3
		c-0.1,0.6-0.4,2-1.5,2.8c-1.5,1.1-3.5,0.9-4.7,0.6c-2.8-1.6-5.5-3.3-8.4-4.9c-0.7,0.5-1.8,1.2-2.2,2.5c-0.4,1.7,1.1,2.7,2,4.9
		c1.2,3.5,0.2,7.9-2.2,9.2c-0.6,0.4-1.5,0.6-4.3,0.1c-7.5-1.4-11.8-5.7-13.3-4.4c-0.2,0.2-0.5,0.6-0.5,1.7c3.1,3.2,3.9,6.3,3,7.5
		c-0.7,0.9-2.6,0.6-3.6,0.4c-3-2.1-5.9-3-7.1-2c-0.2,0.1-0.5,0.5-0.6,0.9c1.5,3.5,2.7,5.8,3.7,8.3c4.2,10.5-0.1,19.4-11,21.1
		c-7,1.2-14.4,0.1-21.7,0.2c-1,0-1.7,0.6-2.2,0.7c-0.6,0.7-0.6,1.2-0.5,1.5c0.2,1,1.6,1,3.1,2.3c0.6,0.5,1,1.1,1.2,1.4
		c-0.5,0.2-1,0.4-1.5,0.6c-3.3,1.2-6.5,1.2-9,0.9c-0.2,0.1-1.2,0.5-1.5,1.5c-0.2,1.1,0.7,2.6,2.6,3.1c3.1,1.2,8.9,3.9,12.9,10
		c0.9,1.2,2.5,3.1,2.8,5.5c1.2,8.3-3.1,31.2-3.9,32.7c-0.7,1.4,1.1,3.2,2.8,4.8c3.9,3.7,8.5,1.1,12.7,4.3c2.3,1.7,3.1,4.3,4.6,9.2
		c2.6,8.6,0.2,10.6,2.3,13.2c4.6,5.7,22.4,4.1,34.3-3.5c2.5-1.6,6.3-4.6,8.9-3.3c2.1,1.1,2.6,4.9,3,7.4c0.1,1,0.4,3.2,0,5.9
		c-1.7,11.1-13.7,19.8-11.3,28.1c0.9,2.8,3.5,6,5.1,5.3c1.5-0.7,2.3-2.7,3.3-4.2c1.5-2.6,2.1-3.9,2.8-6c3.5-9.6,5.8-16.4,5.7-25.9
		c-0.1-3.7-0.6-9-2.6-15.2c11.2,0.9,16.4,3.7,19.1,6.3c0.9,0.9,3.8,3.9,8.6,7c1.5,1,2.8,1.6,3.6,2.1c3.6,0.6,4.8,0.1,5.2-0.6
		c0.5-0.9-0.6-1.8-0.5-3.6c0.2-1.8,1.8-3.5,3.5-4.1c2.7-1.2,4.6,0.7,8.6,0.5c2.6-0.1,4.7-1,6-1.7c0.6-0.6,1.5-1.7,2-3.2
		c0.9-2.3,0.1-3.6,0.5-7.4c0.2-3,0.5-4.4,1.6-5.5c1-1,2.5-1.4,4.8-1.2c1.8,0.1,3.8-0.9,5.7-1.5c0-0.6-0.1-1.2-0.1-1.8
		c-1.4-0.5-3-0.6-4.2-1.4c-2.6-1.7-7.3-3.9-7.1-5.5c0.5-5.4-2.8-7.4-6.2-9.7c-2.6-1.8-3.8-3.7-3.8-5.4c0-0.9,0.2-2.2,3.6-5.4
		c1.8-1.7,4.7-4.2,8.8-6.4c1.5-0.7,1.8-1.4,1.8-1.7c-0.2-2.2-12.1-1.8-12.3-4.4c-0.1-0.6,0.6-1.2,1.4-1.8c2.7-1.2,4.8-2.5,6.3-3.5
		c4.8-3.2,6.2-5.7,6.7-6.8s1.1-2.6,0.5-3.7c-0.9-1.4-3.2-1.2-3.3-1.2c10.8-10.2,21-16.1,27.7-20.3C197.2,87,216.4,72,241.1,68.3
		c4.8-0.7,9.7-8.8,9.9-13.7C250.8,47.5,245.9,43.6,241.5,39.8z M238,63.6c-6.2,2-12.6,3.3-18.2,6.4c-17.9,9.7-35.7,19.5-52.9,30.4
		c-8.6,5.5-15.5,13.7-23.4,20.2c-2.8,2.3-6.7,3.6-10.6,5.5c2.2,0.7,3.9,0.6,5.2,0.4c3.5-0.7,5.1-3.2,8.4-2.8c0.4,0,1.5,0.1,1.6,0.6
		c0.2,0.7-1.6,2-3,2.7c-2.1,0.9-3.8,1.7-4.9,2.3c-3.3,1.8-5.1,2.8-6.2,4.7c-1,1.7-0.4,2.3-1.5,4.2c-1.8,3.3-5.1,3.9-4.9,4.6
		c0.1,0.5,3,0.6,13.3-1.2c1.2,0.4,1.5,0.7,1.5,1c0.2,1.8-9.9,2.7-11.7,8.3c-0.6,2-0.1,4.3,0,4.9c0.4,1.8,1.1,3.3,1.8,4.6
		c2,3.2,6.4,9,12.7,15.9c-3.6,1.6-4.8,3.3-5.2,4.8c0,0.1,0,0.5-0.1,1.4c-0.2,3-0.2,4.2-0.6,5.9c-0.1,0.5-0.2,1-0.6,1.7
		c-0.2,0.5-0.6,1-1,1.4c-0.6,0.6-1.4,1.1-2.2,1.4c-0.5,0.1-1.1,0.1-1.6,0.2c-0.7,0.1-2.3-0.4-2.3-0.4c-3.9,0.2-7.5,1-10.2,4.2
		c-0.1,0.2-0.4,0.5-0.6,0.7c0,0,0,0.1-0.1,0.1c-0.1,0.1-0.2,0.2-0.5,0.4c-0.5,0.2-1,0.4-1.6,0.4c-0.4,0-0.7-0.1-1.1-0.1h-0.1
		c0,0,0,0,0.1,0c-0.1,0-0.1,0-0.2,0c0,0,0,0,0,0.1c0,0-1.1-0.7-1.5-1.2c-12.2-10-28.8-12.7-43-2.5c-4.1,3-8.4,5.8-12.9,8.1
		c-2.5,1.2-4.9,0.4-6.9,0.1c-4.2-0.4-7.9-0.7-9.6-3.5c-0.4-0.6-1.5-2.5-0.7-5.9c-0.2-7.5-2.7-11.5-4.8-13.7
		C31.7,173.5,20,173,20,169.2c0-0.1,0.1-1.1,0.6-3.1c0.2-1,0.5-2.2,0.7-3.9c0.6-3.3,1-5.9,1.2-7.6c1.6-11.2,2.3-16.9,0.2-19.7
		c-0.5-0.7-2-2-4.8-4.2c-1.5-1.1-3.3-2.6-5.8-5.2c-1.4-1.5-2.5-2.7-2.2-3.7c0.9-2.6,9.1-1.6,9.5-3.5c0.2-1.1-2.8-2.2-2.6-3.1
		c0.2-1.2,6.7-0.1,12.9-0.6c4.3-0.4,13.1-1,17.3-5.9c4.4-5.3,3.3-15-1.7-24.4c0.1-0.2,0.2-0.7,0.5-0.7c0.5-0.1,1,0.9,2.2,1.6
		s2.5,0.7,3.5,0.7c1.1,0,2-0.2,2.6-0.4c0.4-0.2,1.7-1.2,2.1-3.1c0.4-2-0.6-4.3-2.6-5.5c10,5.3,14.4,5.3,16.5,3.5
		c3.6-3.1,1-12.6,3.2-13.1c1-0.2,1.7,1.7,4.4,2.7c0.2,0.1,2.8,0.9,4.9,0.1c2.8-1.1,3.3-4.3,7-12.9c2.8-6.8,3.6-7,3.9-7
		c1.7,0.2,1.8,6.8,6.2,17.3c2,4.7,3.2,6.5,4.9,6.9c1.6,0.2,3.5-1,7.3-3.6c2-1.2,2.7-2,4.4-2.5c1-0.4,3-1,4.8-0.2
		c2.3,1,3.3,3.8,3.6,5.9c0.6,6.5-7.3,8.1-8,15.3c-0.6,6.5,5.5,10.5,3.3,14.2c-1.8,3-6.3,3.2-6.3,5.2c0,1.2,1.7,2.2,3.1,2.8
		c1.4,0.1,3.3,0.2,5.4-0.6c2-0.7,3.2-1.8,3.5-2.1c5.1-4.6,25-11,25-11c10.7-3.5,29.1-16.8,44.1-33.4c6.4-7.1,9.9-16.1,11-25.8
		c0.7-6.4,0.7-13.3,5.8-18.1c0.9-0.9,3.5-3.3,7.3-3.6c5.8-0.5,11.5,4.2,12.9,9.4c1.5,5.1-2.3,6.7-0.5,10.8c1,2.2,4.4,4.8,11.2,10
		c1.1,0.9,2.1,1.5,2.8,2.8c1.6,2.7,1.6,6.4,0.1,9.1C243.9,61.4,241,62.6,238,63.6z"/>
	<path class="st0" d="M85.4,183.9c-11.7,0.1-19.4-5.5-26.6-13.6c-9.6-10.6-8.9-23.5-10.4-36c-0.4-3.6,2.2-4.9,5.4-3.1
		c1.1,0.7,2.6,1.7,3,2.8c2.3,6.7,8.1,7.5,13.7,9.1c9.5,2.7,19,4.7,28-1.2c3.3-2.2,6-5.4,9.2-8c1.5-1.2,3.3-2.1,5.1-3.1
		c0.7,2,2.2,4.1,2.1,6c-0.4,3.9-1.1,7.9-2.5,11.6c-3.8,9.6-5.3,20.2-12.8,28.1C95.6,180.8,91.6,185,85.4,183.9z M63,156
		c2.3-2,4.7-3.9,7-6c-0.6-0.6-1.2-1.1-1.8-1.7C66.4,151,64.7,153.6,63,156c-0.1,0.5-0.1,0.9-0.1,1.2C63,156.9,63,156.4,63,156z
		 M88.1,170.2c2.6-6.2,3.9-12.3,2.6-18.6c-0.6,0-1.2-0.1-1.8-0.1c-0.2,6.3-0.6,12.6-0.9,18.9c0.1,0.1,0.2,0.2,0.4,0.4
		c0,0.1-0.1,0.2-0.1,0.4C88.1,170.8,88.1,170.5,88.1,170.2z M84.3,156.3c-7,7.1-8.3,15.9-3,22.6C84.9,171.5,86,164.7,84.3,156.3z
		 M79.5,150.9c-5.3,0.9-8.1,10.7-6,17.6C75.2,163.3,77.3,157.2,79.5,150.9z M69,172.3c0-4.7,0-9.4,0-14.4
		C62.1,164.4,62.2,168.1,69,172.3z M89.5,176.9c7.3-3.2,7.6-4.9,5.4-14.1C93.2,167.1,91.3,172.1,89.5,176.9z M54.6,142.2
		c0,2.6,0,4.4,0,6.3C55.1,146.6,60.5,145,54.6,142.2z M100,150c-0.6-0.2-1.4-0.4-2-0.6c-0.5,1.7-1.1,3.3-1.6,5.1
		c0.6,0.2,1.2,0.4,1.8,0.6C98.7,153.3,99.3,151.6,100,150z M61.6,149.6c-0.4-0.1-0.7-0.1-1.2-0.2c-1,2.3-2.1,4.7-3.1,7
		c0.4,0.1,0.6,0.2,1,0.4C59.4,154.4,60.5,152,61.6,149.6z M103.9,158.4c0.1,0,0.4,0,0.5,0c0-2.7,0-5.5,0-8.3c-0.1,0-0.4,0-0.5,0
		C103.9,152.8,103.9,155.7,103.9,158.4z M100.2,161.2c-0.1,0-0.4,0-0.5,0c0.1,1,0.2,2.1,0.4,3.1c0.1,0,0.2,0,0.5,0
		C100.4,163.3,100.3,162.3,100.2,161.2z"/>
	<path class="st0" d="M58.4,112.8c1.8,0.6,3.3,0.9,4.6,1.6c5.4,3.6,10.6,7.3,15.9,10.8c2.7,1.8,2.8,3.8,1.2,6.5
		c-2.5,4.3-5.9,6.5-10.8,5.8c-5.2-0.9-10.6-6.8-10.8-12.2C58.3,121.5,58.4,117.8,58.4,112.8z M74.7,128.9c-8,5.3-5.8-5.7-10.4-6
		C66.5,131.5,69.8,133.6,74.7,128.9z"/>
	<path class="st0" d="M92.2,136.9c-1.8-1.5-5.1-3-5.7-5.2c-0.7-2.3-0.1-6.3,1.5-8c4.1-4.3,8.9-7.9,13.7-11.3c0.9-0.6,4.2,0.1,4.6,1
		c2.5,5.7-2.3,18.4-7.8,21.3C96.9,135.5,95.1,135.8,92.2,136.9z M99.2,121.5c-2.1,3.7-2.5,9.1-9.1,6.8
		C95.6,132.4,99,129.9,99.2,121.5z"/>
	<path class="st0" d="M105.5,69.9"/>
</g>
</svg>
