<?xml version="1.0" encoding="utf-8"?>
<!-- Generator: Adobe Illustrator 26.0.1, SVG Export Plug-In . SVG Version: 6.00 Build 0)  -->
<svg version="1.1"
	 id="svg3669" xmlns:cc="http://creativecommons.org/ns#" xmlns:dc="http://purl.org/dc/elements/1.1/" xmlns:rdf="http://www.w3.org/1999/02/22-rdf-syntax-ns#" xmlns:svg="http://www.w3.org/2000/svg"
	 xmlns="http://www.w3.org/2000/svg" xmlns:xlink="http://www.w3.org/1999/xlink" x="0px" y="0px" viewBox="0 0 2000 432"
	 style="enable-background:new 0 0 2000 432;" xml:space="preserve">
<style type="text/css">
	.st0{fill:#115E59;fill-opacity:0.9412;}
</style>
<g>
	<path id="path3680" class="st0" d="M492,391.1c-3.4-2.2-4.2-22.5-1.8-49.7c2.2-25.9,1.6-43.7-1.6-48.6c-1.7-2.6-7.5,5.5-14.1,19.6
		c-3.4,7.1-7.4,15-9.1,17.4c-7.7,11.3-27.6,27.7-45.4,37.3c-17.1,9.2-29.4,12.7-45.4,12.7c-12.3,0-21.9-1.7-44.9-8
		c-10.2-2.8-20.8-5.1-23.5-5.1c-3.2,0-9.1,1.3-16.2,3.6c-11.9,3.9-17.4,4.4-23.5,2.2c-19.1-6.8-45-36.4-68.4-78.1
		c-22.1-39.4-35.9-69-34.1-73.6c0.9-2.2,23.4-15.7,41.5-24.8c28.7-14.5,43.1-25.6,50-38.7c3.6-6.8,6.3-16,6.3-21.5
		c0-3.5-0.3-3.8-6.6-6.9c-8.8-4.3-18.5-6.7-33.1-8.1c-24.9-2.5-49.1,2.6-58,12.2c-2.4,2.5-2.3,2.8,2.8,15.6c1.1,2.8,0.9,7.9-2,36.5
		c-3.5,35.2-6.5,77.9-8.2,117.3c-1.2,26.2-2.9,44-5.5,55.2c-1.4,6-2.2,7.7-4.8,9.6c-5.4,4-9.7,5.1-18.7,5.1c-7.1-0.1-10.3-0.7-20-4
		l-11.5-3.9l-1.3-11.5c-0.8-7.3-1.4-25.2-1.4-49c-0.1-32.4,0.2-39.9,2-55.5c3.6-30.2,9.4-56.1,16.4-72.8c4.2-10.2,5.1-12.7,4.7-13.2
		c-0.2-0.2-9.2,0-19.9,0.5c-21.9,1-34.9,0.1-40.9-3c-4.6-2.4-5.1-3.5-4.4-10c0.5-4.5,1.2-5.7,6.7-11.1c25-25,75.9-41.1,130.2-41
		c19.6,0,28.9,1,49.9,5.1c8.2,1.6,24.4,3.9,36,5c22.5,2.1,30,3.6,38.2,7.6c13.2,6.4,18.2,22.7,11.4,37.1c-6.3,13.4-15,22.1-45.8,46
		c-26.7,20.7-33.3,28.3-35.3,40.9c-2.1,12.8,3.7,25.6,21.5,47.9c4,4.9,9.2,11.9,11.6,15.5c4.4,6.6,12.6,16,14,16
		c0.4,0,1.1-3.5,1.4-7.8c3.1-34.7,13.4-72.6,26.4-96.7c13.5-25,30.7-42.6,50.6-51.6c20.9-9.5,48.1-9.4,75,0.1
		c27.4,9.7,32.1,14.2,41,39c5.8,16.1,12,26.9,14.3,24.5c1.6-1.7,4.5-20.3,3.8-25.1c-0.3-2.4-2.6-8.9-5.1-14.3
		c-6.7-14.6-5.8-21,3.7-26.5c5.8-3.4,26.9-12.4,34.3-14.7c15.4-4.8,40.6-7.5,58.5-6.5c48.9,2.9,85,15.7,100.6,35.8
		c7.4,9.6,4.6,16.9-14.1,36.5c-13.9,14.5-17.9,19.6-20,24.6c-1.8,4.3-1.8,4.6-0.2,4.6c3.5,0,33.3,11.7,40.8,16
		c10.4,6,18.9,10,21.1,10c2,0,2.2-1,4.4-19.5c2.2-19.1,4-30.5,7.6-46.7c5.6-25.6,15.4-52.3,18.8-51.3c4.6,1.3,11,2.8,24.6,5.5
		c22.2,4.5,22.2,4.5,23.6,8.9c1.7,5.5,2.3,45,1,63.6c-2.8,39-7.5,71.3-15,103.6c-2.1,9.1-4.6,20.5-5.4,25.5
		c-2.3,12.9-4.8,17.3-11.8,20.9c-10.4,5.2-28.5,4.7-39.3-1.2c-9.5-5.1-13.1-17.2-12-39.9c0.3-7.3,0.9-14.5,1.2-16.1
		c0.4-2,0.1-3-1-3.4c-0.9-0.4-12.1,5.3-27.8,14c-63.1,34.9-90.6,46-134.8,54.8C528.2,390.7,496,393.7,492,391.1z M574.3,342.6
		c26.1-9.3,43.2-17.8,57.4-28.3c16.8-12.5,25.6-27.8,22.1-38.6c-1.7-5.1-4.9-7.6-11.3-8.8c-5.3-1-6.2-0.8-16.8,3l-11.3,4l-15.1-0.2
		l-15.1-0.2l-6.7,3.3c-16.4,8.1-26.9,23.9-26.8,40.6c0,14.1,4,30.7,7.4,30.7C558.8,347.9,566.1,345.5,574.3,342.6z M387.2,336.3
		c5-2.3,16.5-13.8,22.7-22.4c13.2-18.6,23.9-50.1,23.8-70.4c0-8.7-2.4-18.7-6.1-25.7c-5.1-9.5-12.6-14.7-25.4-17.4l-6.8-1.4l-6.3,4
		c-10.6,6.7-14.1,11.7-19.3,27.9c-6.9,21.3-10.5,44.5-10.5,67.5c0,13.2,0.4,18.4,1.7,23.5c2.2,8,5.8,13.7,10,15.6
		C375,339.3,382,338.8,387.2,336.3z M584.7,228.9c11.9-3.1,21.6-8.4,29.1-15.9c8.9-8.9,12.2-15.8,12.7-26.5l0.4-8.2l-3.4-2.5
		c-15.2-11.2-44.2-14.2-57.3-5.9c-2.5,1.6-4.6,3.3-4.6,3.8s1.7,3.5,3.9,6.8c6.9,10.5,7.4,14.9,4.1,34.9c-2.7,16.5-2.9,15.5,2.8,15.5
		C575.1,230.9,580.6,230,584.7,228.9z M1249.1,383.7c-5.3-10.6-9.6-24.6-15.3-50.5c-2.8-12.7-6.3-27.1-7.7-31.9
		c-2.3-7.9-18.6-47.8-20.3-49.6c-1.2-1.3-5,2.2-7.2,6.4c-1.1,2.2-3.6,8.4-5.5,13.8s-7.3,19.2-12,30.7c-22.6,54.7-29,68.3-34,72.2
		c-4,3.2-12.6,4.4-30.4,4.5c-15.5,0.1-16.8-0.1-21.1-2.3l-4.6-2.4l-1.1-10.1c-0.6-5.6-1.6-17.1-2.2-25.6c-1.6-23.5-3.5-35.7-10.6-69
		c-11.9-55.9-15.4-81.5-15.5-112.4c0-26.3,2.2-43,8.3-64.3c2.4-8.3,1.6-7.8,18.3-10.7c22.5-3.9,33.4-0.9,39.3,10.9
		c5.7,11.3,7,20.9,11.3,81c1.6,22.1,4.6,38.7,8.3,45.3c1.9,3.3,3,1.5,6.2-10.2c8.5-31.2,24.7-67.4,40.8-91
		c10.7-15.8,28-32.2,40.3-38.4c3.6-1.8,4.9-2,10.8-1.1c10.5,1.5,13.7,3.5,16.3,10c3.2,8.1,4.3,18.8,4.3,40.4c0,12.2,0.9,30,2.5,48.7
		c2.2,25.6,3,31.1,6,42.2c1.9,7,3.5,13,3.5,13.3s1.1-0.2,2.4-1.1c4.5-3,9.5-11.9,22.6-41c16.3-36.1,24.1-51.4,32.1-63.4
		c7.4-11.2,21.4-25.6,28.4-29.3c13.5-7.2,34.7-9.5,45.2-4.9c2.9,1.3,5.7,2.9,6.4,3.7c2.4,2.9-5.7,23.3-18.5,46.4
		c-3.5,6.3-19.5,40.5-35.4,75.8c-28.3,62.6-29.3,65-38.6,93.8c-5.9,18.3-10.7,35.3-12.6,44.6c-2.6,12.8-5.8,22.8-7.4,22.8
		c-0.2,0-6.4,0.9-13.7,2c-14.9,2.2-25.5,4.5-30.6,6.6c-1.9,0.8-3.8,1.4-4.3,1.4C1253.1,390.9,1251.1,387.7,1249.1,383.7z
		 M1774.8,388.8c-16.6-1.7-28.8-6.5-35.4-13.7c-4.1-4.5-5.2-8.7-4.5-16.4c0.5-4.8,0.8-5.4,7.4-11.2c3.8-3.3,8.7-7.9,10.9-10.1l4.1-4
		l3.3-18.5c1.8-10.2,4.7-23.2,6.3-29c7-25.1,8.9-36.3,8.9-51.7c-0.1-21.1-4.6-33.1-17.5-45.8c-4.8-4.7-10.6-9.3-14.3-11.3l-6.2-3.3
		l0.5-6.2c1.8-22,9.5-34.7,25.6-42.3c11.9-5.6,17.4-6.7,36.7-7.2c40.3-1,90.1,8.3,120.7,22.7c19.9,9.4,38.5,24,48.9,38.6
		c22.4,31.4,25.3,75.6,6.9,103.4c-14.2,21.4-39.3,40.3-68.4,51.5c-6.2,2.4-12.8,3.9-24,5.5c-13.8,2-22.8,4.3-26.8,6.8
		c-0.7,0.5-1.7,3.9-2.3,7.7c-1.9,13.7-3.7,16-18.5,23.6C1817.5,388.2,1799.3,391.3,1774.8,388.8z M1841.4,310.5
		c30-12.9,51.4-27.4,66.4-45c12.9-15.1,18.1-29.8,18.1-50.6c0-14.8-2.1-24.2-7.9-35.2c-7.5-14.3-16.7-20.8-37.8-26.7
		c-10.5-2.9-11.6-3.1-23.5-2.5c-15.4,0.7-22.6,2-25.1,4.5c-3.1,3.1-2.3,5.3,3,8.6c3.9,2.4,5.5,4.3,8,9.4c7.3,14.9,6.1,34.5-5.4,89.9
		c-4.8,23-8.2,48-6.9,50.2C1831.2,314.5,1833.3,314,1841.4,310.5z M1394.9,384.9c-27.7-7.5-46.2-32.3-46.2-62c0-17.6,3.6-33.2,15-66
		c18.1-51.9,28.3-72.6,43.8-89.3c24.4-26.2,68.9-35.6,105.4-22.4c20.4,7.4,40.5,25.3,50.3,44.7c5.3,10.5,9.5,25.7,9.5,34.3
		c0,4.4,1.3,7.6,2.3,5.9c0.3-0.5,1.8-4.3,3.2-8.4c11.9-33.1,40.6-62.5,71.4-73.1c8.3-2.9,29.4-4.4,38.3-2.8
		c33.2,5.9,53.9,27.6,61.4,64.5c2.3,11.2,2.3,38,0.1,50c-5.9,31.3-17.6,54.5-37.2,74.1c-13.5,13.5-23.6,19.9-39.2,24.8
		c-15.8,5-37.7,8-58.9,8c-11.8,0-15.3-0.3-22.3-2.3c-12-3.4-16.8-7-21.3-15.8c-4.8-9.4-6.7-20.6-7.6-44.1l-0.7-18.3l-4.3,5.5
		c-2.4,3-8.1,12.1-12.8,20.3c-10.3,17.7-14.7,23.6-23.7,31.7c-19.5,17.5-49.7,32.8-78.7,39.8
		C1429.9,387.2,1404.8,387.6,1394.9,384.9z M1446.4,346.7c5.7-1.7,14.7-9.3,20.9-17.5c15.3-20.3,33-65.4,35.3-89.6
		c2.1-22.9-4.9-54.5-13.4-60c-2.3-1.5-2.6-1.4-8.7,3.5c-9.1,7.2-22.2,20.3-27.9,27.9c-9.8,13-19,33.6-26.9,60.7
		c-10.8,36.6-12.3,56.1-5.4,68.1C1425,347.7,1434.7,350.3,1446.4,346.7z M1650.9,324.9c2-1.7,5.7-5.7,8.2-9
		c17.7-23.5,29-61.5,25.9-86.9c-1.5-12.5-7.7-31.7-11.3-35.3c-1.5-1.5-3.3-2.8-3.8-2.8c-2.4,0-22,41.7-36.8,78.5l-8.9,22l0.1,9.5
		c0.1,8,0.5,10.4,2.6,15c1.4,3,3.9,6.7,5.4,8.2c2.7,2.5,4.2,2.9,12.9,3.6C1646.3,327.8,1648.9,326.5,1650.9,324.9z M935.7,375.3
		c-5.6-2.3-8.4-8.3-11.1-23c-1.2-6.5-3.2-14.8-4.6-18.3c-4.7-12.2-15-32.6-20.6-41.2C894.2,285,881,271,878.7,271
		c-0.5,0-1.2,1-1.5,2.2c-7.5,31.9-7.5,32.1-8.6,52.2c-0.6,11-1.5,22.2-2,25c-1.9,9.7-7.3,16.1-15.8,18.5
		c-11.2,3.3-36.2,3.6-43.2,0.7l-3.6-1.5l-0.7-19.1c-1.5-39.5,2.1-88.1,9.1-122.5c4.6-22.5,9.1-35.4,21.4-61.2
		c10.4-21.8,15.2-26.2,29.2-27.2c14.6-1,26.6,3.5,37.1,13.9c9.6,9.6,13.3,17.8,16.4,36.9c2.9,17.5,5.7,24.3,11.8,27.7
		c5.3,3,8.5,2.9,11.7-0.5c4.9-5.1,6-9.4,6.9-28.8c1.7-33.3,4.4-38.5,24.3-46c7.9-3,14.7-3,26,0c11.1,2.9,15.4,7.6,17.5,18.6
		c3.4,18-2.3,63-16.1,125.6c-6.8,31.2-7.3,37.8-4,57.8c1.1,6.6,2,14.5,2,17.6v5.6l-6.8,2.1c-14.1,4.5-24.6,6.3-38.8,6.7
		C943.5,375.7,936.5,375.6,935.7,375.3z"/>
</g>
</svg>
