<?xml version="1.0" encoding="utf-8"?>
<!-- Generator: Adobe Illustrator 26.0.1, SVG Export Plug-In . SVG Version: 6.00 Build 0)  -->
<svg version="1.1" id="Слой_1" xmlns="http://www.w3.org/2000/svg" xmlns:xlink="http://www.w3.org/1999/xlink" x="0px" y="0px"
	 viewBox="0 0 343.3 257.6" style="enable-background:new 0 0 343.3 257.6;" xml:space="preserve">
<style type="text/css">
	.st0{fill:#115E59;}
</style>
<g>
	<g>
		<path class="st0" d="M220,43c-1.4-4.5-3.5-8.4-6.7-11.8c-11-11.5-24.8-15.3-40.2-13.9c-9.9,0.9-18.8,5.1-27.2,10.4
			c-5.5,3.5-9.3,8.2-11.7,14c-2.9,7.1-4.9,14.5-5.4,22.3c-0.3,4.9,0.2,9.6,2.2,14.4c1.2-2.1-0.6-4.5,2.1-6.7
			c0.6,3.6,1.7,6.6,1.4,9.5s-1.9,5.7-2.9,8.5c4.1,3,5.6,5.8,5.4,10.4c0,1-0.2,1.9-0.3,2.9c-0.2,3.8,2,6.7,4.5,8.8
			c2.2,1.9,4.5-0.7,6.7-1.5c1.4-0.5,2.6-1.5,4-1.9c1.8-0.6,3.8-1.2,5.7-1.3c3.5-0.1,5.2,1.5,6.1,5.5c-1.5-0.6-2.8-1.3-4.1-1.8
			c-3.3-1.2-6.6-0.2-8.5,2.8c-0.8,1.2-1.2,2.6-1.9,3.9c1.3,0.4,3,0.4,3.8,1.3c3.1,3.4,7.3,4.6,11.2,6.5c1,0.5,2.5,1.4,3.1,1.1
			c2.7-1.6,4.5,0,6.4,1.7c1.3-1.2,2.5-2.3,3.8-3.5c1.3,1.2,2.5,2.2,3.5,3.1c1.6-1,3.1-2.7,4.2-2.5c4.3,0.7,6.6-1.5,9.1-4.3
			s2.9-4.2,0.3-7c-1.4-1.5-3-2.8-4.8-4.4c1.9-1.4,3.4-0.7,4.6,0.3c1.6,1.3,3,3,4.6,4.3c1.1,0.9,2.6,2.2,3.6,2c2.8-0.7,5.7-1.7,8-3.4
			c2.1-1.6,0.8-4.2,0.4-6.4c-0.2-0.8-0.3-1.6-0.3-2.4c0.1-1.9,0.4-3.8,2.7-5.4c0.4,2.6,0.7,4.7,1,6.8c4-0.3,4.7-0.7,5.1-3.5
			c0.6-4,0.3-7.5-3.3-10.6c-5.7-5-4.8-12.6,1.9-17.5c0.2,0.6,0.4,1.1,0.6,1.6c0.6-1.5,1.3-2.9,1.7-4.5C223.3,61.5,222.8,52.3,220,43
			z M172.7,22.6c1.8,0.1,3.5,0.7,5.3,0.8c0.9,0,1.5,0.2,2.1,0.6h0.1c2.5,0.1,5.1-0.3,7.6,0.4c0.6,0.1,1.1,0.3,1.7,0.6c0,0,0,0,0.1,0
			c1.6,0.3,4,1,6.5,2.6c4.4,2.7,6.4,6.3,7.4,8.1c2,3.5,2.4,6.6,2.9,9.1c1.5,7.3-1.4,13.8-2.5,20.7c-0.5,3.3-2.3,4.4-5.5,4.4
			c-4,0-7-2.4-10.2-4.4c-0.6-0.4-0.8-2.1-0.6-3.2c0.2-2.1,0.8-4.2,1.3-6.2c0.6-2.6,0.3-4.9-2.3-6.3c-0.1-0.1-0.3-0.2-0.4-0.3
			c-4.5-3.7-4.5-3.8-0.4-7.4c0.5-5.8-3.9-7.7-8.1-10.2c-0.5,0.1-1.2,0.4-1.9,0.6c-3.6,1.3-3.7,1.2-5.1-2.6c-0.7-2-1.8-3.8-3.1-6.8
			C169.6,22.8,171.2,22.5,172.7,22.6z M146,54.9c2.7-2.8,3.8-6.1,4.6-9.9c1.1-5.6,3.4-10.9,9.4-13.4c1.1-0.5,1.7-2,2.7-2.7
			c0.8-0.5,2.3-1,3-0.6s0.9,1.8,1.2,2.9c0.1,0.4-0.1,1-0.3,1.4c-2.1,5.1-0.6,9.8,1.3,14.5c0.7,1.7,1.3,3.3,1.7,5.1
			c0.5,2.2,0.4,4.2-1.7,5.6l-0.1,0.1c0.8,4.2,3.7,7,6.8,9.5c1.5,1.2,3.1,1.2,4.8-0.1c1.5-1,3.1-2.6,5.1-0.7l0,0
			c0.3,0.1,0.8,0.3,0.8,0.4c0.2,2.8,1.6,4.8,3.7,6.5c0.4,0.4,0.5,1.1,0.9,1.8c-2,1.8-4,1.1-6,0.7c-2.7-0.5-5.4-1.2-8.1-1.3
			c-7.3-0.2-13.8-2.2-18.4-8.2c-0.1-0.1-0.2-0.2-0.3-0.4c-5.7-5.8-5.8-5.8-13-2.7c-1.9-1.7-1.3-3.2,0.3-4.7
			C144.8,57.5,145.1,55.9,146,54.9z M162.5,98.4c-2.2-4.1-1.9-4.8,4.9-14.2c-4.7,1.9-7.6,4.4-10.1,7.6c-3.2,4.1-7.5,5.5-12.5,5.3
			c-0.6,0-1.1-0.4-1.7-0.6c0-0.3,0-0.6,0-0.9c1.8-0.5,3.6-1,6.2-1.8c-2.1-1.7-3.6-2.9-5-4.1c-7.5-6.4-6.3-15.6,2.5-20.2
			c0.4-0.2,0.8-0.4,1.9-0.9c-1.9-0.6-3.2-1.1-5.4-1.8c3.4-1.8,6-1.8,8.4,0c1.3,0.9,2.6,2.1,3.6,3.3c4,4.7,9.2,6.6,15.1,6.8
			c1.1,0,2.2,0.2,3.5,0.3c-0.3,4-1.5,7.4-4.4,9.7C165.7,89.7,163.1,93.2,162.5,98.4z M183.7,105.9c-1-1.9-1.5-3-2.3-4.6
			c-0.9,1.4-1.6,2.4-2.4,3.6c-0.5-1.4-0.9-2.7-1.3-3.9c-0.3,0-0.6,0-0.9,0c-0.5,2.3-1,4.5-1.5,6.9c-1.5-2.2-1.5-2.2-1.8-5.3
			c-1.1-0.2-2.3-0.8-3.4-0.5c-0.9,0.2-1.6,1.3-2.7,2.2c-1.4-4.1-0.6-7.6,1.3-11c1.8-3.2,3.7-6.5,5.9-10.3c0.3,2.7,0.6,4.9,0.8,7.1
			c0.3,0,0.6,0,0.9,0c0.5-2.6,0.9-5.2,1.4-7.9C181.3,88.4,184.7,100.6,183.7,105.9z M208.7,90c-3,2.9-6.6,5.2-10.2,8
			c1.3,0.7,2.5,1.5,4.4,2.6c-3.4,1.6-5.6,0.2-7.6-1.3c-1.4-1.1-2.4-2.7-3.5-4.1c-1.5-1.9-3.1-3.8-4.9-6.1c-2.3,4.2,0.1,6.5,1.3,9.3
			c-2.2,0.1-3.1-1-3.7-2.3c-0.6-1.3-1.1-2.8-1.1-4.2c0-3.6-1.2-6.7-3.3-9.5c-0.6-0.8-0.8-2-1.2-3c1.5-1.7,3.2-1.2,4.7-1.1
			c5.6,0.4,10.6-1.4,15.3-4.2c2.7-1.5,5.5-2.7,8.3-3.9c0.8-0.3,1.8-0.2,3,0.5c-1.1,0.7-2.2,1.5-3.4,2.3c0.2,0.4,0.3,0.8,0.6,1.1
			C212.2,77.9,213,85.7,208.7,90z"/>
		<path class="st0" d="M169.1,127.2c4.7,4,5.7,11.3,3,15.3c-1.1,1.6-3,1.6-3.8-0.2c-0.3-0.6-0.5-1.3-0.4-1.9
			C168.2,136.4,168.7,132.3,169.1,127.2z"/>
		<path class="st0" d="M177.6,127c2.2,1.4,2.3,3.7,2.4,5.7c0.1,2.6-0.3,5.2-0.6,7.7c-0.3,2.4-1.9,2.7-4.3,2c0-1.3,0-2.5,0-3.7
			c0-2.1,0.4-4.2,0.1-6.2C174.8,130,175.8,128.5,177.6,127z"/>
		<path class="st0" d="M165.4,142.3c-2.7-0.4-3.5-2.2-3.6-4.1c-0.1-2.7,0.1-5.5,0.5-8.2c0.1-0.8,1.3-2,2.1-2.1
			c1.5-0.2,2.3,1,2.4,2.5C167,134.4,166.3,138.3,165.4,142.3z"/>
		<path class="st0" d="M185.2,126.8c2.2,5.7,0.4,10.7-0.3,16.2c-1.2-0.7-2.4-0.9-2.7-1.6C180.4,138.2,181.8,130.4,185.2,126.8z"/>
		<path class="st0" d="M158.5,138.9c-3.2-5.4-3-10,1.1-14.3c0.3,0.6,0.8,1.2,0.8,1.8c-0.2,3.7-0.4,7.4-0.8,11.1
			C159.6,137.9,159,138.3,158.5,138.9z"/>
		<path class="st0" d="M148.5,128.8c-3.1-5-2.7-6.5,2.3-9.3C153.3,122.9,152.8,125,148.5,128.8z"/>
		<path class="st0" d="M187.4,140.8c0.2-4.6,0.4-8.6,0.7-12.5c0-0.4,0.9-0.7,1.5-1.1C191.4,132.4,190.7,137.6,187.4,140.8z"/>
		<path class="st0" d="M156,123.8c-0.6,4.1-1.1,7.7-1.7,11.4C150,132.7,150.7,127.5,156,123.8z"/>
		<path class="st0" d="M193.3,134.9c-1.4-4.9-1.2-6.7,1.1-9.9c1,2.8,1.5,5.4,0.9,8.1C195.2,133.7,194.1,134.2,193.3,134.9z"/>
		<path class="st0" d="M149.2,117.6L149.2,117.6L149.2,117.6z"/>
		<path class="st0" d="M36.4,99L36.4,99L36.4,99z"/>
		<path class="st0" d="M14.9,115.7L14.9,115.7L14.9,115.7z"/>
		<polygon class="st0" points="162.9,31.4 163.1,31.2 162.9,31.3 		"/>
		<path class="st0" d="M163.9,34.3L163.9,34.3L163.9,34.3z"/>
		<polygon class="st0" points="167.8,57.9 167.5,57.6 167.8,57.8 		"/>
	</g>
	<g>
		<path class="st0" d="M113.7,147.8c-0.7,4.1-1.2,7.6-1.8,11c-5-0.9-5.2-1.2-8.6-13.3c-1-0.2-2.1-0.5-3.2-0.6c-0.9-0.1-1.9,0-3,0
			c-0.6,1.7-1.1,3.2-1.7,5c-1.5-0.4-2.9-0.7-4-0.9c-1.3,1.7-2.5,3.4-4,4.9c-2,2-3.6,4-3.7,7.1c0,1.1-1.6,2.2-3,4
			c-4.4-7.1-11.1-9.1-17.6-11.3c-5.1-1.7-10.2-3.4-15.4-5.1c-0.6,1-1.1,1.8-1.8,3c-7.8-4.2-15.5-8.5-22.6-14.1
			c9-0.2,17.7,0.6,26.9,1.8c-0.4,1.7-0.6,3-1,4.6c7.5,2.5,14.7,5.1,22,7.4c2.1,0.7,4.5,1,6.7,1.1c3.5,0.1,6.3-1.8,7.3-4.7
			c1-2.7-0.1-6.2-2.7-8.4c-0.7-0.6-1.6-1.2-2.5-1.5c-10.7-3.9-21.5-7.7-32.5-11.6c-0.6,1.4-1,2.4-1.7,4.1
			c-10.4-5.7-20.7-11.3-31.2-17.1c5.4-2.1,21-1.1,37.5,2.3c-0.8,1.4-1.6,2.7-2.5,4.4c1,0.5,1.9,1.1,2.8,1.4c9,2.9,18,5.8,27,8.7
			c1.1,0.3,2.2,0.6,3.3,0.7c4.2,0.4,7.2-1.3,8.2-4.6c1.1-3.5-0.4-8-3.6-9.8c-1.5-0.9-3.3-1.5-4.9-2.1c-6.2-2.1-12.4-4-18.6-6.3
			c-2.5-0.9-4.3-1-5.6,2c-7.4-4.6-15.3-7.7-22.5-14.3c9.7-0.5,18.2,0.5,27,1.2c-0.2,1.6-0.4,2.8-0.6,4c9.1,5.1,23.4,9.3,32.9,9.5
			c1.6,1.9,1.9,3.9,1.6,6.6c-0.4,3.3,0.4,6.7,0.6,10c1.6,0.4,2.9,0.7,4.5,1.1c-0.6,1.8-1.2,3.4-1.8,5.2c1.8,1.1,3.6,2.2,5.5,3.4
			c4.9-2.8,9.9-5.9,16.1-3.7c-1.4,2.9-2.8,5.6-4.3,8.7c4.5,1.4,49.3,17.7,60.5,20.4c2.5,0.6,5,1.5,7.4,2.4
			c5.7,2.2,100.5,30.7,108.5,33.3c3.2,1.1,6.3,1.9,9.7,2.3c3.4,0.4,4.2,1.7,3.5,4.5c-0.8,3.1-2.8,4-5.9,3.1
			c-7.1-2.1-59.3-17.8-64.7-19.5c-7.7-2.5-15.5-4.8-23.2-7.2c-0.9-0.3-9-3.3-12.4-4c-4.9-0.9-9.5-3.2-14.2-4.8
			c-2.1-0.7-4.3-1.4-6.4-2c-0.9-0.3-1.9-0.3-2.8-0.7c-6.1-2.3-52-17.8-57.6-18.9C117.9,150.1,116.4,149,113.7,147.8z"/>
		<path class="st0" d="M178.7,159.3c15.7-6.8,31.1-10.6,46.9-13.4c17.5-3.1,31.6-12.5,44.1-24.8c4.7-4.7,9.9-9.1,15.4-12.8
			c12.7-8.6,37.3-4.4,42.6,17.9c3,12.8-2.6,26.7-15.2,33c-5.9,2.9-12,2.5-18.2,1.5c-3.2-0.5-6.4-1.4-9.6-1.7c-3-0.3-6.1,0.1-9.3,0.2
			c-0.2,1.7-0.2,2.8-0.4,3.9c-0.4,2.1-1.8,3.7-3.9,3.8c-1.4,0-3.3-0.6-4.3-1.6c-1.6-1.5-2-3.8-0.7-5.9c2.2-3.4,5.5-5.3,9.4-5.4
			c4.9-0.1,9.8,0.1,14.6,0.7c7.9,1,15.2,0.1,22-4.6c6.8-4.8,10.4-13.2,8.7-21.4c-1.5-7.5-8.2-13.7-16.1-15.4
			c-8.7-1.9-16.1,0.5-22.7,6.1c-3.2,2.8-6.4,5.6-9.4,8.6c-12,12.4-26.9,19.2-43.2,23.6c-13.1,3.6-26.1,7.4-39.1,10.9
			C186.1,163.7,182.9,161.1,178.7,159.3z"/>
		<path class="st0" d="M168,168.6c-7.5,2.2-117,33-120.9,34.5c-3.2,1.2-4.7,0.6-5.4-2c-0.9-2.8,0.5-5.2,3.5-5.7
			c3.4-0.5,41.5-10.5,55-14.3c15.5-4.4,31-8.8,46.6-13.1c2.2-0.6,4.5-0.9,6.6-1.8C158.5,164,162.8,165.8,168,168.6z"/>
		<path class="st0" d="M167.9,85.6c-0.3,0.3-0.5,0.5-0.8,0.8l-0.1,0.1C167.3,86.2,167.7,86,167.9,85.6
			C168,85.7,167.9,85.6,167.9,85.6z"/>
		<path class="st0" d="M167.1,86.4c-0.1,0-0.2,0.1-0.3,0.1C166.9,86.5,166.9,86.5,167.1,86.4C167,86.5,167.1,86.4,167.1,86.4z"/>
	</g>
	<g>
		<path class="st0" d="M68.3,233.1v-1.7h4.4v2c0,2.1,0.9,2.9,2.4,2.9s2.4-0.8,2.4-2.9c0-2.4-0.9-4-4-6.7c-3.9-3.4-5.1-5.8-5.1-9.2
			c0-4.6,2.4-7.3,6.9-7.3s6.7,2.7,6.7,7.4v1.2h-4.4v-1.5c0-2.1-0.8-2.9-2.3-2.9s-2.3,0.8-2.3,2.8c0,2.1,1,3.7,4,6.4
			c3.9,3.4,5.1,5.8,5.1,9.4c0,4.8-2.4,7.5-7,7.5C70.5,240.6,68.3,237.9,68.3,233.1z"/>
		<path class="st0" d="M86.4,210.6H99v4.2h-8v7.8h6.4v4.2H91v9.1h8v4.2H86.4V210.6z"/>
		<path class="st0" d="M107,210.6h6.3l4.8,29.5h-4.6l-0.8-5.9v0.1h-5.3l-0.8,5.8h-4.3L107,210.6z M112,230.4l-2.1-14.6h-0.1l-2,14.6
			H112z"/>
		<path class="st0" d="M129.6,233.1v-1.7h4.4v2c0,2.1,0.9,2.9,2.4,2.9s2.4-0.8,2.4-2.9c0-2.4-0.9-4-4-6.7c-3.9-3.4-5.1-5.8-5.1-9.2
			c0-4.6,2.4-7.3,6.9-7.3s6.7,2.7,6.7,7.4v1.2H139v-1.5c0-2.1-0.8-2.9-2.3-2.9s-2.3,0.8-2.3,2.8c0,2.1,1,3.7,4,6.4
			c3.9,3.4,5.1,5.8,5.1,9.4c0,4.8-2.4,7.5-7,7.5C131.9,240.6,129.6,237.9,129.6,233.1z"/>
		<path class="st0" d="M147.8,210.6h4.6v12h5v-12h4.6v29.5h-4.6v-13.3h-5v13.3h-4.6V210.6z"/>
		<path class="st0" d="M167.2,210.6h12.6v4.2h-8v7.8h6.4v4.2h-6.4v9.1h8v4.2h-12.6V210.6z"/>
		<path class="st0" d="M184.1,210.6h6.8c4.6,0,6.9,2.6,6.9,7.3v2.9c0,4.7-2.3,7.3-6.9,7.3h-2.2v12h-4.6V210.6z M191,223.9
			c1.5,0,2.3-0.7,2.3-2.8v-3.5c0-2.1-0.8-2.8-2.3-2.8h-2.2v9.1H191z"/>
		<path class="st0" d="M202.1,210.6h4.6v12h5v-12h4.6v29.5h-4.6v-13.3h-5v13.3h-4.6V210.6z"/>
		<path class="st0" d="M221.5,210.6h12.6v4.2h-8v7.8h6.4v4.2h-6.4v9.1h8v4.2h-12.6V210.6z"/>
		<path class="st0" d="M238.5,210.6h6.9c4.8,0,6.9,2.2,6.9,6.8v1.8c0,3-1,5-3,5.8v0.1c2.3,0.7,3.1,2.9,3.1,6.2v5.2
			c0,1.4,0,2.5,0.5,3.6H248c-0.3-0.8-0.4-1.2-0.4-3.6v-5.4c0-2.7-0.8-3.6-2.9-3.6h-1.6v12.6h-4.6V210.6z M244.8,223.3
			c1.7,0,2.8-0.8,2.8-3.1v-2.3c0-2.1-0.7-3-2.4-3h-2.1v8.4L244.8,223.3L244.8,223.3z"/>
		<path class="st0" d="M257.1,210.6h7.1c4.6,0,6.9,2.6,6.9,7.3v14.9c0,4.7-2.3,7.3-6.9,7.3h-7.1V210.6z M264.1,235.9
			c1.5,0,2.4-0.8,2.4-2.9v-15.3c0-2.1-0.9-2.9-2.4-2.9h-2.4v21.1L264.1,235.9L264.1,235.9z"/>
	</g>
</g>
</svg>
