<?xml version="1.0" encoding="utf-8"?>
<!-- Generator: Adobe Illustrator 26.0.1, SVG Export Plug-In . SVG Version: 6.00 Build 0)  -->
<svg version="1.1" id="Слой_1" xmlns="http://www.w3.org/2000/svg" xmlns:xlink="http://www.w3.org/1999/xlink" x="0px" y="0px"
	 viewBox="0 0 247 235" style="enable-background:new 0 0 247 235;" xml:space="preserve">
<style type="text/css">
	.st0{fill:#FFFFFF;}
	.st1{fill:#115E59;}
</style>
<g>
	<path class="st0" d="M115.5,224.2c-34.3-1-65.4-16-87.8-47.3C0.4,138.8,3.1,83.6,33.8,48.1C54.6,23.9,81.1,10.7,113,9.2
		c40.3-1.9,73,13.1,97.2,45.6c12,16.2,18.5,34.6,19.5,54.9c2,39.7-13.8,70.9-45.4,94.2C166.6,216.9,142.6,224.1,115.5,224.2z
		 M120.8,15.6c-31.5,0.9-57.3,11.2-78.1,33.3c-19.5,20.7-28.5,45.2-26.9,73.7c1.5,25.7,11.9,47.5,30.4,65.1
		c22.2,21.2,49,31.1,79.9,29s56.3-15.2,75.4-39.3c25.9-32.6,28.7-74.8,8.3-109.5C189.8,33.7,158.7,17.2,120.8,15.6z"/>
	<path class="st1" d="M120.8,15.6c37.9,1.6,69,18,89.1,52.3c20.3,34.7,17.5,76.9-8.3,109.5c-19.1,24.1-44.5,37.2-75.4,39.3
		s-57.7-7.9-79.9-29c-18.5-17.6-28.9-39.3-30.4-65.1c-1.6-28.4,7.4-53,26.9-73.7C63.5,26.8,89.3,16.5,120.8,15.6z M112.6,172.6
		c-0.4,0.1-0.8,0.3-1.2,0.4c-4.7-3.7-9.5-7.4-14.2-11.1c-12.4-9.6-23.1-20.5-27.8-36.1c-2.3-7.5-3.9-8.7,5.5-8.4c0.2,0,0.3,0,0.5,0
		c2.9,0.1,4.2-1.3,4-4.2c-0.5-10.6-6.7-18-13.7-25.3c-6.4,7.3-12.1,14.3-13.3,23.8c-0.6,4.6-0.2,5.8,4.4,5.6
		c5.1-0.3,7.6,1.8,8.6,6.5c0.4,1.8,1.2,3.4,1.8,5.2c3.7,10.6,9.5,19.9,18.2,27.2c9.1,7.5,18.3,14.9,27.4,22.5c2.2,1.8,4.1,1.4,6.1,0
		c10-7.1,20.3-13.8,29.8-21.6c5.2-4.2,9.5-9.8,13.1-15.5c3.9-6.1,6.6-12.9,9.6-19.6c1.3-2.8,2.9-4.3,6.1-4.3c7.2,0,8-1.4,6.3-8.4
		c-0.4-1.8-1-3.5-1.6-5.2c-2.4-6.3-6.7-11.2-11.4-16.3c-2.1,2.7-3.6,4.9-5.4,6.9c-4.3,4.8-6.4,10.6-7.6,16.8
		c-1.1,5.7-0.5,6.3,5.2,6.4c1.9,0,3.7,0.3,5.6,0.5c-7.1,28.8-29.1,43.1-52.5,57.6c0-2.7,0-4.4,0-6.2c0-23,0-46.1,0-69.1
		c0-8.7-1.4-9.6,8.6-9.1c3.6,0.2,4.4-1.5,4.2-4.7c-0.6-10.3-6.8-17.4-13.4-24.7c-6.2,7.2-12.2,14-13.3,23.6c-0.6,4.8,0,5.6,4.9,5.7
		c5.9,0.2,6,0.3,6,6.3c0,23.3,0,46.7,0,70C112.9,169.4,112.7,171,112.6,172.6z"/>
	<path class="st0" d="M112.6,172.6c0.1-1.6,0.3-3.2,0.3-4.8c0-23.3,0-46.7,0-70c0-6-0.2-6.1-6-6.3c-4.9-0.1-5.4-0.9-4.9-5.7
		c1.2-9.6,7.1-16.4,13.3-23.6c6.6,7.3,12.9,14.4,13.4,24.7c0.2,3.2-0.6,4.9-4.2,4.7c-10-0.5-8.6,0.5-8.6,9.1c0,23,0,46.1,0,69.1
		c0,1.8,0,3.5,0,6.2c23.3-14.5,45.3-28.8,52.5-57.6c-1.9-0.2-3.8-0.5-5.6-0.5c-5.7-0.1-6.3-0.7-5.2-6.4c1.2-6.2,3.3-11.9,7.6-16.8
		c1.8-2,3.3-4.2,5.4-6.9c4.8,5.1,9.1,10,11.4,16.3c0.6,1.7,1.2,3.4,1.6,5.2c1.8,7.1,0.9,8.4-6.3,8.4c-3.3,0-4.9,1.5-6.1,4.3
		c-3,6.6-5.7,13.5-9.6,19.6c-3.6,5.7-7.9,11.3-13.1,15.5c-9.5,7.7-19.8,14.4-29.8,21.6c-2,1.5-3.9,1.9-6.1,0
		c-9.1-7.6-18.3-14.9-27.4-22.5c-8.7-7.3-14.5-16.6-18.2-27.2c-0.6-1.7-1.4-3.4-1.8-5.2c-1-4.7-3.5-6.8-8.6-6.5
		c-4.6,0.3-5-0.9-4.4-5.6c1.2-9.6,6.9-16.6,13.3-23.8c7,7.4,13.2,14.7,13.7,25.3c0.1,2.8-1.1,4.3-4,4.2c-0.2,0-0.3,0-0.5,0
		c-9.4-0.3-7.8,0.9-5.5,8.4c4.7,15.6,15.5,26.4,27.8,36.1c4.8,3.7,9.5,7.4,14.2,11.1C111.8,172.8,112.2,172.7,112.6,172.6z"/>
</g>
</svg>
